{
.appVersion = "1141";
DisplayStrings = (
"/hiriq_yod"
);
copyright = "Copyright 2009 by Yoram Gnat (yoram.gnat@gmail.com)\012Distributed under the terms of GNU General Public License version 2(http://www.gnu.org/licenses/gpl.html). \012\012Hebrew OpenType Layout logic copyright (c) 2003 & 2007, Ralph Hancock & John Hudson. This layout logic for Biblical Hebrew is open source software under the MIT License; for details  contact copyright holders at <license@tiro.com>.\012\012As a special exception, if you create a document which uses this font, and embed this font or unaltered portions of this font into the document, this font does not by itself cause the resulting document to be covered by the GNU General Public License. This exception does not however invalidate any other reasons why the document might be covered by the GNU General Public License. If you modify this font, you may extend this exception to your version of the font, but you are not obligated to do so. If you do not wish to do so, delete this exception statement from your version.";
customParameters = (
{
name = licenseURL;
value = "http://www.gnu.org/licenses/old-licenses/gpl-2.0.html, \012http://www.opensource.org/licenses/mit-license.php ";
},
{
name = license;

glyphs = (
{
glyphname = .notdef;
lastChange = "2018-07-29 16:34:27 +0000";
layers = (
{
layerId = "44BDE90C-78B7-4A9A-A14D-6B569C2B6751";
paths = (
{
closed = 1;
nodes = (
"612 0 LINE",
"612 1365 LINE",
"68 1365 LINE",
"68 0 LINE"
);
},
{
closed = 1;
nodes = (
"136 1297 LINE",
"544 1297 LINE",
"544 68 LINE",
"136 68 LINE"
);
}
);
userData = {
assembly = "PUSHB[ ]\011/* 2 values pushed */
1 0 
MDAP[1]\011/* MoveDirectAbsPt */
ALIGNRP[ ]\011/* AlignRelativePt */
PUSHB[ ]\011/* 3 values pushed */
7 4 0 
MIRP[01101]\011/* MoveIndirectRelPt */
SHP[0]\011/* ShiftPointByLastPoint */
PUSHB[ ]\011/* 2 values pushed */
6 5 
MDRP[11100]\011/* MoveDirectRelPt */
ALIGNRP[ ]\011/* AlignRelativePt */
PUSHB[ ]\011/* 3 values pushed */
3 2 0 
MIRP[01101]\011/* MoveIndirectRelPt */
SHP[0]\011/* ShiftPointByLastPoint */
SVTCA[0]\011/* SetFreedomAndProjectionVectorToAxis */
PUSHB[ ]\011/* 2 values pushed */
3 0 
MDAP[1]\011/* MoveDirectAbsPt */
ALIGNRP[ ]\011/* AlignRelativePt */
PUSHB[ ]\011/* 3 values pushed */
5 4 0 
MIRP[01101]\011/* MoveIndirectRelPt */
SHP[0]\011/* ShiftPointByLastPoint */
PUSHB[ ]\011/* 3 values pushed */
7 6 1 
MIRP[11100]\011/* MoveIndirectRelPt */
ALIGNRP[ ]\011/* AlignRelativePt */
PUSHB[ ]\011/* 3 values pushed */
1 2 0 
MIRP[01101]\011/* MoveIndirectRelPt */
SHP[0]\011/* ShiftPointByLastPoint */";
};
width = 748;
}
);
note = .notdef;
},
{
glyphname = exclam;
lastChange = "2018-07-29 16:34:27 +0000";
layers = (
{
layerId = "44BDE90C-78B7-4A9A-A14D-6B569C2B6751";
paths = (
{
closed = 1;
nodes = (
"10 171 LINE",
"2 155 OFFCURVE",
"3 149 QCURVE",
"6 95 OFFCURVE",
"131 -29 OFFCURVE",
"180 -29 QCURVE SMOOTH",
"192 -29 OFFCURVE",
"205 -24 QCURVE",
"364 103 LINE",
"214 209 OFFCURVE",
"161 316 QCURVE"
);
},
{
closed = 1;
nodes = (
"39 387 LINE",
"214 519 LINE",
"34 1450 LINE",
"-238 1223 LINE"
);
}
);
width = 473;
}
);
note = exclam;
unicode = 0021;
},
{
glyphname = quotedbl;
lastChange = "2018-07-29 16:34:27 +0000";
layers = (
{
layerId = "44BDE90C-78B7-4A9A-A14D-6B569C2B6751";
paths = (
{
closed = 1;
nodes = (
"72 1431 LINE",
"158 951 LINE",
"312 970 LINE",
"299 1461 LINE"
);
},
{
closed = 1;
nodes = (
"-255 1431 LINE",
"-169 951 LINE",
"-15 970 LINE",
"-28 1461 LINE"
);
}
);
width = 721;
}
);
note = quotedbl;
unicode = 0022;
},
{
glyphname = numbersign;
lastChange = "2018-07-29 16:34:27 +0000";
layers = (
{
layerId = "44BDE90C-78B7-4A9A-A14D-6B569C2B6751";
paths = (
{
closed = 1;
nodes = (
"613 1060 LINE",
"606 1462 LINE",
"407 1462 LINE",
"414 1060 LINE",
"298 1060 LINE",
"289 1462 LINE",
"89 1462 LINE",
"98 1060 LINE",
"-133 1060 LINE",
"-128 862 LINE",
"102 862 LINE",
"106 574 LINE",
"-124 574 LINE",
"-121 376 LINE",
"109 376 LINE",
"116 -28 LINE",
"315 -28 LINE",
"308 376 LINE",
"426 376 LINE",
"433 -28 LINE",
"633 -28 LINE",
"626 376 LINE",
"856 376 LINE",
"850 574 LINE",
"621 574 LINE",
"616 862 LINE",
"846 862 LINE",
"842 1060 LINE"
);
},
{
closed = 1;
nodes = (
"421 574 LINE",
"307 574 LINE",
"301 862 LINE",
"417 862 LINE"
);
}
);
width = 1135;
}
);
note = numbersign;
unicode = 0023;
},
{
glyphname = dollar;
lastChange = "2018-07-29 16:34:27 +0000";
layers = (
{
layerId = "44BDE90C-78B7-4A9A-A14D-6B569C2B6751";
paths = (
{
closed = 1;
nodes = (
"542 576 LINE",
"645 560 OFFCURVE",
"770 402 OFFCURVE",
"770 313 QCURVE SMOOTH",
"770 253 OFFCURVE",
"710 164 OFFCURVE",
"652 148 QCURVE"
);
},
{
closed = 1;
nodes = (
"235 1303 LINE",
"341 907 LINE",
"229 940 OFFCURVE",
"129 1042 OFFCURVE",
"115 1106 QCURVE SMOOTH",
"110 1126 OFFCURVE",
"110 1153 QCURVE SMOOTH",
"110 1216 OFFCURVE",
"182 1303 OFFCURVE",
"233 1303 QCURVE SMOOTH"
);
},
{
closed = 1;
nodes = (
"625 1161 OFFCURVE",
"775 1261 OFFCURVE",
"799 1286 QCURVE",
"694 1462 OFFCURVE",
"442 1462 QCURVE SMOOTH",
"392 1462 OFFCURVE",
"343 1455 QCURVE",
"301 1650 LINE",
"175 1561 LINE",
"208 1418 LINE",
"162 1395 OFFCURVE",
"88 1354 OFFCURVE",
"-1 1295 OFFCURVE",
"-66 1230 OFFCURVE",
"-123 1153 OFFCURVE",
"-153 1060 OFFCURVE",
"-153 1009 QCURVE SMOOTH",
"-153 968 OFFCURVE",
"-143 925 QCURVE",
"-128 870 OFFCURVE",
"-79 807 OFFCURVE",
"-18 768 QCURVE SMOOTH",
"21 743 OFFCURVE",
"187 689 OFFCURVE",
"399 635 OFFCURVE",
"404 633 QCURVE",
"508 183 LINE",
"424 205 OFFCURVE",
"303 287 OFFCURVE",
"249 379 QCURVE",
"229 410 LINE",
"-3 257 LINE",
"-14 246 OFFCURVE",
"-17 225 OFFCURVE",
"-13 198 QCURVE",
"4 135 OFFCURVE",
"153 31 OFFCURVE",
"355 -25 OFFCURVE",
"456 -25 QCURVE SMOOTH",
"507 -25 OFFCURVE",
"554 -16 QCURVE",
"597 -238 LINE",
"735 -146 LINE",
"694 31 LINE",
"748 63 OFFCURVE",
"861 157 OFFCURVE",
"969 277 OFFCURVE",
"1037 423 OFFCURVE",
"1037 491 QCURVE SMOOTH",
"1037 516 OFFCURVE",
"1030 549 QCURVE SMOOTH",
"1022 583 OFFCURVE",
"991 640 OFFCURVE",
"943 687 OFFCURVE",
"905 717 OFFCURVE",
"873 739 QCURVE",
"697 810 OFFCURVE",
"487 867 QCURVE",
"387 1288 LINE",
"408 1278 OFFCURVE",
"455 1243 OFFCURVE",
"486 1213 OFFCURVE",
"538 1161 OFFCURVE",
"550 1150 QCURVE SMOOTH",
"569 1132 LINE",
"589 1142 LINE SMOOTH"
);
}
);
width = 1266;
}
);
note = dollar;
unicode = 0024;
},
{
glyphname = percent;
lastChange = "2018-07-29 16:34:27 +0000";
layers = (
{
layerId = "44BDE90C-78B7-4A9A-A14D-6B569C2B6751";
paths = (
{
closed = 1;
nodes = (
"529 20 LINE",
"1223 1409 LINE",
"1052 1369 LINE",
"350 -9 LINE"
);
},
{
closed = 1;
nodes = (
"1060 786 OFFCURVE",
"1108 799 OFFCURVE",
"1172 813 OFFCURVE",
"1191 813 QCURVE SMOOTH",
"1324 813 OFFCURVE",
"1552 606 OFFCURVE",
"1593 428 QCURVE SMOOTH",
"1606 374 LINE SMOOTH",
"1614 337 OFFCURVE",
"1614 306 QCURVE SMOOTH",
"1614 239 OFFCURVE",
"1552 153 OFFCURVE",
"1492 153 QCURVE SMOOTH",
"1422 153 OFFCURVE",
"1274 250 OFFCURVE",
"1158 402 OFFCURVE",
"1084 603 OFFCURVE",
"1083 700 QCURVE",
"1083 773 LINE",
"1028 723 LINE SMOOTH",
"988 686 OFFCURVE",
"912 553 OFFCURVE",
"912 472 QCURVE SMOOTH",
"912 439 OFFCURVE",
"919 408 QCURVE SMOOTH",
"956 244 OFFCURVE",
"1216 20 OFFCURVE",
"1368 20 QCURVE SMOOTH",
"1555 20 OFFCURVE",
"1767 265 OFFCURVE",
"1767 449 QCURVE SMOOTH",
"1767 518 OFFCURVE",
"1750 594 QCURVE SMOOTH",
"1715 746 OFFCURVE",
"1465 971 OFFCURVE",
"1315 971 QCURVE SMOOTH",
"1277 971 OFFCURVE",
"1215 962 OFFCURVE",
"1147 933 OFFCURVE",
"1120 921 OFFCURVE",
"1035 868 OFFCURVE",
"1025 862 QCURVE SMOOTH",
"1000 847 LINE",
"1060 784 LINE"
);
},
{
closed = 1;
nodes = (
"-84 1168 LINE",
"-196 1047 OFFCURVE",
"-196 928 QCURVE SMOOTH",
"-196 897 OFFCURVE",
"-189 866 QCURVE SMOOTH",
"-151 702 OFFCURVE",
"103 492 OFFCURVE",
"247 492 QCURVE SMOOTH",
"375 492 OFFCURVE",
"566 607 OFFCURVE",
"660 795 OFFCURVE",
"660 911 QCURVE SMOOTH",
"660 974 OFFCURVE",
"645 1038 QCURVE SMOOTH",
"610 1190 OFFCURVE",
"354 1416 OFFCURVE",
"200 1416 QCURVE SMOOTH",
"168 1416 OFFCURVE",
"109 1407 OFFCURVE",
"68 1396 OFFCURVE",
"14 1369 OFFCURVE",
"-13 1354 OFFCURVE",
"-75 1315 OFFCURVE",
"-89 1307 QCURVE",
"-112 1292 LINE",
"-54 1229 LINE",
"-53 1232 OFFCURVE",
"-10 1246 OFFCURVE",
"50 1258 OFFCURVE",
"69 1258 QCURVE SMOOTH",
"77 1258 LINE SMOOTH",
"210 1258 OFFCURVE",
"437 1060 OFFCURVE",
"477 889 QCURVE SMOOTH",
"489 837 LINE SMOOTH",
"496 809 OFFCURVE",
"496 776 QCURVE SMOOTH",
"496 711 OFFCURVE",
"431 626 OFFCURVE",
"370 626 QCURVE SMOOTH",
"250 626 OFFCURVE",
"22 861 OFFCURVE",
"-15 1024 QCURVE SMOOTH",
"-25 1066 OFFCURVE",
"-31 1145 QCURVE SMOOTH",
"-36 1215 LINE"
);
}
);
width = 1996;
}
);
note = percent;
unicode = 0025;
},
{
glyphname = ampersand;
lastChange = "2018-07-29 16:34:27 +0000";
layers = (
{
layerId = "44BDE90C-78B7-4A9A-A14D-6B569C2B6751";
paths = (
{
closed = 1;
nodes = (
"750 640 LINE",
"822 330 LINE SMOOTH",
"826 313 OFFCURVE",
"826 296 QCURVE SMOOTH",
"826 249 OFFCURVE",
"754 207 OFFCURVE",
"680 198 QCURVE",
"610 198 LINE SMOOTH",
"557 198 OFFCURVE",
"426 232 OFFCURVE",
"299 293 OFFCURVE",
"202 392 OFFCURVE",
"188 449 QCURVE SMOOTH",
"181 477 OFFCURVE",
"181 504 QCURVE SMOOTH",
"181 581 OFFCURVE",
"331 640 OFFCURVE",
"507 640 QCURVE SMOOTH"
);
},
{
closed = 1;
nodes = (
"276 1364 OFFCURVE",
"164 1324 QCURVE",
"52 1268 LINE SMOOTH",
"37 1261 OFFCURVE",
"-30 1212 OFFCURVE",
"-117 1132 OFFCURVE",
"-180 1017 OFFCURVE",
"-180 961 QCURVE SMOOTH",
"-180 798 OFFCURVE",
"84 669 QCURVE SMOOTH",
"133 646 LINE",
"104 621 LINE SMOOTH",
"-56 483 OFFCURVE",
"-56 362 QCURVE SMOOTH",
"-56 335 OFFCURVE",
"-51 315 QCURVE SMOOTH",
"-31 230 OFFCURVE",
"117 91 OFFCURVE",
"305 13 OFFCURVE",
"479 -28 OFFCURVE",
"542 -28 QCURVE SMOOTH",
"640 -28 OFFCURVE",
"777 58 OFFCURVE",
"875 168 QCURVE SMOOTH",
"966 270 OFFCURVE",
"1042 413 OFFCURVE",
"1042 487 QCURVE SMOOTH",
"1042 530 OFFCURVE",
"1030 581 QCURVE SMOOTH",
"1017 635 LINE",
"1196 640 LINE",
"1380 850 LINE",
"980 850 LINE",
"931 1060 LINE",
"701 904 LINE",
"717 838 LINE",
"495 838 LINE SMOOTH",
"488 838 OFFCURVE",
"443 837 OFFCURVE",
"429 837 QCURVE SMOOTH",
"369 837 OFFCURVE",
"271 849 OFFCURVE",
"150 886 OFFCURVE",
"66 972 OFFCURVE",
"51 1037 QCURVE SMOOTH",
"46 1056 OFFCURVE",
"46 1079 QCURVE SMOOTH",
"46 1115 OFFCURVE",
"80 1169 OFFCURVE",
"131 1196 OFFCURVE",
"181 1208 OFFCURVE",
"203 1208 QCURVE SMOOTH",
"289 1208 OFFCURVE",
"411 1159 OFFCURVE",
"469 1099 QCURVE SMOOTH",
"489 1078 LINE",
"684 1221 LINE",
"669 1285 OFFCURVE",
"504 1364 OFFCURVE",
"367 1364 QCURVE SMOOTH"
);
}
);
width = 1598;
}
);
note = ampersand;
unicode = 0026;
},
{
glyphname = quotesingle;
lastChange = "2018-07-29 16:34:27 +0000";
layers = (
{
layerId = "44BDE90C-78B7-4A9A-A14D-6B569C2B6751";
paths = (
{
closed = 1;
nodes = (
"-255 1431 LINE",
"-169 951 LINE",
"-15 970 LINE",
"-28 1461 LINE"
);
}
);
width = 394;
}
);
note = quotesingle;
unicode = 0027;
},
{
glyphname = parenleft;
lastChange = "2018-07-29 16:34:27 +0000";
layers = (
{
layerId = "44BDE90C-78B7-4A9A-A14D-6B569C2B6751";
paths = (
{
closed = 1;
nodes = (
"122 1590 LINE",
"-101 1469 LINE",
"-157 1264 OFFCURVE",
"-157 1030 QCURVE SMOOTH",
"-157 923 OFFCURVE",
"-132 709 OFFCURVE",
"-65 451 OFFCURVE",
"40 203 OFFCURVE",
"211 -75 OFFCURVE",
"322 -205 QCURVE SMOOTH",
"346 -232 LINE",
"521 -46 LINE",
"505 -27 LINE SMOOTH",
"501 -22 OFFCURVE",
"492 -10 QCURVE",
"473 13 OFFCURVE",
"463 26 QCURVE SMOOTH",
"49 558 OFFCURVE",
"49 1115 QCURVE SMOOTH",
"49 1316 OFFCURVE",
"103 1518 QCURVE SMOOTH"
);
}
);
width = 609;
}
);
note = parenleft;
unicode = 0028;
},
{
glyphname = parenright;
lastChange = "2018-07-29 16:34:27 +0000";
layers = (
{
layerId = "44BDE90C-78B7-4A9A-A14D-6B569C2B6751";
paths = (
{
closed = 1;
nodes = (
"24 -228 LINE",
"247 -107 LINE",
"303 102 OFFCURVE",
"303 335 QCURVE SMOOTH",
"303 469 OFFCURVE",
"262 737 OFFCURVE",
"167 1048 OFFCURVE",
"-18 1377 OFFCURVE",
"-149 1530 QCURVE",
"-200 1594 LINE",
"-375 1408 LINE",
"-275 1284 LINE SMOOTH",
"-98 1062 OFFCURVE",
"96 527 OFFCURVE",
"96 247 QCURVE SMOOTH",
"96 41 OFFCURVE",
"43 -156 QCURVE SMOOTH"
);
}
);
width = 506;
}
);
note = parenright;
unicode = 0029;
},
{
glyphname = asterisk;
lastChange = "2018-07-29 16:34:27 +0000";
layers = (
{
layerId = "44BDE90C-78B7-4A9A-A14D-6B569C2B6751";
paths = (
{
closed = 1;
nodes = (
"-31 700 OFFCURVE",
"35 619 QCURVE",
"-39 642 OFFCURVE",
"-124 699 QCURVE SMOOTH",
"-169 731 LINE",
"-143 491 LINE",
"-118 486 LINE SMOOTH",
"-66 476 OFFCURVE",
"-30 476 QCURVE SMOOTH",
"9 476 OFFCURVE",
"62 487 QCURVE",
"31 425 OFFCURVE",
"-34 376 QCURVE SMOOTH",
"-69 349 LINE",
"173 246 LINE",
"181 268 LINE SMOOTH",
"201 324 OFFCURVE",
"201 388 QCURVE SMOOTH",
"201 414 OFFCURVE",
"198 439 QCURVE",
"258 378 OFFCURVE",
"301 290 QCURVE SMOOTH",
"325 242 LINE",
"450 417 LINE",
"429 436 LINE SMOOTH",
"354 504 OFFCURVE",
"260 541 QCURVE",
"316 560 OFFCURVE",
"386 560 QCURVE SMOOTH",
"416 560 LINE",
"468 555 LINE",
"302 768 LINE",
"281 758 LINE SMOOTH",
"208 725 OFFCURVE",
"158 652 QCURVE",
"147 702 OFFCURVE",
"147 746 QCURVE SMOOTH",
"147 779 OFFCURVE",
"153 812 QCURVE",
"159 858 LINE",
"-66 813 LINE",
"-58 789 LINE SMOOTH"
);
}
);
width = 656;
}
);
note = asterisk;
unicode = 002A;
},
{
glyphname = plus;
lastChange = "2018-07-29 16:34:27 +0000";
layers = (
{
layerId = "44BDE90C-78B7-4A9A-A14D-6B569C2B6751";
paths = (
{
closed = 1;
nodes = (
"678 494 LINE",
"638 666 LINE",
"302 666 LINE",
"225 1002 LINE",
"51 1002 LINE",
"128 666 LINE",
"-208 666 LINE",
"-168 494 LINE",
"168 494 LINE",
"246 158 LINE",
"420 158 LINE",
"342 494 LINE"
);
}
);
width = 873;
}
);
note = plus;
unicode = 002B;
},
{
glyphname = comma;
lastChange = "2018-07-29 16:34:27 +0000";
layers = (
{
layerId = "44BDE90C-78B7-4A9A-A14D-6B569C2B6751";
paths = (
{
closed = 1;
nodes = (
"-24 286 OFFCURVE",
"-92 209 QCURVE SMOOTH",
"-111 187 LINE",
"-82 167 LINE SMOOTH",
"47 77 OFFCURVE",
"47 8 QCURVE SMOOTH",
"47 -34 OFFCURVE",
"0 -62 QCURVE SMOOTH",
"-23 -76 LINE",
"54 -158 LINE",
"199 -11 LINE",
"249 46 OFFCURVE",
"249 98 QCURVE SMOOTH",
"249 113 OFFCURVE",
"247 120 QCURVE",
"238 158 OFFCURVE",
"200 221 OFFCURVE",
"139 271 OFFCURVE",
"90 302 OFFCURVE",
"53 322 QCURVE"
);
}
);
width = 374;
}
);
note = comma;
unicode = 002C;
},
{
glyphname = hyphen;
lastChange = "2018-07-29 16:34:27 +0000";
layers = (
{
layerId = "44BDE90C-78B7-4A9A-A14D-6B569C2B6751";
paths = (
{
closed = 1;
nodes = (
"760 494 LINE",
"720 666 LINE",
"-124 666 LINE",
"-84 494 LINE"
);
}
);
width = 904;
}
);
note = hyphen;
unicode = 002D;
},
{
glyphname = period;
lastChange = "2018-07-29 16:34:27 +0000";
layers = (
{
layerId = "44BDE90C-78B7-4A9A-A14D-6B569C2B6751";
paths = (
{
closed = 1;
nodes = (
"90 -25 OFFCURVE",
"103 -20 QCURVE",
"262 107 LINE",
"112 213 OFFCURVE",
"59 320 QCURVE",
"-92 175 LINE",
"-99 161 OFFCURVE",
"-99 153 QCURVE SMOOTH",
"-99 151 LINE SMOOTH",
"-99 107 OFFCURVE",
"26 -25 OFFCURVE",
"78 -25 QCURVE SMOOTH"
);
}
);
width = 351;
}
);
note = period;
unicode = 002E;
},
{
glyphname = slash;
lastChange = "2018-07-29 16:34:27 +0000";
layers = (
{
layerId = "44BDE90C-78B7-4A9A-A14D-6B569C2B6751";
paths = (
{
closed = 1;
nodes = (
"-108 -52 LINE",
"124 -52 LINE",
"853 1480 LINE",
"618 1480 LINE"
);
}
);
width = 1276;
}
);
note = slash;
unicode = 002F;
},
{
glyphname = zero;
lastChange = "2018-07-29 16:34:27 +0000";
layers = (
{
layerId = "44BDE90C-78B7-4A9A-A14D-6B569C2B6751";
paths = (
{
closed = 1;
nodes = (
"680 227 LINE SMOOTH",
"542 227 OFFCURVE",
"284 503 OFFCURVE",
"242 684 QCURVE SMOOTH",
"223 766 OFFCURVE",
"223 809 QCURVE SMOOTH",
"223 863 OFFCURVE",
"252 966 QCURVE SMOOTH",
"278 1061 LINE",
"198 1003 LINE SMOOTH",
"166 979 OFFCURVE",
"115 937 OFFCURVE",
"45 860 OFFCURVE",
"-2 782 OFFCURVE",
"-36 673 OFFCURVE",
"-36 615 QCURVE SMOOTH",
"-36 560 OFFCURVE",
"-24 511 QCURVE SMOOTH",
"-18 487 LINE",
"59 294 OFFCURVE",
"376 0 OFFCURVE",
"526 0 QCURVE",
"618 4 OFFCURVE",
"819 163 OFFCURVE",
"969 384 OFFCURVE",
"1066 628 OFFCURVE",
"1066 717 QCURVE SMOOTH",
"1066 740 OFFCURVE",
"1061 765 QCURVE",
"1023 903 OFFCURVE",
"846 1167 OFFCURVE",
"593 1349 OFFCURVE",
"466 1354 QCURVE",
"343 1353 OFFCURVE",
"182 1244 OFFCURVE",
"116 1144 QCURVE SMOOTH",
"104 1126 LINE",
"187 1051 LINE",
"206 1073 LINE SMOOTH",
"249 1126 OFFCURVE",
"309 1126 QCURVE SMOOTH",
"399 1126 OFFCURVE",
"633 900 OFFCURVE",
"812 595 OFFCURVE",
"840 472 QCURVE SMOOTH",
"845 450 OFFCURVE",
"845 428 QCURVE SMOOTH",
"845 354 OFFCURVE",
"769 229 OFFCURVE",
"694 227 QCURVE SMOOTH"
);
}
);
width = 1344;
}
);
note = zero;
unicode = 0030;
},
{
glyphname = one;
lastChange = "2018-07-29 16:34:27 +0000";
layers = (
{
layerId = "44BDE90C-78B7-4A9A-A14D-6B569C2B6751";
paths = (
{
closed = 1;
nodes = (
"-12 1048 OFFCURVE",
"78 860 OFFCURVE",
"111 727 QCURVE SMOOTH",
"278 5 LINE",
"551 201 LINE",
"320 1167 LINE",
"317 1177 OFFCURVE",
"302 1235 OFFCURVE",
"297 1252 OFFCURVE",
"283 1294 OFFCURVE",
"273 1307 OFFCURVE",
"254 1333 OFFCURVE",
"235 1342 OFFCURVE",
"207 1352 OFFCURVE",
"190 1353 QCURVE",
"125 1352 OFFCURVE",
"-118 1146 OFFCURVE",
"-158 1086 QCURVE SMOOTH",
"-175 1061 LINE",
"-82 1012 LINE",
"-68 1030 OFFCURVE",
"-61 1038 QCURVE SMOOTH",
"-52 1048 OFFCURVE",
"-41 1048 QCURVE SMOOTH"
);
}
);
width = 732;
}
);
note = one;
unicode = 0031;
},
{
glyphname = two;
lastChange = "2018-07-29 16:34:27 +0000";
layers = (
{
layerId = "44BDE90C-78B7-4A9A-A14D-6B569C2B6751";
paths = (
{
closed = 1;
nodes = (
"127 1123 OFFCURVE",
"219 1086 OFFCURVE",
"308 1013 OFFCURVE",
"381 886 OFFCURVE",
"400 805 QCURVE SMOOTH",
"406 781 LINE",
"410 756 OFFCURVE",
"410 726 QCURVE SMOOTH",
"410 648 OFFCURVE",
"347 496 OFFCURVE",
"248 370 OFFCURVE",
"145 262 OFFCURVE",
"43 151 OFFCURVE",
"20 111 QCURVE",
"10 92 LINE",
"111 10 LINE",
"219 34 OFFCURVE",
"350 34 QCURVE SMOOTH",
"441 34 OFFCURVE",
"727 26 OFFCURVE",
"759 21 QCURVE",
"934 338 LINE",
"376 329 LINE",
"479 519 OFFCURVE",
"568 664 QCURVE",
"616 724 OFFCURVE",
"668 835 OFFCURVE",
"668 906 QCURVE SMOOTH",
"668 949 OFFCURVE",
"658 996 QCURVE SMOOTH",
"646 1048 OFFCURVE",
"601 1148 OFFCURVE",
"524 1246 OFFCURVE",
"426 1320 OFFCURVE",
"288 1368 OFFCURVE",
"209 1370 QCURVE",
"148 1368 OFFCURVE",
"18 1317 OFFCURVE",
"-81 1246 OFFCURVE",
"-152 1171 OFFCURVE",
"-163 1143 QCURVE",
"-172 1123 LINE",
"-77 1065 LINE",
"-7 1123 OFFCURVE",
"83 1123 QCURVE SMOOTH"
);
}
);
width = 1042;
}
);
note = two;
unicode = 0032;
},
{
glyphname = three;
lastChange = "2018-07-29 16:34:27 +0000";
layers = (
{
layerId = "44BDE90C-78B7-4A9A-A14D-6B569C2B6751";
paths = (
{
closed = 1;
nodes = (
"-83 1088 LINE",
"-34 1128 OFFCURVE",
"22 1128 QCURVE SMOOTH",
"97 1128 OFFCURVE",
"250 1027 OFFCURVE",
"269 943 QCURVE",
"269 929 LINE SMOOTH",
"269 879 OFFCURVE",
"231 803 OFFCURVE",
"170 756 OFFCURVE",
"108 723 OFFCURVE",
"42 691 OFFCURVE",
"27 678 QCURVE SMOOTH",
"-21 635 LINE",
"54 631 LINE SMOOTH",
"121 628 OFFCURVE",
"228 612 OFFCURVE",
"340 575 OFFCURVE",
"422 516 OFFCURVE",
"486 419 OFFCURVE",
"501 355 QCURVE SMOOTH",
"506 332 LINE SMOOTH",
"509 317 OFFCURVE",
"509 303 QCURVE SMOOTH",
"509 259 OFFCURVE",
"460 169 OFFCURVE",
"368 84 OFFCURVE",
"298 32 OFFCURVE",
"246 -3 QCURVE",
"227 -17 LINE",
"277 -83 LINE",
"298 -67 LINE",
"330 -47 OFFCURVE",
"455 20 OFFCURVE",
"553 74 OFFCURVE",
"671 157 OFFCURVE",
"750 238 OFFCURVE",
"804 352 OFFCURVE",
"804 414 QCURVE SMOOTH",
"804 450 OFFCURVE",
"795 489 QCURVE SMOOTH",
"766 616 OFFCURVE",
"567 788 OFFCURVE",
"413 832 QCURVE",
"420 838 OFFCURVE",
"472 880 OFFCURVE",
"490 896 OFFCURVE",
"530 934 OFFCURVE",
"547 960 OFFCURVE",
"570 998 OFFCURVE",
"578 1038 OFFCURVE",
"578 1060 QCURVE SMOOTH",
"578 1083 OFFCURVE",
"572 1110 QCURVE SMOOTH",
"546 1220 OFFCURVE",
"335 1361 OFFCURVE",
"207 1361 QCURVE SMOOTH",
"144 1361 OFFCURVE",
"18 1304 OFFCURVE",
"-57 1238 OFFCURVE",
"-134 1162 OFFCURVE",
"-143 1156 QCURVE",
"-163 1141 LINE",
"-102 1071 LINE"
);
}
);
width = 997;
}
);
note = three;
unicode = 0033;
},
{
glyphname = four;
lastChange = "2018-07-29 16:34:27 +0000";
layers = (
{
layerId = "44BDE90C-78B7-4A9A-A14D-6B569C2B6751";
paths = (
{
closed = 1;
nodes = (
"373 1381 LINE SMOOTH",
"351 1354 OFFCURVE",
"274 1251 OFFCURVE",
"139 1049 OFFCURVE",
"30 854 OFFCURVE",
"-53 634 OFFCURVE",
"-53 556 QCURVE SMOOTH",
"-53 528 OFFCURVE",
"-47 503 QCURVE SMOOTH",
"-37 462 OFFCURVE",
"14 407 OFFCURVE",
"92 382 OFFCURVE",
"161 374 OFFCURVE",
"206 374 QCURVE SMOOTH",
"547 374 LINE",
"636 -15 LINE",
"892 168 LINE",
"837 406 LINE",
"947 423 LINE",
"1086 686 LINE",
"799 649 LINE",
"689 1125 LINE",
"437 932 LINE",
"511 610 LINE",
"367 611 OFFCURVE",
"243 646 OFFCURVE",
"228 710 QCURVE SMOOTH",
"222 738 OFFCURVE",
"222 769 QCURVE SMOOTH",
"222 830 OFFCURVE",
"276 992 OFFCURVE",
"338 1115 OFFCURVE",
"439 1302 OFFCURVE",
"460 1345 QCURVE",
"390 1403 LINE"
);
}
);
width = 1256;
}
);
note = four;
unicode = 0034;
},
{
glyphname = five;
lastChange = "2018-07-29 16:34:27 +0000";
layers = (
{
layerId = "44BDE90C-78B7-4A9A-A14D-6B569C2B6751";
paths = (
{
closed = 1;
nodes = (
"684 1348 LINE",
"652 1342 LINE SMOOTH",
"552 1322 OFFCURVE",
"452 1322 QCURVE SMOOTH",
"309 1322 OFFCURVE",
"150 1355 QCURVE SMOOTH",
"127 1360 LINE",
"-118 776 LINE",
"-90 763 LINE SMOOTH",
"-59 748 OFFCURVE",
"38 705 OFFCURVE",
"101 678 OFFCURVE",
"186 633 OFFCURVE",
"243 594 OFFCURVE",
"310 536 OFFCURVE",
"354 473 OFFCURVE",
"393 387 OFFCURVE",
"405 337 QCURVE SMOOTH",
"408 325 OFFCURVE",
"408 314 QCURVE SMOOTH",
"408 273 OFFCURVE",
"342 171 OFFCURVE",
"270 102 OFFCURVE",
"170 15 OFFCURVE",
"161 6 QCURVE SMOOTH",
"145 -11 LINE",
"218 -89 LINE",
"237 -76 LINE",
"244 -72 OFFCURVE",
"258 -64 QCURVE SMOOTH",
"320 -27 OFFCURVE",
"422 38 OFFCURVE",
"547 136 OFFCURVE",
"632 232 OFFCURVE",
"691 360 OFFCURVE",
"691 427 QCURVE SMOOTH",
"691 463 OFFCURVE",
"682 502 QCURVE SMOOTH",
"658 609 OFFCURVE",
"460 819 OFFCURVE",
"228 953 OFFCURVE",
"125 978 QCURVE",
"127 1060 LINE",
"283 1018 OFFCURVE",
"394 1018 QCURVE SMOOTH",
"463 1018 OFFCURVE",
"563 1052 OFFCURVE",
"634 1124 OFFCURVE",
"678 1203 OFFCURVE",
"703 1265 QCURVE"
);
}
);
width = 983;
}
);
note = five;
unicode = 0035;
},
{
glyphname = six;
lastChange = "2018-07-29 16:34:27 +0000";
layers = (
{
layerId = "44BDE90C-78B7-4A9A-A14D-6B569C2B6751";
paths = (
{
closed = 1;
nodes = (
"413 1351 LINE SMOOTH",
"412 1350 OFFCURVE",
"411 1349 QCURVE",
"306 1256 OFFCURVE",
"245 1189 QCURVE SMOOTH",
"-32 883 OFFCURVE",
"-32 595 QCURVE SMOOTH",
"-32 530 OFFCURVE",
"-18 471 QCURVE SMOOTH",
"11 347 OFFCURVE",
"181 130 OFFCURVE",
"402 7 OFFCURVE",
"506 7 QCURVE SMOOTH",
"553 7 OFFCURVE",
"675 60 OFFCURVE",
"796 157 OFFCURVE",
"899 277 OFFCURVE",
"963 426 OFFCURVE",
"963 498 QCURVE SMOOTH",
"963 529 OFFCURVE",
"955 566 QCURVE SMOOTH",
"949 594 OFFCURVE",
"907 680 OFFCURVE",
"839 777 OFFCURVE",
"760 861 OFFCURVE",
"662 916 OFFCURVE",
"616 916 QCURVE SMOOTH",
"519 916 OFFCURVE",
"445 857 QCURVE SMOOTH",
"418 835 OFFCURVE",
"359 768 QCURVE SMOOTH",
"330 736 LINE",
"382 722 LINE SMOOTH",
"482 696 OFFCURVE",
"708 458 OFFCURVE",
"738 328 QCURVE SMOOTH",
"741 316 OFFCURVE",
"741 304 QCURVE SMOOTH",
"741 269 OFFCURVE",
"695 224 OFFCURVE",
"656 224 QCURVE SMOOTH",
"588 224 OFFCURVE",
"439 321 OFFCURVE",
"323 463 OFFCURVE",
"236 618 OFFCURVE",
"222 679 QCURVE SMOOTH",
"208 743 OFFCURVE",
"208 796 QCURVE SMOOTH",
"208 861 OFFCURVE",
"241 980 OFFCURVE",
"311 1090 OFFCURVE",
"367 1162 OFFCURVE",
"465 1272 OFFCURVE",
"484 1295 QCURVE",
"497 1312 LINE",
"433 1371 LINE"
);
}
);
width = 1149;
}
);
note = six;
unicode = 0036;
},
{
glyphname = seven;
lastChange = "2018-07-29 16:34:27 +0000";
layers = (
{
layerId = "44BDE90C-78B7-4A9A-A14D-6B569C2B6751";
paths = (
{
closed = 1;
nodes = (
"649 1311 LINE",
"640 1310 OFFCURVE",
"554 1298 OFFCURVE",
"493 1291 OFFCURVE",
"396 1284 OFFCURVE",
"354 1284 QCURVE SMOOTH",
"153 1284 OFFCURVE",
"50 1354 QCURVE SMOOTH",
"25 1371 LINE",
"-201 1106 LINE",
"-180 1086 LINE SMOOTH",
"-125 1035 OFFCURVE",
"106 977 OFFCURVE",
"332 977 QCURVE SMOOTH",
"447 977 LINE",
"180 -6 LINE",
"503 181 LINE",
"479 277 OFFCURVE",
"479 387 QCURVE SMOOTH",
"479 477 OFFCURVE",
"509 669 OFFCURVE",
"570 870 OFFCURVE",
"618 1009 OFFCURVE",
"701 1220 OFFCURVE",
"715 1258 QCURVE"
);
}
);
width = 971;
}
);
note = seven;
unicode = 0037;
},
{
glyphname = eight;
lastChange = "2018-07-29 16:34:27 +0000";
layers = (
{
layerId = "44BDE90C-78B7-4A9A-A14D-6B569C2B6751";
paths = (
{
closed = 1;
nodes = (
"665 349 LINE SMOOTH",
"665 298 OFFCURVE",
"559 212 OFFCURVE",
"501 212 QCURVE SMOOTH",
"422 212 OFFCURVE",
"300 343 OFFCURVE",
"279 432 QCURVE SMOOTH",
"274 452 OFFCURVE",
"274 478 QCURVE SMOOTH",
"274 555 OFFCURVE",
"346 646 QCURVE",
"408 631 OFFCURVE",
"539 555 OFFCURVE",
"650 434 OFFCURVE",
"665 368 QCURVE"
);
},
{
closed = 1;
nodes = (
"227 1089 LINE",
"295 1119 LINE SMOOTH",
"320 1131 OFFCURVE",
"344 1131 QCURVE SMOOTH",
"400 1131 OFFCURVE",
"479 1013 OFFCURVE",
"479 938 QCURVE SMOOTH",
"479 884 OFFCURVE",
"456 838 QCURVE",
"355 854 OFFCURVE",
"178 985 OFFCURVE",
"160 1060 QCURVE SMOOTH",
"156 1075 OFFCURVE",
"156 1092 QCURVE SMOOTH",
"156 1162 OFFCURVE",
"246 1232 QCURVE",
"201 1303 LINE",
"173 1293 LINE SMOOTH",
"147 1284 OFFCURVE",
"59 1217 OFFCURVE",
"-34 1126 OFFCURVE",
"-101 1008 OFFCURVE",
"-101 957 QCURVE SMOOTH",
"-101 946 OFFCURVE",
"-97 926 QCURVE SMOOTH",
"-87 883 OFFCURVE",
"-29 806 OFFCURVE",
"39 753 OFFCURVE",
"135 703 OFFCURVE",
"201 676 OFFCURVE",
"244 661 QCURVE",
"222 634 OFFCURVE",
"126 541 OFFCURVE",
"65 476 OFFCURVE",
"13 368 OFFCURVE",
"13 309 QCURVE SMOOTH",
"13 274 OFFCURVE",
"22 232 QCURVE SMOOTH",
"46 131 OFFCURVE",
"241 4 OFFCURVE",
"362 4 QCURVE SMOOTH",
"420 4 OFFCURVE",
"612 110 OFFCURVE",
"793 260 OFFCURVE",
"925 442 OFFCURVE",
"925 510 QCURVE SMOOTH",
"925 524 OFFCURVE",
"922 537 QCURVE SMOOTH",
"913 576 OFFCURVE",
"873 644 OFFCURVE",
"808 697 OFFCURVE",
"750 737 OFFCURVE",
"657 776 OFFCURVE",
"603 796 OFFCURVE",
"555 812 QCURVE",
"621 876 OFFCURVE",
"739 1058 OFFCURVE",
"739 1139 QCURVE SMOOTH",
"739 1160 OFFCURVE",
"735 1176 QCURVE SMOOTH",
"718 1251 OFFCURVE",
"611 1357 OFFCURVE",
"535 1357 QCURVE SMOOTH",
"454 1357 OFFCURVE",
"269 1240 OFFCURVE",
"245 1156 QCURVE SMOOTH"
);
}
);
width = 1157;
}
);
note = eight;
unicode = 0038;
},
{
glyphname = nine;
lastChange = "2018-07-29 16:34:27 +0000";
layers = (
{
layerId = "44BDE90C-78B7-4A9A-A14D-6B569C2B6751";
paths = (
{
closed = 1;
nodes = (
"540 683 OFFCURVE",
"515 716 OFFCURVE",
"498 716 QCURVE SMOOTH",
"491 716 OFFCURVE",
"443 690 OFFCURVE",
"419 690 QCURVE SMOOTH",
"360 690 OFFCURVE",
"216 825 OFFCURVE",
"120 1007 OFFCURVE",
"120 1073 QCURVE SMOOTH",
"120 1155 OFFCURVE",
"202 1155 QCURVE SMOOTH",
"295 1155 OFFCURVE",
"487 993 OFFCURVE",
"620 762 OFFCURVE",
"647 647 QCURVE SMOOTH",
"654 618 OFFCURVE",
"654 583 QCURVE SMOOTH",
"654 523 OFFCURVE",
"604 390 OFFCURVE",
"542 291 OFFCURVE",
"443 174 OFFCURVE",
"388 119 OFFCURVE",
"348 82 QCURVE",
"421 0 LINE",
"445 16 LINE SMOOTH",
"475 35 OFFCURVE",
"572 120 OFFCURVE",
"706 270 OFFCURVE",
"819 437 OFFCURVE",
"898 654 OFFCURVE",
"898 757 QCURVE SMOOTH",
"898 818 OFFCURVE",
"885 874 QCURVE SMOOTH",
"858 990 OFFCURVE",
"697 1217 OFFCURVE",
"463 1368 OFFCURVE",
"347 1368 QCURVE SMOOTH",
"283 1368 OFFCURVE",
"122 1281 OFFCURVE",
"-15 1149 OFFCURVE",
"-109 975 OFFCURVE",
"-109 895 QCURVE SMOOTH",
"-109 867 OFFCURVE",
"-103 840 QCURVE SMOOTH",
"-94 801 OFFCURVE",
"-54 710 OFFCURVE",
"11 615 OFFCURVE",
"88 539 OFFCURVE",
"188 490 OFFCURVE",
"240 490 QCURVE SMOOTH",
"268 490 OFFCURVE",
"322 502 OFFCURVE",
"363 517 OFFCURVE",
"409 547 OFFCURVE",
"436 567 OFFCURVE",
"476 608 OFFCURVE",
"491 624 OFFCURVE",
"526 666 OFFCURVE",
"529 669 QCURVE"
);
}
);
width = 1203;
}
);
note = nine;
unicode = 0039;
},
{
glyphname = colon;
lastChange = "2018-07-29 16:34:27 +0000";
layers = (
{
layerId = "44BDE90C-78B7-4A9A-A14D-6B569C2B6751";
paths = (
{
closed = 1;
nodes = (
"177 -26 OFFCURVE",
"189 -21 QCURVE",
"349 106 LINE",
"201 210 OFFCURVE",
"145 319 QCURVE",
"-6 174 LINE",
"-13 157 OFFCURVE",
"-13 152 QCURVE SMOOTH",
"-13 149 LINE SMOOTH",
"-13 108 OFFCURVE",
"111 -26 OFFCURVE",
"164 -26 QCURVE SMOOTH"
);
},
{
closed = 1;
nodes = (
"21 647 OFFCURVE",
"33 652 QCURVE",
"193 779 LINE",
"43 885 OFFCURVE",
"-10 992 QCURVE",
"-162 847 LINE",
"-169 830 OFFCURVE",
"-168 825 QCURVE",
"-168 822 LINE SMOOTH",
"-168 781 OFFCURVE",
"-44 647 OFFCURVE",
"9 647 QCURVE SMOOTH"
);
}
);
width = 437;
}
);
note = colon;
unicode = 003A;
},
{
glyphname = semicolon;
lastChange = "2018-07-29 16:34:27 +0000";
layers = (
{
layerId = "44BDE90C-78B7-4A9A-A14D-6B569C2B6751";
paths = (
{
closed = 1;
nodes = (
"21 647 OFFCURVE",
"33 652 QCURVE",
"193 779 LINE",
"43 885 OFFCURVE",
"-10 992 QCURVE",
"-162 847 LINE",
"-168 833 OFFCURVE",
"-166 825 QCURVE",
"-166 820 LINE SMOOTH",
"-166 775 OFFCURVE",
"-41 647 OFFCURVE",
"9 647 QCURVE SMOOTH"
);
},
{
closed = 1;
nodes = (
"76 274 OFFCURVE",
"10 203 QCURVE SMOOTH",
"-10 181 LINE",
"20 161 LINE SMOOTH",
"138 79 OFFCURVE",
"151 20 QCURVE",
"151 4 LINE SMOOTH",
"151 -15 OFFCURVE",
"129 -49 OFFCURVE",
"111 -64 OFFCURVE",
"104 -67 QCURVE",
"78 -82 LINE",
"158 -164 LINE",
"300 -17 LINE SMOOTH",
"352 35 OFFCURVE",
"352 92 QCURVE SMOOTH",
"352 106 OFFCURVE",
"350 114 QCURVE SMOOTH",
"341 152 OFFCURVE",
"302 216 OFFCURVE",
"241 265 OFFCURVE",
"194 295 OFFCURVE",
"156 315 QCURVE"
);
}
);
width = 475;
}
);
note = semicolon;
unicode = 003B;
},
{
glyphname = less;
lastChange = "2018-07-29 16:34:27 +0000";
layers = (
{
layerId = "44BDE90C-78B7-4A9A-A14D-6B569C2B6751";
paths = (
{
closed = 1;
nodes = (
"930 180 LINE",
"73 518 LINE",
"774 856 LINE",
"728 1057 LINE",
"-209 602 LINE",
"-170 434 LINE",
"977 -20 LINE"
);
}
);
width = 1079;
}
);
note = less;
unicode = 003C;
},
{
glyphname = equal;
lastChange = "2018-07-29 16:34:27 +0000";
layers = (
{
layerId = "44BDE90C-78B7-4A9A-A14D-6B569C2B6751";
paths = (
{
closed = 1;
nodes = (
"875 838 LINE",
"-167 838 LINE",
"-121 636 LINE",
"921 636 LINE"
);
},
{
closed = 1;
nodes = (
"976 400 LINE",
"-66 400 LINE",
"-20 198 LINE",
"1022 198 LINE"
);
}
);
width = 1149;
}
);
note = equal;
unicode = 003D;
},
{
glyphname = greater;
lastChange = "2018-07-29 16:34:27 +0000";
layers = (
{
layerId = "44BDE90C-78B7-4A9A-A14D-6B569C2B6751";
paths = (
{
closed = 1;
nodes = (
"913 602 LINE",
"-234 1057 LINE",
"-188 856 LINE",
"670 518 LINE",
"-32 180 LINE",
"15 -20 LINE",
"952 434 LINE"
);
}
);
width = 1134;
}
);
note = greater;
unicode = 003E;
},
{
glyphname = question;
lastChange = "2018-07-29 16:34:27 +0000";
layers = (
{
layerId = "44BDE90C-78B7-4A9A-A14D-6B569C2B6751";
paths = (
{
closed = 1;
nodes = (
"50 1266 OFFCURVE",
"283 1035 OFFCURVE",
"325 854 QCURVE SMOOTH",
"331 828 OFFCURVE",
"331 807 QCURVE SMOOTH",
"331 772 OFFCURVE",
"301 711 OFFCURVE",
"253 657 OFFCURVE",
"202 601 OFFCURVE",
"149 515 OFFCURVE",
"134 464 QCURVE",
"229 390 LINE",
"240 420 LINE SMOOTH",
"259 476 OFFCURVE",
"331 579 OFFCURVE",
"407 649 OFFCURVE",
"490 728 OFFCURVE",
"554 798 OFFCURVE",
"595 897 OFFCURVE",
"595 953 QCURVE SMOOTH",
"595 990 OFFCURVE",
"584 1040 QCURVE SMOOTH",
"554 1170 OFFCURVE",
"368 1371 OFFCURVE",
"124 1472 OFFCURVE",
"-3 1472 QCURVE SMOOTH",
"-58 1472 OFFCURVE",
"-155 1444 OFFCURVE",
"-225 1402 OFFCURVE",
"-293 1334 OFFCURVE",
"-337 1276 OFFCURVE",
"-364 1234 QCURVE SMOOTH",
"-378 1211 LINE",
"-290 1157 LINE",
"-282 1166 LINE SMOOTH",
"-274 1175 OFFCURVE",
"-262 1188 OFFCURVE",
"-237 1210 OFFCURVE",
"-214 1226 OFFCURVE",
"-179 1245 OFFCURVE",
"-145 1258 OFFCURVE",
"-100 1266 OFFCURVE",
"-77 1266 QCURVE SMOOTH"
);
},
{
closed = 1;
nodes = (
"262 -28 OFFCURVE",
"276 -20 QCURVE",
"433 103 LINE",
"403 127 LINE SMOOTH",
"296 210 OFFCURVE",
"252 284 QCURVE SMOOTH",
"232 319 LINE",
"106 208 LINE",
"74 171 OFFCURVE",
"74 139 QCURVE",
"76 88 OFFCURVE",
"191 -28 OFFCURVE",
"247 -28 QCURVE SMOOTH"
);
}
);
width = 912;
}
);
note = question;
unicode = 003F;
},
{
glyphname = at;
lastChange = "2018-07-29 16:34:27 +0000";
layers = (
{
layerId = "44BDE90C-78B7-4A9A-A14D-6B569C2B6751";
paths = (
{
closed = 1;
nodes = (
"640 958 OFFCURVE",
"744 860 OFFCURVE",
"761 784 QCURVE SMOOTH",
"770 744 OFFCURVE",
"770 702 QCURVE SMOOTH",
"770 607 OFFCURVE",
"680 474 OFFCURVE",
"597 474 QCURVE SMOOTH",
"501 474 OFFCURVE",
"387 633 OFFCURVE",
"387 737 QCURVE SMOOTH",
"387 829 OFFCURVE",
"484 958 OFFCURVE",
"575 958 QCURVE SMOOTH"
);
},
{
closed = 1;
nodes = (
"500 138 OFFCURVE",
"87 462 OFFCURVE",
"25 731 QCURVE SMOOTH",
"6 813 OFFCURVE",
"6 893 QCURVE SMOOTH",
"6 1091 OFFCURVE",
"252 1332 OFFCURVE",
"488 1332 QCURVE SMOOTH",
"747 1332 OFFCURVE",
"1117 1068 OFFCURVE",
"1172 831 QCURVE SMOOTH",
"1187 764 OFFCURVE",
"1187 709 QCURVE SMOOTH",
"1187 594 OFFCURVE",
"1081 462 OFFCURVE",
"1012 462 QCURVE SMOOTH",
"958 462 OFFCURVE",
"947 512 QCURVE",
"949 1120 LINE",
"783 1120 LINE",
"778 1014 LINE",
"669 1148 OFFCURVE",
"514 1148 QCURVE SMOOTH",
"366 1148 OFFCURVE",
"184 934 OFFCURVE",
"184 768 QCURVE SMOOTH",
"184 699 OFFCURVE",
"200 631 QCURVE SMOOTH",
"234 487 OFFCURVE",
"464 284 OFFCURVE",
"593 284 QCURVE SMOOTH",
"653 284 OFFCURVE",
"752 350 OFFCURVE",
"785 394 QCURVE",
"801 336 OFFCURVE",
"882 284 OFFCURVE",
"926 284 QCURVE SMOOTH",
"1108 284 OFFCURVE",
"1249 440 QCURVE SMOOTH",
"1345 545 OFFCURVE",
"1345 717 QCURVE SMOOTH",
"1345 801 OFFCURVE",
"1323 895 QCURVE SMOOTH",
"1290 1041 OFFCURVE",
"1118 1274 OFFCURVE",
"880 1421 OFFCURVE",
"601 1498 OFFCURVE",
"452 1498 QCURVE SMOOTH",
"313 1498 OFFCURVE",
"75 1409 OFFCURVE",
"-91 1252 OFFCURVE",
"-186 1031 OFFCURVE",
"-186 903 QCURVE SMOOTH",
"-186 824 OFFCURVE",
"-166 735 QCURVE SMOOTH",
"-91 409 OFFCURVE",
"190 190 QCURVE SMOOTH",
"469 -28 OFFCURVE",
"814 -28 QCURVE SMOOTH",
"1020 -28 OFFCURVE",
"1294 127 OFFCURVE",
"1363 264 QCURVE SMOOTH",
"1385 308 LINE",
"1211 308 LINE",
"1079 138 OFFCURVE",
"788 138 QCURVE SMOOTH"
);
}
);
width = 1585;
}
);
note = at;
unicode = 0040;
},
{
glyphname = A;
lastChange = "2018-07-29 16:34:27 +0000";
layers = (
{
layerId = "44BDE90C-78B7-4A9A-A14D-6B569C2B6751";
paths = (
{
closed = 1;
nodes = (
"841 342 LINE",
"1004 148 OFFCURVE",
"1160 4 OFFCURVE",
"1208 0 QCURVE",
"1265 0 OFFCURVE",
"1360 28 OFFCURVE",
"1430 82 OFFCURVE",
"1476 131 OFFCURVE",
"1501 166 QCURVE",
"1436 261 LINE",
"1421 212 LINE SMOOTH",
"1419 205 OFFCURVE",
"1416 204 QCURVE",
"1380 208 OFFCURVE",
"1150 449 OFFCURVE",
"880 789 OFFCURVE",
"605 1202 OFFCURVE",
"533 1356 QCURVE",
"441 1423 LINE",
"218 1296 LINE",
"133 605 OFFCURVE",
"-35 49 QCURVE SMOOTH",
"-56 -20 LINE",
"256 131 LINE",
"245 175 OFFCURVE",
"245 219 QCURVE SMOOTH",
"245 271 OFFCURVE",
"254 342 QCURVE"
);
},
{
closed = 1;
nodes = (
"348 512 OFFCURVE",
"277 519 QCURVE",
"368 1064 LINE",
"721 522 LINE",
"652 512 OFFCURVE",
"523 512 QCURVE SMOOTH",
"464 512 LINE SMOOTH"
);
}
);
width = 1608;
}
);
note = A;
unicode = 0041;
},
{
glyphname = B;
lastChange = "2018-07-29 16:34:27 +0000";
layers = (
{
layerId = "44BDE90C-78B7-4A9A-A14D-6B569C2B6751";
paths = (
{
closed = 1;
nodes = (
"654 988 LINE SMOOTH",
"654 945 OFFCURVE",
"591 868 OFFCURVE",
"503 821 OFFCURVE",
"426 792 OFFCURVE",
"404 790 QCURVE",
"402 790 OFFCURVE",
"400 789 QCURVE",
"379 785 OFFCURVE",
"388 741 OFFCURVE",
"412 736 QCURVE SMOOTH",
"507 716 OFFCURVE",
"661 662 OFFCURVE",
"804 578 OFFCURVE",
"900 456 OFFCURVE",
"918 378 QCURVE",
"918 361 LINE SMOOTH",
"918 312 OFFCURVE",
"814 223 OFFCURVE",
"773 223 QCURVE SMOOTH",
"674 223 OFFCURVE",
"520 253 OFFCURVE",
"422 291 QCURVE",
"199 1254 LINE",
"291 1251 OFFCURVE",
"449 1215 OFFCURVE",
"550 1163 OFFCURVE",
"623 1101 OFFCURVE",
"654 1046 OFFCURVE",
"654 1025 QCURVE SMOOTH",
"654 1014 OFFCURVE",
"654 1014 QCURVE"
);
},
{
closed = 1;
nodes = (
"1124 654 OFFCURVE",
"948 784 OFFCURVE",
"789 815 QCURVE",
"818 841 OFFCURVE",
"853 876 OFFCURVE",
"899 933 OFFCURVE",
"921 996 OFFCURVE",
"921 1031 QCURVE SMOOTH",
"921 1054 OFFCURVE",
"915 1081 QCURVE SMOOTH",
"837 1420 OFFCURVE",
"122 1420 QCURVE SMOOTH",
"57 1420 OFFCURVE",
"-108 1392 OFFCURVE",
"-132 1383 QCURVE",
"-292 1145 LINE",
"-218 1159 LINE SMOOTH",
"-99 1181 OFFCURVE",
"-67 1183 QCURVE",
"111 689 OFFCURVE",
"165 99 QCURVE SMOOTH",
"167 78 LINE",
"190 71 LINE SMOOTH",
"422 0 OFFCURVE",
"621 0 QCURVE SMOOTH",
"689 0 OFFCURVE",
"876 88 OFFCURVE",
"1043 221 OFFCURVE",
"1161 396 OFFCURVE",
"1161 473 QCURVE SMOOTH",
"1161 492 OFFCURVE",
"1156 515 QCURVE SMOOTH"
);
}
);
width = 1339;
}
);
note = B;
unicode = 0042;
},
{
glyphname = C;
lastChange = "2018-07-29 16:34:27 +0000";
layers = (
{
layerId = "44BDE90C-78B7-4A9A-A14D-6B569C2B6751";
paths = (
{
closed = 1;
nodes = (
"790 1333 LINE",
"715 1420 OFFCURVE",
"568 1420 QCURVE SMOOTH",
"517 1420 LINE SMOOTH",
"380 1420 OFFCURVE",
"135 1322 OFFCURVE",
"-38 1157 OFFCURVE",
"-139 933 OFFCURVE",
"-139 811 QCURVE SMOOTH",
"-139 744 OFFCURVE",
"-124 677 QCURVE SMOOTH",
"-95 548 OFFCURVE",
"52 306 OFFCURVE",
"258 115 OFFCURVE",
"533 0 OFFCURVE",
"679 0 QCURVE SMOOTH",
"815 0 OFFCURVE",
"1023 150 OFFCURVE",
"1078 280 QCURVE",
"1035 371 LINE",
"1008 351 LINE SMOOTH",
"874 253 OFFCURVE",
"731 253 QCURVE SMOOTH",
"514 253 OFFCURVE",
"163 636 OFFCURVE",
"93 942 QCURVE SMOOTH",
"87 969 OFFCURVE",
"87 998 QCURVE SMOOTH",
"87 1086 OFFCURVE",
"190 1225 OFFCURVE",
"282 1225 QCURVE SMOOTH",
"351 1225 OFFCURVE",
"472 1192 OFFCURVE",
"533 1160 OFFCURVE",
"589 1125 QCURVE SMOOTH",
"610 1112 LINE",
"627 1124 LINE",
"647 1141 OFFCURVE",
"707 1188 OFFCURVE",
"744 1219 OFFCURVE",
"782 1255 OFFCURVE",
"801 1286 OFFCURVE",
"801 1301 QCURVE SMOOTH",
"801 1308 OFFCURVE",
"800 1311 QCURVE",
"797 1324 OFFCURVE",
"785 1338 QCURVE"
);
}
);
width = 1238;
}
);
note = C;
unicode = 0043;
},
{
glyphname = D;
lastChange = "2018-07-29 16:34:27 +0000";
layers = (
{
layerId = "44BDE90C-78B7-4A9A-A14D-6B569C2B6751";
paths = (
{
closed = 1;
nodes = (
"1033 537 OFFCURVE",
"1033 492 QCURVE SMOOTH",
"1033 384 OFFCURVE",
"912 243 OFFCURVE",
"802 243 QCURVE SMOOTH",
"689 243 OFFCURVE",
"517 274 OFFCURVE",
"431 322 QCURVE",
"219 1240 LINE",
"370 1237 OFFCURVE",
"617 1163 OFFCURVE",
"789 1045 OFFCURVE",
"919 874 OFFCURVE",
"997 691 OFFCURVE",
"1023 580 QCURVE SMOOTH"
);
},
{
closed = 1;
nodes = (
"-51 1193 LINE",
"207 73 LINE",
"232 69 LINE SMOOTH",
"287 60 OFFCURVE",
"435 22 OFFCURVE",
"561 0 OFFCURVE",
"633 0 QCURVE SMOOTH",
"720 0 OFFCURVE",
"937 119 OFFCURVE",
"1124 302 OFFCURVE",
"1251 546 OFFCURVE",
"1251 659 QCURVE SMOOTH",
"1251 700 OFFCURVE",
"1242 741 QCURVE SMOOTH",
"1210 880 OFFCURVE",
"1059 1108 OFFCURVE",
"855 1264 OFFCURVE",
"602 1371 OFFCURVE",
"336 1420 OFFCURVE",
"197 1420 QCURVE SMOOTH",
"136 1420 OFFCURVE",
"-44 1413 OFFCURVE",
"-102 1413 QCURVE SMOOTH",
"-113 1413 LINE",
"-322 1193 LINE"
);
}
);
width = 1464;
}
);
note = D;
unicode = 0044;
},
{
glyphname = E;
lastChange = "2018-07-29 16:34:27 +0000";
layers = (
{
layerId = "44BDE90C-78B7-4A9A-A14D-6B569C2B6751";
paths = (
{
closed = 1;
nodes = (
"-236 1213 LINE",
"10 1213 LINE",
"96 842 LINE",
"57 769 OFFCURVE",
"-54 673 QCURVE SMOOTH",
"-111 626 LINE",
"137 626 LINE",
"283 -4 LINE",
"315 0 LINE SMOOTH",
"422 12 OFFCURVE",
"569 12 QCURVE SMOOTH",
"649 12 OFFCURVE",
"979 0 OFFCURVE",
"1064 0 QCURVE SMOOTH",
"1076 0 LINE",
"1250 237 LINE",
"1185 237 LINE",
"1108 217 OFFCURVE",
"950 217 OFFCURVE",
"858 237 QCURVE",
"648 237 OFFCURVE",
"493 224 QCURVE",
"400 626 LINE",
"470 626 OFFCURVE",
"578 630 OFFCURVE",
"662 642 OFFCURVE",
"720 651 OFFCURVE",
"767 675 OFFCURVE",
"793 691 OFFCURVE",
"820 729 OFFCURVE",
"833 752 OFFCURVE",
"860 805 OFFCURVE",
"869 822 QCURVE",
"889 866 LINE",
"354 866 LINE",
"281 1184 LINE",
"415 1171 OFFCURVE",
"502 1171 QCURVE SMOOTH",
"577 1171 OFFCURVE",
"640 1179 QCURVE",
"660 1179 OFFCURVE",
"697 1187 OFFCURVE",
"730 1204 OFFCURVE",
"756 1220 OFFCURVE",
"784 1251 OFFCURVE",
"801 1270 OFFCURVE",
"826 1309 OFFCURVE",
"837 1326 OFFCURVE",
"862 1369 OFFCURVE",
"865 1375 QCURVE",
"890 1420 LINE",
"832 1420 LINE SMOOTH",
"746 1420 OFFCURVE",
"398 1404 OFFCURVE",
"300 1404 QCURVE SMOOTH",
"161 1404 OFFCURVE",
"-27 1423 QCURVE"
);
}
);
width = 1320;
}
);
note = E;
unicode = 0045;
},
{
glyphname = F;
lastChange = "2018-07-29 16:34:27 +0000";
layers = (
{
layerId = "44BDE90C-78B7-4A9A-A14D-6B569C2B6751";
paths = (
{
closed = 1;
nodes = (
"-254 1195 LINE",
"0 1195 LINE",
"84 829 LINE",
"-104 633 LINE",
"134 631 LINE",
"285 -42 LINE",
"531 140 LINE",
"411 606 LINE",
"604 606 LINE SMOOTH",
"645 606 OFFCURVE",
"724 645 OFFCURVE",
"781 700 OFFCURVE",
"831 767 OFFCURVE",
"857 817 OFFCURVE",
"864 834 QCURVE",
"881 880 LINE",
"829 875 LINE",
"504 851 LINE",
"455 851 OFFCURVE",
"357 853 QCURVE",
"352 875 OFFCURVE",
"325 972 OFFCURVE",
"310 1033 OFFCURVE",
"292 1129 OFFCURVE",
"287 1174 QCURVE",
"573 1183 LINE SMOOTH",
"629 1184 OFFCURVE",
"732 1227 OFFCURVE",
"800 1288 OFFCURVE",
"843 1343 OFFCURVE",
"852 1365 QCURVE",
"885 1433 LINE",
"836 1432 LINE SMOOTH",
"764 1431 OFFCURVE",
"333 1413 OFFCURVE",
"211 1413 QCURVE SMOOTH",
"84 1413 OFFCURVE",
"-43 1423 QCURVE"
);
}
);
width = 1284;
}
);
note = F;
unicode = 0046;
},
{
glyphname = G;
lastChange = "2018-07-29 16:34:27 +0000";
layers = (
{
layerId = "44BDE90C-78B7-4A9A-A14D-6B569C2B6751";
paths = (
{
closed = 1;
nodes = (
"454 1267 OFFCURVE",
"564 1203 OFFCURVE",
"637 1131 QCURVE",
"652 1131 LINE SMOOTH",
"693 1131 OFFCURVE",
"856 1259 OFFCURVE",
"856 1309 QCURVE SMOOTH",
"856 1314 LINE",
"848 1348 OFFCURVE",
"776 1394 OFFCURVE",
"675 1413 OFFCURVE",
"600 1420 OFFCURVE",
"565 1420 QCURVE SMOOTH",
"415 1420 OFFCURVE",
"172 1344 OFFCURVE",
"15 1221 OFFCURVE",
"-91 1055 OFFCURVE",
"-136 884 OFFCURVE",
"-136 793 QCURVE SMOOTH",
"-136 723 OFFCURVE",
"-122 656 QCURVE SMOOTH",
"-95 537 OFFCURVE",
"71 295 OFFCURVE",
"286 114 OFFCURVE",
"535 0 OFFCURVE",
"641 0 QCURVE SMOOTH",
"645 0 LINE SMOOTH",
"775 0 OFFCURVE",
"986 56 OFFCURVE",
"1126 149 OFFCURVE",
"1220 276 OFFCURVE",
"1261 412 OFFCURVE",
"1261 486 QCURVE SMOOTH",
"1261 548 OFFCURVE",
"1248 601 QCURVE",
"1222 692 OFFCURVE",
"1034 844 OFFCURVE",
"937 844 QCURVE SMOOTH",
"931 844 LINE SMOOTH",
"832 844 OFFCURVE",
"795 799 QCURVE",
"766 775 OFFCURVE",
"685 658 OFFCURVE",
"663 635 QCURVE SMOOTH",
"641 613 LINE",
"745 557 LINE",
"759 576 LINE SMOOTH",
"808 643 OFFCURVE",
"871 644 QCURVE SMOOTH",
"884 644 OFFCURVE",
"931 608 OFFCURVE",
"984 545 OFFCURVE",
"1037 439 OFFCURVE",
"1051 377 QCURVE",
"1054 356 OFFCURVE",
"1054 332 QCURVE SMOOTH",
"1054 187 OFFCURVE",
"883 187 QCURVE",
"882 146 OFFCURVE",
"862 187 QCURVE",
"714 187 OFFCURVE",
"404 381 OFFCURVE",
"163 714 OFFCURVE",
"115 905 QCURVE",
"105 967 OFFCURVE",
"105 1016 QCURVE SMOOTH",
"105 1267 OFFCURVE",
"377 1267 QCURVE SMOOTH"
);
}
);
width = 1496;
}
);
note = G;
unicode = 0047;
},
{
glyphname = H;
lastChange = "2018-07-29 16:34:27 +0000";
layers = (
{
layerId = "44BDE90C-78B7-4A9A-A14D-6B569C2B6751";
paths = (
{
closed = 1;
nodes = (
"1085 0 LINE",
"1119 5 OFFCURVE",
"1310 151 OFFCURVE",
"1363 203 QCURVE SMOOTH",
"1378 218 LINE",
"1311 295 LINE",
"1291 274 LINE SMOOTH",
"1272 255 OFFCURVE",
"1257 244 QCURVE",
"1221 292 OFFCURVE",
"1178 487 QCURVE SMOOTH",
"1147 621 LINE",
"1316 812 LINE",
"1103 809 LINE",
"938 1476 LINE",
"711 1284 LINE",
"809 809 LINE",
"648 796 OFFCURVE",
"437 796 QCURVE SMOOTH",
"295 796 OFFCURVE",
"182 800 QCURVE",
"27 1453 LINE",
"-206 1284 LINE",
"-100 812 LINE",
"63 176 LINE",
"64 171 OFFCURVE",
"67 163 QCURVE",
"99 54 OFFCURVE",
"124 9 OFFCURVE",
"159 0 QCURVE",
"179 0 OFFCURVE",
"229 33 OFFCURVE",
"276 78 OFFCURVE",
"360 140 OFFCURVE",
"405 162 QCURVE SMOOTH",
"427 173 LINE",
"356 273 LINE",
"336 229 LINE",
"317 248 OFFCURVE",
"275 376 OFFCURVE",
"249 489 OFFCURVE",
"229 583 QCURVE",
"385 592 OFFCURVE",
"542 592 QCURVE SMOOTH",
"705 592 OFFCURVE",
"872 583 QCURVE",
"1011 66 LINE",
"1017 38 OFFCURVE",
"1055 5 OFFCURVE",
"1074 0 OFFCURVE",
"1080 0 QCURVE SMOOTH"
);
}
);
width = 1554;
}
);
note = H;
unicode = 0048;
},
{
glyphname = I;
lastChange = "2018-07-29 16:34:27 +0000";
layers = (
{
layerId = "44BDE90C-78B7-4A9A-A14D-6B569C2B6751";
paths = (
{
closed = 1;
nodes = (
"16 1423 OFFCURVE",
"-15 1394 QCURVE",
"-306 1195 LINE",
"-230 1126 LINE",
"-212 1137 LINE",
"-178 1161 OFFCURVE",
"-147 1161 QCURVE SMOOTH",
"-134 1161 OFFCURVE",
"-121 1154 OFFCURVE",
"-96 1112 OFFCURVE",
"-78 1066 QCURVE",
"-5 818 OFFCURVE",
"95 411 OFFCURVE",
"170 37 OFFCURVE",
"179 0 QCURVE SMOOTH",
"186 -29 LINE",
"424 152 LINE",
"142 1320 LINE SMOOTH",
"138 1338 OFFCURVE",
"123 1375 OFFCURVE",
"76 1419 OFFCURVE",
"43 1423 QCURVE"
);
}
);
width = 567;
}
);
note = I;
unicode = 0049;
},
{
glyphname = J;
lastChange = "2018-07-29 16:34:27 +0000";
layers = (
{
layerId = "44BDE90C-78B7-4A9A-A14D-6B569C2B6751";
paths = (
{
closed = 1;
nodes = (
"-100 1135 OFFCURVE",
"-80 1081 QCURVE",
"33 703 OFFCURVE",
"85 482 QCURVE SMOOTH",
"92 449 OFFCURVE",
"140 227 OFFCURVE",
"154 155 OFFCURVE",
"181 8 OFFCURVE",
"190 -86 OFFCURVE",
"190 -130 QCURVE SMOOTH",
"190 -257 OFFCURVE",
"140 -338 QCURVE",
"171 -478 LINE",
"490 -130 LINE",
"411 133 OFFCURVE",
"343 435 QCURVE SMOOTH",
"137 1344 LINE SMOOTH",
"124 1396 OFFCURVE",
"83 1418 QCURVE",
"68 1423 OFFCURVE",
"56 1423 QCURVE SMOOTH",
"18 1423 OFFCURVE",
"-13 1394 QCURVE",
"-303 1191 LINE",
"-227 1121 LINE",
"-210 1133 LINE",
"-174 1153 OFFCURVE",
"-143 1153 QCURVE SMOOTH",
"-120 1153 LINE"
);
}
);
width = 577;
}
);
note = J;
unicode = 004A;
},
{
glyphname = K;
lastChange = "2018-07-29 16:34:27 +0000";
layers = (
{
layerId = "44BDE90C-78B7-4A9A-A14D-6B569C2B6751";
paths = (
{
closed = 1;
nodes = (
"2 1413 OFFCURVE",
"-186 1301 OFFCURVE",
"-280 1211 QCURVE SMOOTH",
"-299 1193 LINE",
"-224 1133 LINE",
"-208 1146 LINE SMOOTH",
"-189 1161 OFFCURVE",
"-174 1161 QCURVE SMOOTH",
"-152 1161 OFFCURVE",
"-99 1097 OFFCURVE",
"-84 1052 QCURVE SMOOTH",
"74 541 OFFCURVE",
"158 37 QCURVE SMOOTH",
"167 -14 LINE",
"413 154 LINE",
"278 719 LINE",
"863 55 LINE SMOOTH",
"936 -23 OFFCURVE",
"987 -23 QCURVE SMOOTH",
"1011 -23 OFFCURVE",
"1031 -6 QCURVE SMOOTH",
"1052 11 OFFCURVE",
"1130 67 OFFCURVE",
"1187 117 OFFCURVE",
"1212 151 QCURVE SMOOTH",
"1276 235 LINE",
"1172 193 LINE SMOOTH",
"1159 188 OFFCURVE",
"1150 188 QCURVE SMOOTH",
"1126 188 OFFCURVE",
"992 300 OFFCURVE",
"810 483 OFFCURVE",
"652 648 OFFCURVE",
"485 828 OFFCURVE",
"469 845 QCURVE",
"512 913 OFFCURVE",
"638 1052 OFFCURVE",
"733 1139 OFFCURVE",
"803 1222 OFFCURVE",
"803 1248 QCURVE SMOOTH",
"803 1252 LINE",
"797 1280 OFFCURVE",
"763 1327 OFFCURVE",
"710 1361 OFFCURVE",
"662 1385 OFFCURVE",
"594 1404 OFFCURVE",
"560 1412 OFFCURVE",
"532 1418 QCURVE",
"326 1273 LINE",
"364 1249 LINE SMOOTH",
"397 1228 OFFCURVE",
"425 1210 OFFCURVE",
"486 1164 OFFCURVE",
"519 1122 OFFCURVE",
"524 1102 QCURVE SMOOTH",
"525 1098 OFFCURVE",
"525 1089 QCURVE SMOOTH",
"525 1062 OFFCURVE",
"501 1032 QCURVE SMOOTH",
"269 754 LINE",
"144 1272 LINE",
"132 1311 OFFCURVE",
"100 1367 OFFCURVE",
"75 1395 OFFCURVE",
"47 1410 OFFCURVE",
"35 1413 OFFCURVE",
"30 1413 QCURVE SMOOTH"
);
}
);
width = 1349;
}
);
note = K;
unicode = 004B;
},
{
glyphname = L;
lastChange = "2018-07-29 16:34:27 +0000";
layers = (
{
layerId = "44BDE90C-78B7-4A9A-A14D-6B569C2B6751";
paths = (
{
closed = 1;
nodes = (
"227 5 LINE",
"952 0 LINE",
"1103 227 LINE",
"1046 232 LINE SMOOTH",
"1007 235 OFFCURVE",
"968 235 QCURVE SMOOTH",
"900 235 OFFCURVE",
"531 222 OFFCURVE",
"457 222 QCURVE SMOOTH",
"449 222 OFFCURVE",
"422 229 QCURVE",
"166 1313 LINE SMOOTH",
"157 1354 OFFCURVE",
"73 1420 OFFCURVE",
"38 1420 QCURVE SMOOTH",
"23 1420 OFFCURVE",
"-50 1381 OFFCURVE",
"-69 1365 QCURVE",
"-325 1196 LINE",
"-249 1128 LINE",
"-232 1140 LINE",
"-196 1163 OFFCURVE",
"-166 1163 QCURVE SMOOTH",
"-141 1163 OFFCURVE",
"-76 1119 OFFCURVE",
"-57 1075 QCURVE"
);
}
);
width = 1219;
}
);
note = L;
unicode = 004C;
},
{
glyphname = M;
lastChange = "2018-07-29 16:34:27 +0000";
layers = (
{
layerId = "44BDE90C-78B7-4A9A-A14D-6B569C2B6751";
paths = (
{
closed = 1;
nodes = (
"1575 1471 LINE",
"1226 1236 LINE",
"1228 1227 OFFCURVE",
"1232 1213 OFFCURVE",
"1233 1207 OFFCURVE",
"1234 1203 OFFCURVE",
"1235 1200 OFFCURVE",
"1235 1198 QCURVE",
"1262 1084 OFFCURVE",
"1262 933 QCURVE SMOOTH",
"1262 840 OFFCURVE",
"1237 676 OFFCURVE",
"1184 532 OFFCURVE",
"1087 446 OFFCURVE",
"1022 444 QCURVE",
"943 445 OFFCURVE",
"713 594 OFFCURVE",
"487 812 OFFCURVE",
"261 1069 OFFCURVE",
"100 1278 OFFCURVE",
"55 1347 QCURVE",
"20 1419 LINE",
"-159 1316 LINE",
"-200 1286 OFFCURVE",
"-200 1247 QCURVE SMOOTH",
"-200 1211 OFFCURVE",
"-167 1176 QCURVE",
"29 914 LINE",
"29 852 LINE",
"29 725 LINE SMOOTH",
"29 282 OFFCURVE",
"57 7 QCURVE",
"59 -32 LINE",
"337 165 LINE",
"299 339 OFFCURVE",
"283 660 QCURVE",
"367 577 OFFCURVE",
"468 480 OFFCURVE",
"651 317 OFFCURVE",
"776 226 OFFCURVE",
"918 153 OFFCURVE",
"966 153 QCURVE SMOOTH",
"1007 153 OFFCURVE",
"1046 169 QCURVE SMOOTH",
"1164 220 OFFCURVE",
"1264 450 QCURVE SMOOTH",
"1292 515 OFFCURVE",
"1374 746 QCURVE",
"1394 701 OFFCURVE",
"1487 486 OFFCURVE",
"1540 369 OFFCURVE",
"1623 198 OFFCURVE",
"1706 60 OFFCURVE",
"1751 0 QCURVE",
"1769 -18 LINE",
"1972 139 LINE",
"1991 182 LINE",
"1831 409 OFFCURVE",
"1592 863 OFFCURVE",
"1517 1126 QCURVE"
);
}
);
width = 2130;
}
);
note = M;
unicode = 004D;
},
{
glyphname = N;
lastChange = "2018-07-29 16:34:27 +0000";
layers = (
{
layerId = "44BDE90C-78B7-4A9A-A14D-6B569C2B6751";
paths = (
{
closed = 1;
nodes = (
"570 686 OFFCURVE",
"1021 267 OFFCURVE",
"1221 15 QCURVE SMOOTH",
"1243 -13 LINE",
"1428 141 LINE",
"1162 1449 LINE",
"900 1236 LINE",
"930 1177 OFFCURVE",
"980 1051 OFFCURVE",
"1012 960 OFFCURVE",
"1049 814 OFFCURVE",
"1065 744 OFFCURVE",
"1103 566 OFFCURVE",
"1110 532 QCURVE",
"958 669 OFFCURVE",
"651 934 OFFCURVE",
"280 1235 OFFCURVE",
"-8 1420 OFFCURVE",
"-67 1420 QCURVE SMOOTH",
"-102 1420 OFFCURVE",
"-232 1335 OFFCURVE",
"-309 1268 OFFCURVE",
"-325 1252 QCURVE SMOOTH",
"-345 1232 LINE",
"-271 1175 LINE",
"-255 1189 LINE SMOOTH",
"-241 1201 OFFCURVE",
"-219 1209 OFFCURVE",
"-196 1209 QCURVE",
"-182 1205 OFFCURVE",
"-106 1155 OFFCURVE",
"-7 1085 OFFCURVE",
"14 1072 QCURVE",
"221 -37 LINE",
"262 7 LINE SMOOTH",
"287 34 OFFCURVE",
"337 81 OFFCURVE",
"373 110 OFFCURVE",
"416 138 OFFCURVE",
"435 148 OFFCURVE",
"470 166 OFFCURVE",
"472 167 QCURVE",
"349 526 OFFCURVE",
"305 884 QCURVE"
);
}
);
width = 1615;
}
);
note = N;
unicode = 004E;
},
{
glyphname = O;
lastChange = "2018-07-29 16:34:27 +0000";
layers = (
{
layerId = "44BDE90C-78B7-4A9A-A14D-6B569C2B6751";
paths = (
{
closed = 1;
nodes = (
"300 1211 LINE",
"316 1215 OFFCURVE",
"335 1215 QCURVE SMOOTH",
"408 1215 OFFCURVE",
"589 1108 OFFCURVE",
"746 947 OFFCURVE",
"869 751 OFFCURVE",
"888 667 QCURVE SMOOTH",
"906 590 OFFCURVE",
"906 521 QCURVE SMOOTH",
"906 490 OFFCURVE",
"903 456 QCURVE",
"885 364 OFFCURVE",
"760 250 OFFCURVE",
"675 250 QCURVE SMOOTH",
"660 250 LINE SMOOTH",
"564 250 OFFCURVE",
"333 403 OFFCURVE",
"154 642 OFFCURVE",
"127 760 QCURVE SMOOTH",
"115 811 OFFCURVE",
"115 899 QCURVE SMOOTH",
"115 985 OFFCURVE",
"132 1043 QCURVE",
"145 1098 LINE",
"111 1095 OFFCURVE",
"78 1082 QCURVE",
"47 1056 OFFCURVE",
"2 1013 OFFCURVE",
"-58 938 OFFCURVE",
"-97 862 OFFCURVE",
"-124 756 OFFCURVE",
"-124 698 QCURVE SMOOTH",
"-124 633 OFFCURVE",
"-108 562 QCURVE SMOOTH",
"-102 536 LINE",
"-88 500 OFFCURVE",
"-57 432 OFFCURVE",
"7 317 OFFCURVE",
"79 222 OFFCURVE",
"189 117 OFFCURVE",
"311 44 OFFCURVE",
"476 -4 OFFCURVE",
"566 -4 QCURVE SMOOTH",
"661 -4 OFFCURVE",
"882 113 OFFCURVE",
"1066 296 OFFCURVE",
"1189 544 OFFCURVE",
"1189 664 QCURVE SMOOTH",
"1189 710 OFFCURVE",
"1178 760 QCURVE SMOOTH",
"1143 912 OFFCURVE",
"1011 1147 OFFCURVE",
"856 1290 OFFCURVE",
"666 1382 OFFCURVE",
"492 1416 OFFCURVE",
"401 1416 QCURVE SMOOTH",
"273 1416 OFFCURVE",
"118 1312 OFFCURVE",
"51 1208 QCURVE SMOOTH",
"40 1190 LINE",
"125 1112 LINE",
"166 1159 OFFCURVE",
"272 1211 OFFCURVE",
"297 1211 QCURVE SMOOTH"
);
}
);
width = 1450;
}
);
note = O;
unicode = 004F;
},
{
glyphname = P;
lastChange = "2018-07-29 16:34:27 +0000";
layers = (
{
layerId = "44BDE90C-78B7-4A9A-A14D-6B569C2B6751";
paths = (
{
closed = 1;
nodes = (
"-291 1142 LINE",
"-202 1170 LINE SMOOTH",
"-142 1189 OFFCURVE",
"-50 1191 QCURVE",
"40 931 OFFCURVE",
"168 316 OFFCURVE",
"193 29 QCURVE SMOOTH",
"199 -30 LINE",
"467 160 LINE",
"232 1177 LINE",
"239 1178 OFFCURVE",
"286 1183 OFFCURVE",
"298 1183 QCURVE SMOOTH",
"425 1183 OFFCURVE",
"639 1013 OFFCURVE",
"666 895 QCURVE SMOOTH",
"670 875 OFFCURVE",
"670 864 QCURVE SMOOTH",
"670 808 OFFCURVE",
"578 708 OFFCURVE",
"461 656 OFFCURVE",
"414 656 QCURVE SMOOTH",
"394 656 OFFCURVE",
"386 623 OFFCURVE",
"401 610 QCURVE",
"411 591 OFFCURVE",
"442 575 OFFCURVE",
"448 570 QCURVE",
"511 570 OFFCURVE",
"681 637 OFFCURVE",
"838 744 OFFCURVE",
"948 900 OFFCURVE",
"948 978 QCURVE SMOOTH",
"948 1002 OFFCURVE",
"942 1027 QCURVE SMOOTH",
"919 1126 OFFCURVE",
"782 1280 OFFCURVE",
"585 1373 OFFCURVE",
"355 1420 OFFCURVE",
"230 1420 QCURVE SMOOTH",
"151 1420 OFFCURVE",
"64 1418 OFFCURVE",
"-67 1402 OFFCURVE",
"-117 1386 QCURVE"
);
}
);
width = 1232;
}
);
note = P;
unicode = 0050;
},
{
glyphname = Q;
lastChange = "2018-07-29 16:34:27 +0000";
layers = (
{
layerId = "44BDE90C-78B7-4A9A-A14D-6B569C2B6751";
paths = (
{
closed = 1;
nodes = (
"515 373 OFFCURVE",
"520 367 OFFCURVE",
"531 348 OFFCURVE",
"548 321 OFFCURVE",
"589 262 OFFCURVE",
"616 225 QCURVE",
"512 240 OFFCURVE",
"389 338 QCURVE",
"441 324 LINE",
"453 332 OFFCURVE",
"486 358 OFFCURVE",
"507 374 OFFCURVE",
"512 375 QCURVE"
);
},
{
closed = 1;
nodes = (
"105 1102 LINE",
"123 1124 LINE",
"145 1153 OFFCURVE",
"254 1211 OFFCURVE",
"282 1211 QCURVE SMOOTH",
"285 1211 LINE",
"301 1215 OFFCURVE",
"320 1215 QCURVE SMOOTH",
"392 1215 OFFCURVE",
"571 1107 OFFCURVE",
"726 944 OFFCURVE",
"849 746 OFFCURVE",
"868 661 QCURVE SMOOTH",
"889 571 OFFCURVE",
"889 500 QCURVE SMOOTH",
"889 403 OFFCURVE",
"845 323 QCURVE",
"797 378 OFFCURVE",
"706 507 OFFCURVE",
"662 573 OFFCURVE",
"600 620 OFFCURVE",
"562 620 QCURVE SMOOTH",
"530 620 OFFCURVE",
"481 588 OFFCURVE",
"472 574 QCURVE",
"362 370 LINE",
"298 425 OFFCURVE",
"200 548 OFFCURVE",
"149 653 OFFCURVE",
"126 714 OFFCURVE",
"121 738 QCURVE",
"112 770 OFFCURVE",
"112 863 QCURVE SMOOTH",
"112 961 OFFCURVE",
"129 1026 QCURVE SMOOTH",
"156 1123 LINE",
"78 1060 LINE SMOOTH",
"47 1035 OFFCURVE",
"0 990 OFFCURVE",
"-61 915 OFFCURVE",
"-101 838 OFFCURVE",
"-129 730 OFFCURVE",
"-129 672 QCURVE SMOOTH",
"-129 609 OFFCURVE",
"-113 539 QCURVE SMOOTH",
"-107 513 LINE",
"-94 479 OFFCURVE",
"-64 413 OFFCURVE",
"0 304 OFFCURVE",
"70 213 OFFCURVE",
"178 112 OFFCURVE",
"299 42 OFFCURVE",
"462 -4 OFFCURVE",
"551 -4 QCURVE SMOOTH",
"655 -4 OFFCURVE",
"774 62 QCURVE",
"923 -78 OFFCURVE",
"1320 -282 OFFCURVE",
"1411 -282 QCURVE SMOOTH",
"1540 -282 OFFCURVE",
"1540 -120 QCURVE SMOOTH",
"1540 -92 OFFCURVE",
"1533 -24 QCURVE",
"1470 29 LINE",
"1460 -4 LINE",
"1458 -9 OFFCURVE",
"1451 -34 OFFCURVE",
"1448 -41 OFFCURVE",
"1436 -49 OFFCURVE",
"1427 -49 QCURVE SMOOTH",
"1372 -49 OFFCURVE",
"1082 122 OFFCURVE",
"966 218 QCURVE",
"1060 316 OFFCURVE",
"1177 550 OFFCURVE",
"1177 667 QCURVE SMOOTH",
"1177 715 OFFCURVE",
"1167 759 QCURVE SMOOTH",
"1132 911 OFFCURVE",
"998 1147 OFFCURVE",
"841 1290 OFFCURVE",
"648 1382 OFFCURVE",
"474 1416 OFFCURVE",
"384 1416 QCURVE SMOOTH",
"339 1416 OFFCURVE",
"257 1397 OFFCURVE",
"199 1376 OFFCURVE",
"137 1327 OFFCURVE",
"105 1299 OFFCURVE",
"56 1234 OFFCURVE",
"42 1213 OFFCURVE",
"21 1180 QCURVE"
);
}
);
width = 1660;
}
);
note = Q;
unicode = 0051;
},
{
glyphname = R;
lastChange = "2018-07-29 16:34:27 +0000";
layers = (
{
layerId = "44BDE90C-78B7-4A9A-A14D-6B569C2B6751";
paths = (
{
closed = 1;
nodes = (
"702 990 OFFCURVE",
"702 986 OFFCURVE",
"702 983 OFFCURVE",
"702 978 OFFCURVE",
"702 976 QCURVE SMOOTH",
"702 935 OFFCURVE",
"628 824 OFFCURVE",
"579 786 QCURVE",
"400 691 LINE",
"415 669 LINE",
"498 529 OFFCURVE",
"625 375 QCURVE SMOOTH",
"710 272 OFFCURVE",
"932 33 QCURVE SMOOTH",
"990 -28 OFFCURVE",
"1046 -28 QCURVE SMOOTH",
"1082 -28 OFFCURVE",
"1108 -3 QCURVE",
"1308 141 LINE",
"1266 209 LINE",
"1241 189 LINE SMOOTH",
"1229 180 OFFCURVE",
"1221 180 QCURVE SMOOTH",
"1189 180 OFFCURVE",
"857 522 OFFCURVE",
"689 717 QCURVE",
"698 723 OFFCURVE",
"758 762 OFFCURVE",
"789 782 OFFCURVE",
"846 825 OFFCURVE",
"879 857 OFFCURVE",
"922 906 OFFCURVE",
"945 951 OFFCURVE",
"962 1008 OFFCURVE",
"962 1038 QCURVE SMOOTH",
"962 1066 OFFCURVE",
"955 1094 QCURVE",
"941 1142 OFFCURVE",
"891 1225 OFFCURVE",
"786 1315 OFFCURVE",
"640 1379 OFFCURVE",
"405 1420 OFFCURVE",
"258 1420 QCURVE SMOOTH",
"136 1420 LINE SMOOTH",
"9 1420 OFFCURVE",
"-132 1402 QCURVE",
"-310 1161 LINE",
"-282 1169 OFFCURVE",
"-133 1189 OFFCURVE",
"-83 1189 QCURVE SMOOTH",
"-53 1189 OFFCURVE",
"-36 1184 QCURVE",
"-10 1100 LINE",
"12 1003 OFFCURVE",
"78 750 OFFCURVE",
"93 683 QCURVE SMOOTH",
"123 554 OFFCURVE",
"204 115 OFFCURVE",
"230 0 QCURVE SMOOTH",
"237 -31 LINE",
"486 171 LINE",
"457 297 OFFCURVE",
"354 672 OFFCURVE",
"331 774 QCURVE SMOOTH",
"314 850 OFFCURVE",
"260 1115 OFFCURVE",
"240 1202 QCURVE",
"412 1199 OFFCURVE",
"596 1158 OFFCURVE",
"683 1074 OFFCURVE",
"702 992 QCURVE"
);
}
);
width = 1387;
}
);
note = R;
unicode = 0052;
},
{
glyphname = S;
lastChange = "2018-07-29 16:34:27 +0000";
layers = (
{
layerId = "44BDE90C-78B7-4A9A-A14D-6B569C2B6751";
paths = (
{
closed = 1;
nodes = (
"319 1420 OFFCURVE",
"39 1303 OFFCURVE",
"-163 1093 OFFCURVE",
"-163 978 QCURVE SMOOTH",
"-163 950 OFFCURVE",
"-157 922 QCURVE SMOOTH",
"-151 897 OFFCURVE",
"-128 850 OFFCURVE",
"-101 814 OFFCURVE",
"-64 781 OFFCURVE",
"-30 757 OFFCURVE",
"11 735 OFFCURVE",
"43 722 OFFCURVE",
"81 709 OFFCURVE",
"102 703 OFFCURVE",
"127 696 OFFCURVE",
"128 696 QCURVE",
"513 595 LINE",
"536 588 LINE",
"559 580 OFFCURVE",
"628 542 OFFCURVE",
"701 490 OFFCURVE",
"764 404 OFFCURVE",
"775 354 QCURVE SMOOTH",
"778 340 OFFCURVE",
"778 329 QCURVE SMOOTH",
"778 269 OFFCURVE",
"660 181 OFFCURVE",
"593 178 QCURVE",
"505 178 OFFCURVE",
"336 257 OFFCURVE",
"238 370 QCURVE SMOOTH",
"217 394 LINE",
"194 380 LINE SMOOTH",
"76 303 OFFCURVE",
"-9 222 OFFCURVE",
"-9 193 QCURVE SMOOTH",
"-9 189 OFFCURVE",
"-7 179 QCURVE",
"-2 158 OFFCURVE",
"58 100 OFFCURVE",
"155 41 OFFCURVE",
"308 0 OFFCURVE",
"391 0 QCURVE SMOOTH",
"495 0 OFFCURVE",
"695 69 OFFCURVE",
"846 180 OFFCURVE",
"963 315 OFFCURVE",
"1024 454 OFFCURVE",
"1024 513 QCURVE SMOOTH",
"1024 537 OFFCURVE",
"1020 554 QCURVE SMOOTH",
"1011 592 OFFCURVE",
"966 659 OFFCURVE",
"914 705 OFFCURVE",
"845 745 OFFCURVE",
"791 767 OFFCURVE",
"732 786 OFFCURVE",
"712 791 OFFCURVE",
"705 792 QCURVE",
"357 882 LINE",
"352 883 OFFCURVE",
"307 899 OFFCURVE",
"234 935 OFFCURVE",
"164 980 OFFCURVE",
"105 1047 OFFCURVE",
"97 1083 QCURVE",
"96 1086 OFFCURVE",
"93 1097 OFFCURVE",
"93 1098 QCURVE",
"88 1121 OFFCURVE",
"88 1137 QCURVE SMOOTH",
"88 1198 OFFCURVE",
"186 1266 OFFCURVE",
"260 1271 QCURVE",
"392 1271 OFFCURVE",
"528 1135 QCURVE SMOOTH",
"549 1114 LINE",
"736 1234 LINE",
"744 1238 OFFCURVE",
"755 1246 OFFCURVE",
"759 1257 OFFCURVE",
"761 1261 OFFCURVE",
"761 1276 OFFCURVE",
"761 1278 QCURVE",
"757 1294 OFFCURVE",
"709 1339 OFFCURVE",
"632 1387 OFFCURVE",
"511 1420 OFFCURVE",
"445 1420 QCURVE SMOOTH"
);
}
);
width = 1257;
}
);
note = S;
unicode = 0053;
},
{
glyphname = T;
lastChange = "2018-07-29 16:34:27 +0000";
layers = (
{
layerId = "44BDE90C-78B7-4A9A-A14D-6B569C2B6751";
paths = (
{
closed = 1;
nodes = (
"509 1170 OFFCURVE",
"579 1171 QCURVE SMOOTH",
"729 1173 OFFCURVE",
"799 1196 QCURVE SMOOTH",
"920 1237 OFFCURVE",
"999 1377 QCURVE SMOOTH",
"1023 1420 LINE",
"316 1420 LINE",
"278 1461 OFFCURVE",
"258 1420 QCURVE",
"65 1421 OFFCURVE",
"-109 1433 QCURVE",
"-347 1211 LINE",
"192 1181 LINE",
"464 -31 LINE",
"742 182 LINE",
"686 371 OFFCURVE",
"627 572 OFFCURVE",
"520 1009 OFFCURVE",
"495 1170 QCURVE"
);
}
);
width = 1411;
}
);
note = T;
unicode = 0054;
},
{
glyphname = U;
lastChange = "2018-07-29 16:34:27 +0000";
layers = (
{
layerId = "44BDE90C-78B7-4A9A-A14D-6B569C2B6751";
paths = (
{
closed = 1;
nodes = (
"-25 1423 LINE",
"-162 1316 LINE",
"-169 1311 OFFCURVE",
"-201 1286 OFFCURVE",
"-212 1275 OFFCURVE",
"-230 1253 OFFCURVE",
"-236 1229 OFFCURVE",
"-236 1213 QCURVE SMOOTH",
"-236 1161 OFFCURVE",
"-190 1048 QCURVE",
"-174 1003 OFFCURVE",
"-118 831 OFFCURVE",
"-81 719 OFFCURVE",
"-18 551 OFFCURVE",
"35 436 OFFCURVE",
"116 291 OFFCURVE",
"194 194 OFFCURVE",
"301 92 OFFCURVE",
"416 32 OFFCURVE",
"559 -6 OFFCURVE",
"639 -6 QCURVE SMOOTH",
"740 -6 OFFCURVE",
"900 28 OFFCURVE",
"1014 86 OFFCURVE",
"1097 180 OFFCURVE",
"1147 284 OFFCURVE",
"1176 428 OFFCURVE",
"1186 566 OFFCURVE",
"1186 656 QCURVE SMOOTH",
"1186 730 OFFCURVE",
"1175 1071 OFFCURVE",
"1175 1164 QCURVE SMOOTH",
"1175 1261 OFFCURVE",
"1179 1338 QCURVE SMOOTH",
"1182 1466 LINE",
"904 1215 LINE",
"989 848 LINE",
"1009 675 OFFCURVE",
"1009 577 QCURVE SMOOTH",
"1009 497 OFFCURVE",
"984 379 OFFCURVE",
"925 282 OFFCURVE",
"814 232 OFFCURVE",
"734 232 QCURVE SMOOTH",
"652 232 OFFCURVE",
"578 270 QCURVE SMOOTH",
"399 362 OFFCURVE",
"244 699 QCURVE SMOOTH",
"169 862 OFFCURVE",
"41 1235 QCURVE SMOOTH",
"8 1331 OFFCURVE",
"-9 1378 QCURVE SMOOTH"
);
}
);
width = 1633;
}
);
note = U;
unicode = 0055;
},
{
glyphname = V;
lastChange = "2018-07-29 16:34:27 +0000";
layers = (
{
layerId = "44BDE90C-78B7-4A9A-A14D-6B569C2B6751";
paths = (
{
closed = 1;
nodes = (
"914 453 OFFCURVE",
"1008 815 OFFCURVE",
"1162 1299 OFFCURVE",
"1194 1416 QCURVE",
"1217 1478 LINE",
"821 1255 LINE",
"824 1156 LINE",
"818 699 OFFCURVE",
"749 400 QCURVE",
"47 1369 LINE",
"0 1421 OFFCURVE",
"-31 1439 QCURVE",
"-55 1448 OFFCURVE",
"-73 1448 QCURVE SMOOTH",
"-87 1448 OFFCURVE",
"-104 1443 QCURVE",
"-356 1253 LINE",
"-306 1196 LINE",
"-287 1207 LINE",
"-262 1219 OFFCURVE",
"-240 1219 QCURVE SMOOTH",
"-224 1219 OFFCURVE",
"-210 1215 QCURVE",
"-103 1111 OFFCURVE",
"122 820 OFFCURVE",
"285 572 OFFCURVE",
"512 226 OFFCURVE",
"591 116 QCURVE",
"635 48 OFFCURVE",
"649 -19 QCURVE",
"648 -57 LINE",
"926 119 LINE",
"893 138 OFFCURVE",
"893 224 QCURVE SMOOTH",
"893 256 OFFCURVE",
"899 301 QCURVE SMOOTH"
);
}
);
width = 1647;
}
);
note = V;
unicode = 0056;
},
{
glyphname = W;
lastChange = "2018-07-29 16:34:27 +0000";
layers = (
{
layerId = "44BDE90C-78B7-4A9A-A14D-6B569C2B6751";
paths = (
{
closed = 1;
nodes = (
"668 408 OFFCURVE",
"474 695 OFFCURVE",
"403 796 OFFCURVE",
"237 1030 OFFCURVE",
"136 1162 OFFCURVE",
"-8 1337 OFFCURVE",
"-74 1408 QCURVE SMOOTH",
"-94 1431 LINE",
"-352 1236 LINE",
"-316 1172 LINE",
"-290 1184 LINE",
"-279 1190 OFFCURVE",
"-268 1190 QCURVE SMOOTH",
"-256 1190 OFFCURVE",
"-246 1185 QCURVE",
"-131 1071 OFFCURVE",
"103 781 OFFCURVE",
"333 437 OFFCURVE",
"491 184 OFFCURVE",
"598 4 QCURVE SMOOTH",
"617 -29 LINE",
"832 94 LINE",
"826 120 LINE SMOOTH",
"815 166 OFFCURVE",
"815 215 QCURVE SMOOTH",
"815 263 OFFCURVE",
"824 309 QCURVE",
"997 969 LINE",
"1105 829 OFFCURVE",
"1243 643 OFFCURVE",
"1426 384 OFFCURVE",
"1583 130 OFFCURVE",
"1652 0 QCURVE",
"1666 -19 LINE",
"1895 137 LINE",
"1894 140 OFFCURVE",
"1884 160 OFFCURVE",
"1879 172 OFFCURVE",
"1872 192 OFFCURVE",
"1869 211 OFFCURVE",
"1869 222 QCURVE SMOOTH",
"1869 246 OFFCURVE",
"1879 275 QCURVE",
"1902 448 OFFCURVE",
"1987 776 OFFCURVE",
"2155 1284 OFFCURVE",
"2179 1362 QCURVE SMOOTH",
"2200 1433 LINE",
"1845 1244 LINE",
"1814 687 OFFCURVE",
"1731 401 QCURVE",
"1025 1419 LINE",
"771 1244 LINE",
"805 1129 OFFCURVE",
"805 1007 QCURVE SMOOTH",
"805 918 OFFCURVE",
"776 734 OFFCURVE",
"707 434 OFFCURVE",
"694 370 QCURVE"
);
}
);
width = 2625;
}
);
note = W;
unicode = 0057;
},
{
glyphname = X;
lastChange = "2018-07-29 16:34:27 +0000";
layers = (
{
layerId = "44BDE90C-78B7-4A9A-A14D-6B569C2B6751";
paths = (
{
closed = 1;
nodes = (
"375 562 OFFCURVE",
"255 347 OFFCURVE",
"50 32 OFFCURVE",
"22 -13 QCURVE SMOOTH",
"-30 -101 LINE",
"462 130 LINE",
"436 207 OFFCURVE",
"436 285 QCURVE SMOOTH",
"436 346 OFFCURVE",
"473 473 OFFCURVE",
"502 529 OFFCURVE",
"529 577 QCURVE",
"592 485 OFFCURVE",
"757 297 OFFCURVE",
"879 176 OFFCURVE",
"977 83 QCURVE",
"982 79 OFFCURVE",
"991 71 QCURVE SMOOTH",
"1032 35 OFFCURVE",
"1060 18 OFFCURVE",
"1086 17 QCURVE",
"1101 17 LINE",
"1184 63 OFFCURVE",
"1344 184 OFFCURVE",
"1350 188 QCURVE SMOOTH",
"1370 201 LINE",
"1307 279 LINE",
"1286 269 LINE SMOOTH",
"1241 248 OFFCURVE",
"1226 248 QCURVE SMOOTH",
"1206 248 OFFCURVE",
"1181 266 QCURVE",
"1111 323 OFFCURVE",
"956 475 OFFCURVE",
"881 555 OFFCURVE",
"686 774 OFFCURVE",
"669 793 QCURVE",
"1047 1462 LINE",
"592 1237 LINE",
"610 1125 OFFCURVE",
"610 1108 QCURVE SMOOTH",
"610 1036 OFFCURVE",
"542 887 QCURVE",
"154 1350 LINE",
"153 1351 LINE",
"113 1396 OFFCURVE",
"85 1396 QCURVE SMOOTH",
"83 1396 LINE SMOOTH",
"68 1396 OFFCURVE",
"-2 1358 OFFCURVE",
"-120 1260 OFFCURVE",
"-173 1194 QCURVE SMOOTH",
"-193 1169 LINE",
"-119 1134 LINE",
"-90 1160 OFFCURVE",
"-76 1160 QCURVE SMOOTH",
"-56 1160 OFFCURVE",
"44 1079 OFFCURVE",
"172 948 OFFCURVE",
"289 823 OFFCURVE",
"405 697 OFFCURVE",
"422 679 QCURVE"
);
}
);
width = 1449;
}
);
note = X;
unicode = 0058;
},
{
glyphname = Y;
lastChange = "2018-07-29 16:34:27 +0000";
layers = (
{
layerId = "44BDE90C-78B7-4A9A-A14D-6B569C2B6751";
paths = (
{
closed = 1;
nodes = (
"-234 1197 LINE",
"-231 1197 OFFCURVE",
"-229 1198 QCURVE",
"-218 1195 OFFCURVE",
"-202 1187 QCURVE",
"-200 1185 OFFCURVE",
"-98 1102 OFFCURVE",
"-85 1091 OFFCURVE",
"7 1015 OFFCURVE",
"30 993 OFFCURVE",
"109 923 OFFCURVE",
"142 889 OFFCURVE",
"208 824 OFFCURVE",
"249 776 OFFCURVE",
"301 715 OFFCURVE",
"324 685 QCURVE SMOOTH",
"432 551 OFFCURVE",
"553 243 OFFCURVE",
"597 55 QCURVE SMOOTH",
"640 -129 LINE",
"886 80 LINE",
"879 108 OFFCURVE",
"841 240 OFFCURVE",
"819 321 OFFCURVE",
"800 435 OFFCURVE",
"800 479 QCURVE SMOOTH",
"800 560 OFFCURVE",
"829 615 QCURVE",
"1205 1492 LINE",
"785 1239 LINE",
"788 1239 LINE",
"819 1164 OFFCURVE",
"819 1086 QCURVE SMOOTH",
"819 1034 OFFCURVE",
"788 913 OFFCURVE",
"757 837 OFFCURVE",
"691 697 OFFCURVE",
"680 672 QCURVE",
"409 1031 OFFCURVE",
"3 1384 QCURVE",
"-2 1388 OFFCURVE",
"-23 1408 OFFCURVE",
"-28 1411 OFFCURVE",
"-43 1422 OFFCURVE",
"-54 1424 OFFCURVE",
"-73 1428 OFFCURVE",
"-86 1429 QCURVE",
"-106 1429 OFFCURVE",
"-128 1419 QCURVE",
"-354 1242 LINE",
"-285 1187 LINE"
);
}
);
width = 1615;
}
);
note = Y;
unicode = 0059;
},
{
glyphname = Z;
lastChange = "2018-07-29 16:34:27 +0000";
layers = (
{
layerId = "44BDE90C-78B7-4A9A-A14D-6B569C2B6751";
paths = (
{
closed = 1;
nodes = (
"497 1117 LINE",
"68 422 LINE",
"60 407 OFFCURVE",
"22 338 OFFCURVE",
"10 311 OFFCURVE",
"-3 260 OFFCURVE",
"-3 233 QCURVE SMOOTH",
"-3 186 OFFCURVE",
"12 123 QCURVE SMOOTH",
"20 86 OFFCURVE",
"142 27 OFFCURVE",
"256 2 OFFCURVE",
"291 0 QCURVE SMOOTH",
"433 -13 OFFCURVE",
"582 -13 QCURVE SMOOTH",
"736 -13 OFFCURVE",
"898 0 QCURVE",
"1084 326 LINE",
"1020 319 LINE SMOOTH",
"1000 317 OFFCURVE",
"863 301 OFFCURVE",
"797 295 OFFCURVE",
"689 288 OFFCURVE",
"644 288 QCURVE SMOOTH",
"538 288 OFFCURVE",
"403 316 OFFCURVE",
"344 362 OFFCURVE",
"336 396 QCURVE SMOOTH",
"332 411 OFFCURVE",
"332 433 QCURVE SMOOTH",
"332 495 OFFCURVE",
"371 594 QCURVE",
"846 1437 LINE",
"790 1434 LINE SMOOTH",
"760 1432 OFFCURVE",
"378 1400 OFFCURVE",
"277 1400 QCURVE SMOOTH",
"20 1400 OFFCURVE",
"3 1478 QCURVE SMOOTH",
"-14 1551 LINE",
"-55 1497 LINE",
"-201 1284 LINE SMOOTH",
"-227 1244 OFFCURVE",
"-227 1211 QCURVE SMOOTH",
"-227 1205 OFFCURVE",
"-225 1193 QCURVE",
"-214 1145 OFFCURVE",
"-108 1108 OFFCURVE",
"-24 1103 QCURVE"
);
}
);
width = 1284;
}
);
note = Z;
unicode = 005A;
},
{
glyphname = bracketleft;
lastChange = "2018-07-29 16:34:27 +0000";
layers = (
{
layerId = "44BDE90C-78B7-4A9A-A14D-6B569C2B6751";
paths = (
{
closed = 1;
nodes = (
"123 -238 LINE",
"577 -238 LINE",
"548 -112 LINE",
"336 -112 LINE",
"0 1346 LINE",
"211 1346 LINE",
"182 1472 LINE",
"-272 1472 LINE"
);
}
);
width = 628;
}
);
note = bracketleft;
unicode = 005B;
},
{
glyphname = backslash;
lastChange = "2018-07-29 16:34:27 +0000";
layers = (
{
layerId = "44BDE90C-78B7-4A9A-A14D-6B569C2B6751";
paths = (
{
closed = 1;
nodes = (
"-462 1480 LINE",
"975 -52 LINE",
"1207 -52 LINE",
"-227 1480 LINE"
);
}
);
width = 1276;
}
);
note = backslash;
unicode = 005C;
},
{
glyphname = bracketright;
lastChange = "2018-07-29 16:34:27 +0000";
layers = (
{
layerId = "44BDE90C-78B7-4A9A-A14D-6B569C2B6751";
paths = (
{
closed = 1;
nodes = (
"-398 1472 LINE",
"-369 1346 LINE",
"-157 1346 LINE",
"180 -112 LINE",
"-32 -112 LINE",
"-3 -238 LINE",
"451 -238 LINE",
"56 1472 LINE"
);
}
);
width = 502;
}
);
note = bracketright;
unicode = 005D;
},
{
glyphname = asciicircum;
lastChange = "2018-07-29 16:34:27 +0000";
layers = (
{
layerId = "44BDE90C-78B7-4A9A-A14D-6B569C2B6751";
paths = (
{
closed = 1;
nodes = (
"100 1448 LINE",
"-84 1448 LINE",
"-246 824 LINE",
"-44 824 LINE",
"55 1241 LINE",
"343 828 LINE",
"546 828 LINE"
);
}
);
width = 787;
}
);
note = asciicircum;
unicode = 005E;
},
{
glyphname = underscore;
lastChange = "2018-07-29 16:34:27 +0000";
layers = (
{
layerId = "44BDE90C-78B7-4A9A-A14D-6B569C2B6751";
paths = (
{
closed = 1;
nodes = (
"1333 -306 LINE",
"129 -306 LINE",
"158 -434 LINE",
"1362 -434 LINE"
);
}
);
width = 1303;
}
);
note = underscore;
unicode = 005F;
},
{
glyphname = grave;
lastChange = "2018-07-29 16:34:27 +0000";
layers = (
{
layerId = "44BDE90C-78B7-4A9A-A14D-6B569C2B6751";
paths = (
{
closed = 1;
nodes = (
"-224 1423 LINE",
"-375 1307 LINE",
"14 1105 LINE",
"107 1155 LINE"
);
}
);
width = 458;
}
);
note = grave;
unicode = 0060;
},
{
glyphname = a;
lastChange = "2018-07-29 16:34:27 +0000";
layers = (
{
layerId = "44BDE90C-78B7-4A9A-A14D-6B569C2B6751";
paths = (
{
closed = 1;
nodes = (
"197 732 OFFCURVE",
"213 724 QCURVE",
"339 645 OFFCURVE",
"384 591 QCURVE",
"316 583 OFFCURVE",
"167 531 OFFCURVE",
"28 448 OFFCURVE",
"-62 320 OFFCURVE",
"-62 247 QCURVE SMOOTH",
"-62 220 OFFCURVE",
"-56 192 QCURVE SMOOTH",
"-41 125 OFFCURVE",
"80 34 OFFCURVE",
"219 0 OFFCURVE",
"293 0 QCURVE SMOOTH",
"363 0 OFFCURVE",
"494 57 OFFCURVE",
"582 142 OFFCURVE",
"637 216 OFFCURVE",
"650 245 QCURVE SMOOTH",
"662 272 LINE",
"738 194 OFFCURVE",
"849 36 QCURVE SMOOTH",
"870 5 LINE",
"1064 162 LINE",
"1048 181 LINE",
"879 405 OFFCURVE",
"608 719 OFFCURVE",
"446 867 QCURVE SMOOTH",
"363 943 OFFCURVE",
"289 943 QCURVE SMOOTH",
"256 943 OFFCURVE",
"226 923 QCURVE",
"14 741 LINE",
"85 697 LINE",
"86 697 OFFCURVE",
"105 709 OFFCURVE",
"121 716 OFFCURVE",
"144 727 OFFCURVE",
"168 732 OFFCURVE",
"179 732 QCURVE SMOOTH"
);
},
{
closed = 1;
nodes = (
"528 243 OFFCURVE",
"389 243 QCURVE SMOOTH",
"346 243 OFFCURVE",
"264 254 OFFCURVE",
"182 279 OFFCURVE",
"125 328 OFFCURVE",
"118 361 QCURVE",
"117 364 OFFCURVE",
"117 371 QCURVE SMOOTH",
"117 399 OFFCURVE",
"185 440 OFFCURVE",
"215 440 QCURVE SMOOTH",
"351 440 OFFCURVE",
"548 369 OFFCURVE",
"635 294 QCURVE",
"603 279 LINE SMOOTH"
);
}
);
width = 1201;
}
);
note = a;
unicode = 0061;
},
{
glyphname = b;
lastChange = "2018-07-29 16:34:27 +0000";
layers = (
{
layerId = "44BDE90C-78B7-4A9A-A14D-6B569C2B6751";
paths = (
{
closed = 1;
nodes = (
"-139 1154 OFFCURVE",
"-126 1150 OFFCURVE",
"-105 1133 OFFCURVE",
"-86 1092 OFFCURVE",
"-79 1060 QCURVE SMOOTH",
"56 477 LINE SMOOTH",
"70 416 OFFCURVE",
"117 293 OFFCURVE",
"196 162 OFFCURVE",
"292 64 OFFCURVE",
"427 0 OFFCURVE",
"503 0 QCURVE SMOOTH",
"582 0 OFFCURVE",
"756 85 OFFCURVE",
"898 221 OFFCURVE",
"990 408 OFFCURVE",
"990 503 QCURVE SMOOTH",
"990 547 OFFCURVE",
"980 587 QCURVE SMOOTH",
"965 652 OFFCURVE",
"897 777 OFFCURVE",
"800 879 OFFCURVE",
"668 942 OFFCURVE",
"597 942 QCURVE SMOOTH",
"542 942 OFFCURVE",
"448 912 OFFCURVE",
"376 858 OFFCURVE",
"326 805 OFFCURVE",
"302 770 QCURVE SMOOTH",
"263 715 LINE",
"124 1318 LINE SMOOTH",
"100 1421 OFFCURVE",
"33 1431 QCURVE",
"14 1431 OFFCURVE",
"-86 1359 OFFCURVE",
"-113 1335 QCURVE",
"-305 1188 LINE",
"-229 1118 LINE",
"-179 1154 OFFCURVE",
"-147 1154 QCURVE SMOOTH"
);
},
{
closed = 1;
nodes = (
"396 747 OFFCURVE",
"442 747 QCURVE SMOOTH",
"507 747 OFFCURVE",
"628 682 OFFCURVE",
"716 579 OFFCURVE",
"778 460 OFFCURVE",
"791 403 QCURVE",
"795 388 OFFCURVE",
"795 369 QCURVE SMOOTH",
"795 306 OFFCURVE",
"714 205 OFFCURVE",
"659 205 QCURVE SMOOTH",
"497 205 OFFCURVE",
"343 366 OFFCURVE",
"299 559 QCURVE SMOOTH",
"267 699 LINE",
"346 729 LINE SMOOTH"
);
}
);
width = 1211;
}
);
note = b;
unicode = 0062;
},
{
glyphname = c;
lastChange = "2018-07-29 16:34:27 +0000";
layers = (
{
layerId = "44BDE90C-78B7-4A9A-A14D-6B569C2B6751";
paths = (
{
closed = 1;
nodes = (
"743 254 LINE SMOOTH",
"710 237 OFFCURVE",
"602 203 OFFCURVE",
"559 203 QCURVE SMOOTH",
"557 203 LINE SMOOTH",
"486 204 OFFCURVE",
"278 325 OFFCURVE",
"98 523 OFFCURVE",
"77 616 QCURVE SMOOTH",
"74 630 OFFCURVE",
"74 643 QCURVE SMOOTH",
"74 694 OFFCURVE",
"150 775 OFFCURVE",
"194 775 QCURVE SMOOTH",
"215 775 OFFCURVE",
"254 766 OFFCURVE",
"293 743 OFFCURVE",
"320 725 OFFCURVE",
"360 684 OFFCURVE",
"378 665 OFFCURVE",
"422 614 OFFCURVE",
"428 607 QCURVE SMOOTH",
"448 585 LINE",
"471 595 LINE",
"517 619 OFFCURVE",
"623 718 OFFCURVE",
"623 768 QCURVE SMOOTH",
"623 774 OFFCURVE",
"621 784 QCURVE SMOOTH",
"609 839 OFFCURVE",
"438 936 OFFCURVE",
"339 938 QCURVE SMOOTH",
"231 937 OFFCURVE",
"28 804 OFFCURVE",
"-95 596 OFFCURVE",
"-95 490 QCURVE SMOOTH",
"-95 454 OFFCURVE",
"-88 423 QCURVE SMOOTH",
"-72 360 OFFCURVE",
"26 211 OFFCURVE",
"155 85 OFFCURVE",
"312 0 OFFCURVE",
"380 0 QCURVE SMOOTH",
"446 0 OFFCURVE",
"564 39 OFFCURVE",
"648 103 OFFCURVE",
"703 161 OFFCURVE",
"724 193 QCURVE SMOOTH",
"776 271 LINE"
);
}
);
width = 896;
}
);
note = c;
unicode = 0063;
},
{
glyphname = d;
lastChange = "2018-07-29 16:34:27 +0000";
layers = (
{
layerId = "44BDE90C-78B7-4A9A-A14D-6B569C2B6751";
paths = (
{
closed = 1;
nodes = (
"439 176 LINE SMOOTH",
"375 176 OFFCURVE",
"222 309 OFFCURVE",
"99 515 OFFCURVE",
"75 618 QCURVE SMOOTH",
"55 707 OFFCURVE",
"55 751 QCURVE SMOOTH",
"55 802 OFFCURVE",
"83 802 QCURVE SMOOTH",
"85 802 LINE SMOOTH",
"134 802 OFFCURVE",
"175 794 QCURVE SMOOTH",
"320 767 OFFCURVE",
"387 636 QCURVE SMOOTH",
"401 607 OFFCURVE",
"437 504 QCURVE",
"457 467 LINE",
"484 482 LINE",
"524 499 OFFCURVE",
"548 604 QCURVE",
"570 508 LINE SMOOTH",
"577 480 OFFCURVE",
"577 447 QCURVE SMOOTH",
"577 386 OFFCURVE",
"535 259 OFFCURVE",
"474 177 OFFCURVE",
"446 176 QCURVE"
);
},
{
closed = 1;
nodes = (
"79 938 OFFCURVE",
"-107 738 OFFCURVE",
"-107 592 QCURVE SMOOTH",
"-107 541 OFFCURVE",
"-96 496 QCURVE SMOOTH",
"-83 442 OFFCURVE",
"-19 287 OFFCURVE",
"76 117 OFFCURVE",
"209 0 OFFCURVE",
"275 0 QCURVE SMOOTH",
"381 0 OFFCURVE",
"555 104 OFFCURVE",
"647 202 QCURVE",
"677 72 LINE SMOOTH",
"694 0 OFFCURVE",
"776 0 QCURVE SMOOTH",
"790 0 LINE SMOOTH",
"831 0 OFFCURVE",
"876 28 QCURVE SMOOTH",
"1173 222 LINE",
"1097 289 LINE",
"1080 278 LINE SMOOTH",
"1046 255 OFFCURVE",
"1015 255 QCURVE SMOOTH",
"953 255 OFFCURVE",
"932 345 QCURVE",
"619 1462 LINE",
"373 1362 LINE",
"504 791 LINE",
"452 852 OFFCURVE",
"300 938 OFFCURVE",
"219 938 QCURVE SMOOTH"
);
}
);
width = 1317;
}
);
note = d;
unicode = 0064;
},
{
glyphname = e;
lastChange = "2018-07-29 16:34:27 +0000";
layers = (
{
layerId = "44BDE90C-78B7-4A9A-A14D-6B569C2B6751";
paths = (
{
closed = 1;
nodes = (
"241 755 OFFCURVE",
"310 689 OFFCURVE",
"320 644 QCURVE SMOOTH",
"329 603 OFFCURVE",
"329 574 QCURVE SMOOTH",
"329 467 OFFCURVE",
"244 404 QCURVE",
"235 398 OFFCURVE",
"235 388 QCURVE SMOOTH",
"235 376 OFFCURVE",
"259 355 OFFCURVE",
"274 355 QCURVE SMOOTH",
"282 355 OFFCURVE",
"289 358 QCURVE SMOOTH",
"313 369 OFFCURVE",
"382 408 OFFCURVE",
"484 482 OFFCURVE",
"566 563 OFFCURVE",
"626 673 OFFCURVE",
"626 726 QCURVE SMOOTH",
"626 745 OFFCURVE",
"621 770 QCURVE SMOOTH",
"604 847 OFFCURVE",
"449 938 OFFCURVE",
"354 938 QCURVE SMOOTH",
"266 938 OFFCURVE",
"117 877 OFFCURVE",
"17 778 OFFCURVE",
"-53 651 OFFCURVE",
"-85 521 OFFCURVE",
"-85 459 QCURVE SMOOTH",
"-85 414 OFFCURVE",
"-76 375 QCURVE SMOOTH",
"-54 279 OFFCURVE",
"111 103 OFFCURVE",
"320 0 OFFCURVE",
"412 0 QCURVE SMOOTH",
"455 0 OFFCURVE",
"533 19 OFFCURVE",
"598 57 OFFCURVE",
"646 92 OFFCURVE",
"694 150 OFFCURVE",
"717 179 OFFCURVE",
"753 235 OFFCURVE",
"755 238 QCURVE",
"765 251 OFFCURVE",
"742 280 OFFCURVE",
"728 280 QCURVE SMOOTH",
"719 280 OFFCURVE",
"681 258 OFFCURVE",
"600 226 OFFCURVE",
"545 217 QCURVE",
"442 218 OFFCURVE",
"235 345 OFFCURVE",
"104 511 OFFCURVE",
"87 583 QCURVE SMOOTH",
"82 608 OFFCURVE",
"82 627 QCURVE SMOOTH",
"82 681 OFFCURVE",
"136 755 OFFCURVE",
"177 755 QCURVE SMOOTH"
);
}
);
width = 914;
}
);
note = e;
unicode = 0065;
},
{
glyphname = f;
lastChange = "2018-07-29 16:34:27 +0000";
layers = (
{
layerId = "44BDE90C-78B7-4A9A-A14D-6B569C2B6751";
paths = (
{
closed = 1;
nodes = (
"-140 506 LINE",
"131 513 LINE",
"350 -406 LINE",
"570 -219 LINE",
"383 498 LINE",
"388 498 OFFCURVE",
"440 506 OFFCURVE",
"449 506 QCURVE SMOOTH",
"479 506 OFFCURVE",
"539 500 OFFCURVE",
"614 489 OFFCURVE",
"631 487 QCURVE SMOOTH",
"654 484 LINE",
"656 506 LINE SMOOTH",
"661 593 OFFCURVE",
"708 652 QCURVE SMOOTH",
"746 700 LINE",
"678 700 LINE SMOOTH",
"640 700 OFFCURVE",
"480 692 OFFCURVE",
"437 692 QCURVE SMOOTH",
"404 692 OFFCURVE",
"336 696 QCURVE",
"266 964 LINE SMOOTH",
"242 1066 OFFCURVE",
"242 1137 QCURVE SMOOTH",
"242 1257 OFFCURVE",
"305 1257 QCURVE SMOOTH",
"337 1257 OFFCURVE",
"423 1214 OFFCURVE",
"471 1177 OFFCURVE",
"481 1167 QCURVE",
"484 1147 LINE",
"520 1164 LINE",
"651 1306 LINE",
"638 1350 LINE",
"600 1370 OFFCURVE",
"443 1428 OFFCURVE",
"390 1428 QCURVE SMOOTH",
"239 1428 OFFCURVE",
"36 1187 OFFCURVE",
"36 971 QCURVE SMOOTH",
"36 868 OFFCURVE",
"63 744 QCURVE SMOOTH",
"76 690 LINE",
"-130 705 LINE"
);
}
);
width = 1088;
}
);
note = f;
unicode = 0066;
},
{
glyphname = g;
lastChange = "2018-07-29 16:34:27 +0000";
layers = (
{
layerId = "44BDE90C-78B7-4A9A-A14D-6B569C2B6751";
paths = (
{
closed = 1;
nodes = (
"351 824 OFFCURVE",
"581 686 OFFCURVE",
"607 570 QCURVE",
"618 533 LINE",
"618 517 LINE SMOOTH",
"618 472 OFFCURVE",
"531 390 OFFCURVE",
"465 390 QCURVE SMOOTH",
"330 390 OFFCURVE",
"107 559 OFFCURVE",
"81 672 QCURVE SMOOTH",
"77 690 OFFCURVE",
"77 701 QCURVE SMOOTH",
"77 732 OFFCURVE",
"101 783 QCURVE",
"151 824 OFFCURVE",
"204 824 QCURVE SMOOTH"
);
},
{
closed = 1;
nodes = (
"146 129 OFFCURVE",
"117 105 OFFCURVE",
"75 60 OFFCURVE",
"45 -14 OFFCURVE",
"45 -55 QCURVE SMOOTH",
"45 -84 OFFCURVE",
"52 -112 QCURVE SMOOTH",
"62 -158 OFFCURVE",
"148 -266 OFFCURVE",
"273 -364 OFFCURVE",
"446 -429 OFFCURVE",
"533 -429 QCURVE SMOOTH",
"724 -429 OFFCURVE",
"968 -217 OFFCURVE",
"968 -59 QCURVE SMOOTH",
"968 -15 OFFCURVE",
"958 28 QCURVE SMOOTH",
"939 111 OFFCURVE",
"604 270 OFFCURVE",
"342 280 QCURVE",
"589 287 OFFCURVE",
"801 423 OFFCURVE",
"801 558 QCURVE SMOOTH",
"801 615 OFFCURVE",
"784 688 QCURVE SMOOTH",
"774 734 OFFCURVE",
"749 771 QCURVE",
"764 789 LINE",
"819 958 LINE",
"763 943 LINE SMOOTH",
"700 927 OFFCURVE",
"608 927 QCURVE SMOOTH",
"527 927 OFFCURVE",
"421 938 QCURVE SMOOTH",
"315 950 LINE",
"254 950 OFFCURVE",
"70 909 OFFCURVE",
"23 878 QCURVE",
"21 876 OFFCURVE",
"-13 846 OFFCURVE",
"-30 829 OFFCURVE",
"-64 793 OFFCURVE",
"-84 759 OFFCURVE",
"-106 714 OFFCURVE",
"-116 663 OFFCURVE",
"-116 635 QCURVE SMOOTH",
"-116 600 OFFCURVE",
"-108 568 QCURVE SMOOTH",
"-91 492 OFFCURVE",
"71 323 OFFCURVE",
"158 302 QCURVE",
"121 181 LINE",
"166 181 LINE SMOOTH",
"228 181 OFFCURVE",
"438 133 OFFCURVE",
"650 57 OFFCURVE",
"816 -54 OFFCURVE",
"829 -108 QCURVE SMOOTH",
"839 -146 LINE",
"839 -152 LINE SMOOTH",
"839 -187 OFFCURVE",
"703 -254 OFFCURVE",
"618 -254 QCURVE SMOOTH",
"476 -254 OFFCURVE",
"266 -116 OFFCURVE",
"239 0 QCURVE SMOOTH",
"230 39 OFFCURVE",
"230 64 QCURVE SMOOTH",
"230 73 OFFCURVE",
"233 97 OFFCURVE",
"233 101 QCURVE SMOOTH",
"233 108 OFFCURVE",
"232 112 QCURVE",
"232 113 OFFCURVE",
"191 142 OFFCURVE",
"190 142 QCURVE SMOOTH",
"174 142 OFFCURVE",
"154 132 QCURVE"
);
}
);
width = 1099;
}
);
note = g;
unicode = 0067;
},
{
glyphname = h;
lastChange = "2018-07-29 16:34:27 +0000";
layers = (
{
layerId = "44BDE90C-78B7-4A9A-A14D-6B569C2B6751";
paths = (
{
closed = 1;
nodes = (
"96 1376 OFFCURVE",
"60 1423 OFFCURVE",
"34 1423 QCURVE SMOOTH",
"-11 1423 OFFCURVE",
"-75 1368 QCURVE",
"-315 1188 LINE",
"-240 1119 LINE",
"-223 1131 LINE SMOOTH",
"-188 1155 OFFCURVE",
"-158 1155 QCURVE SMOOTH",
"-111 1155 OFFCURVE",
"-89 1061 QCURVE SMOOTH",
"212 -83 LINE",
"244 0 LINE",
"302 134 OFFCURVE",
"446 394 OFFCURVE",
"582 574 OFFCURVE",
"617 574 QCURVE SMOOTH",
"650 574 OFFCURVE",
"708 543 OFFCURVE",
"758 476 OFFCURVE",
"798 404 OFFCURVE",
"844 287 OFFCURVE",
"876 194 OFFCURVE",
"926 48 OFFCURVE",
"944 0 QCURVE",
"956 -26 LINE",
"1158 133 LINE",
"1110 290 OFFCURVE",
"1034 518 OFFCURVE",
"948 733 OFFCURVE",
"873 865 OFFCURVE",
"791 944 OFFCURVE",
"751 944 QCURVE SMOOTH",
"709 944 OFFCURVE",
"625 888 OFFCURVE",
"542 782 OFFCURVE",
"469 674 OFFCURVE",
"368 523 OFFCURVE",
"329 473 QCURVE",
"111 1320 LINE SMOOTH"
);
}
);
width = 1282;
}
);
note = h;
unicode = 0068;
},
{
glyphname = i;
lastChange = "2018-07-29 16:34:27 +0000";
layers = (
{
layerId = "44BDE90C-78B7-4A9A-A14D-6B569C2B6751";
paths = (
{
closed = 1;
nodes = (
"60 1062 OFFCURVE",
"76 1069 QCURVE",
"234 1193 LINE",
"203 1217 LINE SMOOTH",
"98 1296 OFFCURVE",
"53 1374 QCURVE SMOOTH",
"33 1409 LINE",
"-93 1297 LINE",
"-125 1265 OFFCURVE",
"-125 1229 QCURVE",
"-123 1178 OFFCURVE",
"-8 1062 OFFCURVE",
"48 1062 QCURVE SMOOTH"
);
},
{
closed = 1;
nodes = (
"16 699 OFFCURVE",
"34 692 OFFCURVE",
"62 649 OFFCURVE",
"71 610 QCURVE SMOOTH",
"215 -26 LINE",
"428 120 LINE",
"258 856 LINE SMOOTH",
"248 899 OFFCURVE",
"205 952 OFFCURVE",
"176 952 QCURVE SMOOTH",
"145 952 OFFCURVE",
"115 922 QCURVE",
"-154 731 LINE",
"-79 665 LINE",
"-26 699 OFFCURVE",
"4 699 QCURVE SMOOTH"
);
}
);
width = 613;
}
);
note = i;
unicode = 0069;
},
{
glyphname = j;
lastChange = "2018-07-29 16:34:27 +0000";
layers = (
{
layerId = "44BDE90C-78B7-4A9A-A14D-6B569C2B6751";
paths = (
{
closed = 1;
nodes = (
"-164 1206 OFFCURVE",
"-44 1062 OFFCURVE",
"14 1062 QCURVE SMOOTH",
"27 1062 OFFCURVE",
"42 1071 QCURVE",
"199 1197 LINE",
"167 1224 LINE SMOOTH",
"156 1233 OFFCURVE",
"113 1267 OFFCURVE",
"98 1281 OFFCURVE",
"71 1307 OFFCURVE",
"52 1334 OFFCURVE",
"42 1353 QCURVE",
"0 1413 LINE",
"-129 1302 LINE",
"-163 1277 OFFCURVE",
"-164 1250 QCURVE"
);
},
{
closed = 1;
nodes = (
"25 678 OFFCURVE",
"43 673 OFFCURVE",
"69 641 OFFCURVE",
"76 612 QCURVE SMOOTH",
"306 -402 LINE",
"518 -239 LINE",
"260 870 LINE SMOOTH",
"249 917 OFFCURVE",
"222 934 QCURVE",
"202 944 OFFCURVE",
"183 944 QCURVE SMOOTH",
"153 944 OFFCURVE",
"121 917 QCURVE",
"-145 716 LINE",
"-69 646 LINE",
"-24 678 OFFCURVE",
"13 678 QCURVE SMOOTH"
);
}
);
width = 581;
}
);
note = j;
unicode = 006A;
},
{
glyphname = k;
lastChange = "2018-07-29 16:34:27 +0000";
layers = (
{
layerId = "44BDE90C-78B7-4A9A-A14D-6B569C2B6751";
paths = (
{
closed = 1;
nodes = (
"183 -25 LINE",
"402 143 LINE",
"328 464 LINE",
"728 76 LINE",
"735 71 OFFCURVE",
"769 43 OFFCURVE",
"787 31 OFFCURVE",
"814 13 OFFCURVE",
"838 6 OFFCURVE",
"850 6 QCURVE SMOOTH",
"876 6 OFFCURVE",
"901 27 QCURVE",
"1045 158 LINE",
"1056 170 OFFCURVE",
"1035 204 OFFCURVE",
"1024 204 QCURVE SMOOTH",
"1022 204 OFFCURVE",
"1010 201 OFFCURVE",
"1004 201 QCURVE SMOOTH",
"972 201 OFFCURVE",
"908 247 QCURVE",
"879 272 OFFCURVE",
"616 487 OFFCURVE",
"541 561 QCURVE",
"582 594 OFFCURVE",
"639 645 OFFCURVE",
"708 715 OFFCURVE",
"744 781 OFFCURVE",
"744 809 QCURVE SMOOTH",
"744 814 OFFCURVE",
"742 826 QCURVE",
"714 950 OFFCURVE",
"491 950 QCURVE SMOOTH",
"479 950 LINE",
"296 757 LINE",
"372 757 LINE SMOOTH",
"407 757 OFFCURVE",
"464 721 OFFCURVE",
"471 694 QCURVE",
"471 678 LINE SMOOTH",
"471 668 OFFCURVE",
"465 645 OFFCURVE",
"456 625 OFFCURVE",
"439 600 OFFCURVE",
"427 583 OFFCURVE",
"402 557 OFFCURVE",
"389 544 OFFCURVE",
"361 518 OFFCURVE",
"352 510 OFFCURVE",
"324 486 OFFCURVE",
"323 485 QCURVE",
"129 1326 LINE SMOOTH",
"122 1358 OFFCURVE",
"97 1402 OFFCURVE",
"69 1420 OFFCURVE",
"49 1426 OFFCURVE",
"40 1426 QCURVE SMOOTH",
"15 1426 OFFCURVE",
"-26 1396 QCURVE SMOOTH",
"-302 1194 LINE",
"-223 1126 LINE",
"-205 1137 LINE",
"-171 1161 OFFCURVE",
"-142 1161 QCURVE SMOOTH",
"-96 1161 OFFCURVE",
"-74 1067 QCURVE SMOOTH"
);
}
);
width = 1184;
}
);
note = k;
unicode = 006B;
},
{
glyphname = l;
lastChange = "2018-07-29 16:34:27 +0000";
layers = (
{
layerId = "44BDE90C-78B7-4A9A-A14D-6B569C2B6751";
paths = (
{
closed = 1;
nodes = (
"174 -28 LINE",
"388 131 LINE",
"112 1313 LINE SMOOTH",
"101 1358 OFFCURVE",
"57 1413 OFFCURVE",
"29 1413 QCURVE SMOOTH",
"24 1413 OFFCURVE",
"13 1410 OFFCURVE",
"-1 1403 OFFCURVE",
"-9 1398 OFFCURVE",
"-27 1386 OFFCURVE",
"-31 1383 QCURVE SMOOTH",
"-298 1189 LINE",
"-223 1119 LINE",
"-206 1131 LINE SMOOTH",
"-171 1155 OFFCURVE",
"-140 1155 QCURVE SMOOTH",
"-94 1155 OFFCURVE",
"-72 1062 QCURVE SMOOTH"
);
}
);
width = 538;
}
);
note = l;
unicode = 006C;
},
{
glyphname = m;
lastChange = "2018-07-29 16:34:27 +0000";
layers = (
{
layerId = "44BDE90C-78B7-4A9A-A14D-6B569C2B6751";
paths = (
{
closed = 1;
nodes = (
"7 683 OFFCURVE",
"49 646 OFFCURVE",
"70 590 QCURVE SMOOTH",
"128 436 OFFCURVE",
"182 202 QCURVE SMOOTH",
"246 -80 LINE",
"280 0 LINE",
"299 39 OFFCURVE",
"367 194 OFFCURVE",
"416 303 OFFCURVE",
"488 439 OFFCURVE",
"551 524 OFFCURVE",
"630 583 OFFCURVE",
"668 583 QCURVE SMOOTH",
"709 583 OFFCURVE",
"786 518 OFFCURVE",
"857 389 OFFCURVE",
"909 275 OFFCURVE",
"981 95 OFFCURVE",
"1000 52 QCURVE SMOOTH",
"1030 -16 LINE",
"1055 45 LINE SMOOTH",
"1066 73 OFFCURVE",
"1117 209 OFFCURVE",
"1150 291 OFFCURVE",
"1202 414 OFFCURVE",
"1246 491 OFFCURVE",
"1298 568 OFFCURVE",
"1352 605 OFFCURVE",
"1378 605 QCURVE SMOOTH",
"1407 605 OFFCURVE",
"1467 556 OFFCURVE",
"1522 463 OFFCURVE",
"1570 365 OFFCURVE",
"1618 232 OFFCURVE",
"1651 138 OFFCURVE",
"1689 19 OFFCURVE",
"1695 0 QCURVE",
"1706 -25 LINE",
"1914 129 LINE",
"1895 183 OFFCURVE",
"1843 342 OFFCURVE",
"1808 448 OFFCURVE",
"1760 585 OFFCURVE",
"1723 678 OFFCURVE",
"1678 782 OFFCURVE",
"1637 849 OFFCURVE",
"1590 908 OFFCURVE",
"1542 937 OFFCURVE",
"1517 938 QCURVE",
"1476 938 OFFCURVE",
"1402 910 OFFCURVE",
"1336 848 OFFCURVE",
"1283 783 OFFCURVE",
"1222 676 OFFCURVE",
"1180 593 OFFCURVE",
"1113 460 OFFCURVE",
"1091 419 QCURVE",
"1083 446 OFFCURVE",
"1052 549 OFFCURVE",
"1033 611 OFFCURVE",
"1003 705 OFFCURVE",
"978 764 OFFCURVE",
"944 838 OFFCURVE",
"911 883 OFFCURVE",
"871 925 OFFCURVE",
"826 944 OFFCURVE",
"801 944 QCURVE SMOOTH",
"773 944 OFFCURVE",
"715 915 OFFCURVE",
"647 844 OFFCURVE",
"591 775 OFFCURVE",
"504 641 OFFCURVE",
"444 544 OFFCURVE",
"390 454 QCURVE",
"258 843 LINE",
"230 902 OFFCURVE",
"187 938 OFFCURVE",
"158 941 QCURVE",
"129 941 OFFCURVE",
"97 911 QCURVE",
"-174 715 LINE",
"-99 648 LINE",
"-44 683 OFFCURVE",
"-17 683 QCURVE SMOOTH"
);
}
);
width = 2039;
}
);
note = m;
unicode = 006D;
},
{
glyphname = n;
lastChange = "2018-07-29 16:34:27 +0000";
layers = (
{
layerId = "44BDE90C-78B7-4A9A-A14D-6B569C2B6751";
paths = (
{
closed = 1;
nodes = (
"266 843 LINE",
"237 902 OFFCURVE",
"193 938 OFFCURVE",
"163 941 QCURVE",
"132 941 OFFCURVE",
"100 911 QCURVE",
"-174 715 LINE",
"-99 648 LINE",
"-44 683 OFFCURVE",
"-17 683 QCURVE SMOOTH",
"7 683 OFFCURVE",
"49 646 OFFCURVE",
"70 590 QCURVE SMOOTH",
"128 436 OFFCURVE",
"182 202 QCURVE SMOOTH",
"246 -80 LINE",
"282 0 LINE",
"328 91 OFFCURVE",
"393 216 OFFCURVE",
"477 363 OFFCURVE",
"546 457 OFFCURVE",
"622 541 OFFCURVE",
"697 581 OFFCURVE",
"733 581 QCURVE SMOOTH",
"763 581 OFFCURVE",
"827 511 OFFCURVE",
"891 381 OFFCURVE",
"942 261 OFFCURVE",
"1008 93 OFFCURVE",
"1025 53 QCURVE SMOOTH",
"1050 -5 LINE",
"1191 260 LINE",
"1180 293 OFFCURVE",
"1130 448 OFFCURVE",
"1095 552 OFFCURVE",
"1040 701 OFFCURVE",
"989 800 OFFCURVE",
"928 896 OFFCURVE",
"862 944 OFFCURVE",
"828 944 QCURVE SMOOTH",
"826 944 LINE SMOOTH",
"804 944 OFFCURVE",
"754 922 OFFCURVE",
"702 877 OFFCURVE",
"653 829 OFFCURVE",
"596 754 OFFCURVE",
"553 696 OFFCURVE",
"496 607 OFFCURVE",
"463 556 OFFCURVE",
"410 469 OFFCURVE",
"400 454 QCURVE"
);
}
);
width = 1333;
}
);
note = n;
unicode = 006E;
},
{
glyphname = o;
lastChange = "2018-07-29 16:34:27 +0000";
layers = (
{
layerId = "44BDE90C-78B7-4A9A-A14D-6B569C2B6751";
paths = (
{
closed = 1;
nodes = (
"77 604 OFFCURVE",
"88 648 QCURVE",
"32 614 LINE",
"-83 535 OFFCURVE",
"-83 418 QCURVE SMOOTH",
"-83 387 OFFCURVE",
"-76 356 QCURVE SMOOTH",
"-63 298 OFFCURVE",
"12 175 OFFCURVE",
"116 68 OFFCURVE",
"255 0 OFFCURVE",
"325 0 QCURVE SMOOTH",
"425 0 OFFCURVE",
"608 78 OFFCURVE",
"734 202 OFFCURVE",
"808 358 OFFCURVE",
"808 436 QCURVE SMOOTH",
"808 469 OFFCURVE",
"800 504 QCURVE SMOOTH",
"776 607 OFFCURVE",
"619 809 OFFCURVE",
"405 938 OFFCURVE",
"306 938 QCURVE SMOOTH",
"249 938 OFFCURVE",
"116 873 OFFCURVE",
"17 755 OFFCURVE",
"14 691 QCURVE",
"14 668 OFFCURVE",
"62 649 OFFCURVE",
"70 669 QCURVE",
"79 694 OFFCURVE",
"186 733 OFFCURVE",
"240 735 QCURVE",
"244 735 LINE SMOOTH",
"305 735 OFFCURVE",
"429 658 OFFCURVE",
"526 535 OFFCURVE",
"600 387 OFFCURVE",
"617 314 QCURVE SMOOTH",
"620 299 OFFCURVE",
"620 286 QCURVE SMOOTH",
"620 239 OFFCURVE",
"554 177 OFFCURVE",
"496 177 QCURVE SMOOTH",
"389 177 OFFCURVE",
"202 266 OFFCURVE",
"77 449 OFFCURVE",
"76 570 QCURVE"
);
}
);
width = 1025;
}
);
note = o;
unicode = 006F;
},
{
glyphname = p;
lastChange = "2018-07-29 16:34:27 +0000";
layers = (
{
layerId = "44BDE90C-78B7-4A9A-A14D-6B569C2B6751";
paths = (
{
closed = 1;
nodes = (
"-1 682 OFFCURVE",
"17 675 OFFCURVE",
"45 632 OFFCURVE",
"54 592 QCURVE SMOOTH",
"294 -390 LINE",
"545 -302 LINE",
"363 492 LINE",
"363 504 LINE SMOOTH",
"363 553 OFFCURVE",
"416 660 OFFCURVE",
"474 722 OFFCURVE",
"487 722 QCURVE SMOOTH",
"523 722 OFFCURVE",
"644 596 OFFCURVE",
"752 409 OFFCURVE",
"770 332 QCURVE SMOOTH",
"774 316 OFFCURVE",
"774 298 QCURVE SMOOTH",
"774 274 OFFCURVE",
"753 228 OFFCURVE",
"730 198 OFFCURVE",
"674 157 OFFCURVE",
"644 139 OFFCURVE",
"567 95 OFFCURVE",
"554 88 QCURVE",
"548 84 OFFCURVE",
"513 64 OFFCURVE",
"489 49 OFFCURVE",
"489 46 QCURVE",
"493 33 OFFCURVE",
"529 0 OFFCURVE",
"542 0 QCURVE SMOOTH",
"544 0 LINE",
"607 11 OFFCURVE",
"739 64 OFFCURVE",
"859 145 OFFCURVE",
"954 242 OFFCURVE",
"1010 361 OFFCURVE",
"1010 422 QCURVE SMOOTH",
"1010 452 OFFCURVE",
"1003 480 QCURVE SMOOTH",
"983 569 OFFCURVE",
"872 778 OFFCURVE",
"712 938 OFFCURVE",
"640 938 QCURVE SMOOTH",
"602 938 OFFCURVE",
"525 910 OFFCURVE",
"469 876 OFFCURVE",
"393 804 OFFCURVE",
"355 762 OFFCURVE",
"315 716 QCURVE",
"285 844 LINE SMOOTH",
"280 868 OFFCURVE",
"259 904 OFFCURVE",
"238 923 OFFCURVE",
"209 934 OFFCURVE",
"192 937 OFFCURVE",
"180 938 QCURVE",
"168 938 OFFCURVE",
"168 938 QCURVE SMOOTH",
"139 938 OFFCURVE",
"104 908 QCURVE",
"-171 714 LINE",
"-95 647 LINE",
"-51 682 OFFCURVE",
"-13 682 QCURVE SMOOTH"
);
}
);
width = 1209;
}
);
note = p;
unicode = 0070;
},
{
glyphname = q;
lastChange = "2018-07-29 16:34:27 +0000";
layers = (
{
layerId = "44BDE90C-78B7-4A9A-A14D-6B569C2B6751";
paths = (
{
closed = 1;
nodes = (
"590 164 LINE",
"583 188 LINE",
"581 187 OFFCURVE",
"553 171 OFFCURVE",
"545 167 OFFCURVE",
"520 156 OFFCURVE",
"505 151 OFFCURVE",
"483 146 OFFCURVE",
"473 146 QCURVE SMOOTH",
"462 146 OFFCURVE",
"451 151 QCURVE",
"385 205 OFFCURVE",
"311 271 OFFCURVE",
"206 381 OFFCURVE",
"140 497 OFFCURVE",
"124 560 QCURVE SMOOTH",
"118 586 OFFCURVE",
"118 610 QCURVE SMOOTH",
"118 661 OFFCURVE",
"163 728 OFFCURVE",
"198 728 QCURVE SMOOTH",
"229 728 OFFCURVE",
"280 727 OFFCURVE",
"324 720 OFFCURVE",
"353 718 OFFCURVE",
"387 704 OFFCURVE",
"402 700 OFFCURVE",
"434 679 OFFCURVE",
"442 674 OFFCURVE",
"479 646 OFFCURVE",
"484 642 QCURVE",
"592 409 OFFCURVE",
"730 -190 QCURVE SMOOTH",
"791 -453 LINE",
"823 -446 LINE SMOOTH",
"1038 -404 OFFCURVE",
"1208 -315 QCURVE SMOOTH",
"1310 -263 LINE",
"1161 -263 LINE SMOOTH",
"1093 -263 OFFCURVE",
"1022 -237 OFFCURVE",
"1014 -200 QCURVE",
"712 871 LINE",
"688 875 LINE SMOOTH",
"642 884 OFFCURVE",
"506 919 OFFCURVE",
"400 938 OFFCURVE",
"338 938 QCURVE SMOOTH",
"262 938 OFFCURVE",
"105 835 OFFCURVE",
"-10 683 OFFCURVE",
"-83 504 OFFCURVE",
"-83 429 QCURVE SMOOTH",
"-83 402 OFFCURVE",
"-77 376 QCURVE SMOOTH",
"-51 263 OFFCURVE",
"103 103 OFFCURVE",
"229 28 QCURVE",
"293 0 OFFCURVE",
"371 0 QCURVE SMOOTH",
"388 0 LINE SMOOTH",
"436 0 OFFCURVE",
"473 32 QCURVE"
);
}
);
width = 1172;
}
);
note = q;
unicode = 0071;
},
{
glyphname = r;
lastChange = "2018-07-29 16:34:27 +0000";
layers = (
{
layerId = "44BDE90C-78B7-4A9A-A14D-6B569C2B6751";
paths = (
{
closed = 1;
nodes = (
"-1 690 OFFCURVE",
"17 683 OFFCURVE",
"45 640 OFFCURVE",
"54 601 QCURVE SMOOTH",
"199 -26 LINE",
"447 121 LINE",
"351 535 LINE",
"367 579 OFFCURVE",
"416 653 OFFCURVE",
"450 686 OFFCURVE",
"457 686 QCURVE SMOOTH",
"491 686 OFFCURVE",
"558 588 QCURVE SMOOTH",
"581 556 LINE",
"759 730 LINE",
"737 773 OFFCURVE",
"700 836 OFFCURVE",
"651 903 OFFCURVE",
"597 938 OFFCURVE",
"543 938 OFFCURVE",
"496 902 OFFCURVE",
"456 852 OFFCURVE",
"450 848 QCURVE",
"306 690 LINE",
"271 842 LINE SMOOTH",
"259 892 OFFCURVE",
"211 942 OFFCURVE",
"180 942 QCURVE SMOOTH",
"143 942 OFFCURVE",
"108 913 QCURVE",
"-171 722 LINE",
"-95 656 LINE",
"-44 690 OFFCURVE",
"-13 690 QCURVE SMOOTH"
);
}
);
width = 1004;
}
);
note = r;
unicode = 0072;
},
{
glyphname = s;
lastChange = "2018-07-29 16:34:27 +0000";
layers = (
{
layerId = "44BDE90C-78B7-4A9A-A14D-6B569C2B6751";
paths = (
{
closed = 1;
nodes = (
"260 938 OFFCURVE",
"121 878 OFFCURVE",
"-4 785 OFFCURVE",
"-90 657 OFFCURVE",
"-90 596 QCURVE SMOOTH",
"-90 577 OFFCURVE",
"-86 561 QCURVE SMOOTH",
"-75 512 OFFCURVE",
"43 447 OFFCURVE",
"199 408 OFFCURVE",
"355 366 OFFCURVE",
"477 283 OFFCURVE",
"491 220 QCURVE",
"491 211 LINE SMOOTH",
"491 188 OFFCURVE",
"441 159 OFFCURVE",
"402 159 QCURVE SMOOTH",
"362 159 OFFCURVE",
"290 184 OFFCURVE",
"245 216 OFFCURVE",
"210 255 OFFCURVE",
"196 276 OFFCURVE",
"194 280 QCURVE",
"200 284 LINE",
"206 287 OFFCURVE",
"218 297 OFFCURVE",
"219 300 QCURVE",
"259 326 LINE",
"181 391 LINE",
"162 376 LINE SMOOTH",
"157 372 OFFCURVE",
"80 310 OFFCURVE",
"37 269 OFFCURVE",
"-8 199 OFFCURVE",
"-8 167 QCURVE SMOOTH",
"-8 156 OFFCURVE",
"-5 144 QCURVE SMOOTH",
"10 77 OFFCURVE",
"149 0 OFFCURVE",
"246 0 QCURVE SMOOTH",
"317 0 OFFCURVE",
"476 62 OFFCURVE",
"604 158 OFFCURVE",
"689 285 OFFCURVE",
"689 346 QCURVE SMOOTH",
"689 366 OFFCURVE",
"685 382 QCURVE SMOOTH",
"671 442 OFFCURVE",
"550 514 OFFCURVE",
"394 547 OFFCURVE",
"237 580 OFFCURVE",
"117 649 OFFCURVE",
"104 706 QCURVE",
"104 707 OFFCURVE",
"103 711 OFFCURVE",
"103 713 QCURVE SMOOTH",
"103 730 OFFCURVE",
"126 761 OFFCURVE",
"152 761 QCURVE SMOOTH",
"193 761 OFFCURVE",
"304 715 OFFCURVE",
"356 661 QCURVE SMOOTH",
"383 632 LINE",
"403 653 LINE SMOOTH",
"425 676 OFFCURVE",
"504 734 OFFCURVE",
"544 777 OFFCURVE",
"544 804 QCURVE SMOOTH",
"544 812 LINE",
"533 860 OFFCURVE",
"393 936 OFFCURVE",
"313 938 QCURVE SMOOTH"
);
}
);
width = 882;
}
);
note = s;
unicode = 0073;
},
{
glyphname = t;
lastChange = "2018-07-29 16:34:27 +0000";
layers = (
{
layerId = "44BDE90C-78B7-4A9A-A14D-6B569C2B6751";
paths = (
{
closed = 1;
nodes = (
"534 0 OFFCURVE",
"673 103 OFFCURVE",
"710 175 QCURVE",
"660 276 LINE",
"633 241 LINE",
"606 199 OFFCURVE",
"567 198 QCURVE",
"507 212 OFFCURVE",
"493 267 QCURVE SMOOTH",
"351 882 LINE",
"458 878 LINE",
"489 903 OFFCURVE",
"533 962 OFFCURVE",
"553 1001 OFFCURVE",
"576 1052 QCURVE",
"593 1095 LINE",
"302 1095 LINE",
"220 1449 LINE",
"-28 1274 LINE",
"14 1092 LINE",
"-130 1092 LINE",
"-130 1086 LINE SMOOTH",
"-130 998 OFFCURVE",
"-187 912 QCURVE SMOOTH",
"-217 866 LINE",
"66 866 LINE",
"218 207 LINE SMOOTH",
"227 167 OFFCURVE",
"251 105 OFFCURVE",
"273 63 OFFCURVE",
"306 34 OFFCURVE",
"330 19 OFFCURVE",
"372 8 OFFCURVE",
"398 6 OFFCURVE",
"448 2 OFFCURVE",
"462 0 QCURVE",
"467 0 LINE SMOOTH"
);
}
);
width = 847;
}
);
note = t;
unicode = 0074;
},
{
glyphname = u;
lastChange = "2018-07-29 16:34:27 +0000";
layers = (
{
layerId = "44BDE90C-78B7-4A9A-A14D-6B569C2B6751";
paths = (
{
closed = 1;
nodes = (
"892 -65 LINE",
"1120 117 LINE",
"1057 295 OFFCURVE",
"996 559 QCURVE SMOOTH",
"901 981 LINE",
"706 795 LINE",
"713 766 OFFCURVE",
"713 723 QCURVE SMOOTH",
"713 636 OFFCURVE",
"657 443 OFFCURVE",
"552 301 OFFCURVE",
"493 301 QCURVE SMOOTH",
"465 301 OFFCURVE",
"407 362 OFFCURVE",
"361 450 OFFCURVE",
"311 579 OFFCURVE",
"278 686 OFFCURVE",
"237 818 OFFCURVE",
"226 848 QCURVE",
"204 938 OFFCURVE",
"138 938 QCURVE SMOOTH",
"105 938 OFFCURVE",
"71 912 QCURVE SMOOTH",
"-177 720 LINE",
"-103 656 LINE",
"-86 667 LINE SMOOTH",
"-51 689 OFFCURVE",
"-20 689 QCURVE SMOOTH",
"-3 689 OFFCURVE",
"18 682 OFFCURVE",
"47 642 OFFCURVE",
"61 603 QCURVE",
"90 538 OFFCURVE",
"154 350 OFFCURVE",
"200 208 OFFCURVE",
"256 73 OFFCURVE",
"324 0 OFFCURVE",
"364 0 QCURVE SMOOTH",
"435 0 OFFCURVE",
"561 67 OFFCURVE",
"645 161 OFFCURVE",
"717 295 OFFCURVE",
"756 398 OFFCURVE",
"772 455 QCURVE"
);
}
);
width = 1243;
}
);
note = u;
unicode = 0075;
},
{
glyphname = v;
lastChange = "2018-07-29 16:34:27 +0000";
layers = (
{
layerId = "44BDE90C-78B7-4A9A-A14D-6B569C2B6751";
paths = (
{
closed = 1;
nodes = (
"955 874 OFFCURVE",
"821 944 OFFCURVE",
"755 944 QCURVE SMOOTH",
"740 944 OFFCURVE",
"708 934 OFFCURVE",
"672 909 OFFCURVE",
"642 886 OFFCURVE",
"598 841 OFFCURVE",
"568 809 OFFCURVE",
"514 751 OFFCURVE",
"497 733 QCURVE SMOOTH",
"480 715 LINE",
"562 644 LINE",
"580 665 LINE SMOOTH",
"609 700 OFFCURVE",
"629 718 OFFCURVE",
"641 719 QCURVE",
"647 719 LINE SMOOTH",
"693 719 OFFCURVE",
"743 650 OFFCURVE",
"743 600 QCURVE SMOOTH",
"743 569 OFFCURVE",
"732 538 QCURVE",
"656 293 LINE",
"579 378 OFFCURVE",
"385 633 OFFCURVE",
"260 804 OFFCURVE",
"126 935 OFFCURVE",
"81 938 QCURVE",
"73 938 OFFCURVE",
"58 934 OFFCURVE",
"50 930 OFFCURVE",
"35 921 OFFCURVE",
"31 919 QCURVE",
"-207 788 LINE",
"-145 725 LINE",
"-126 738 LINE",
"-114 747 OFFCURVE",
"-98 747 QCURVE SMOOTH",
"-93 747 LINE",
"-2 683 OFFCURVE",
"168 519 OFFCURVE",
"326 323 OFFCURVE",
"455 139 OFFCURVE",
"531 19 QCURVE",
"542 0 LINE",
"632 0 LINE",
"635 5 OFFCURVE",
"705 149 OFFCURVE",
"770 285 OFFCURVE",
"859 481 OFFCURVE",
"924 636 OFFCURVE",
"970 775 OFFCURVE",
"970 805 QCURVE SMOOTH",
"970 813 OFFCURVE",
"969 816 QCURVE"
);
}
);
width = 1238;
}
);
note = v;
unicode = 0076;
},
{
glyphname = w;
lastChange = "2018-07-29 16:34:27 +0000";
layers = (
{
layerId = "44BDE90C-78B7-4A9A-A14D-6B569C2B6751";
paths = (
{
closed = 1;
nodes = (
"58 938 OFFCURVE",
"28 919 QCURVE",
"-209 788 LINE",
"-147 725 LINE",
"-128 738 LINE SMOOTH",
"-114 748 OFFCURVE",
"-101 748 QCURVE SMOOTH",
"-100 748 OFFCURVE",
"-98 748 QCURVE",
"-95 747 LINE",
"-91 743 LINE",
"53 706 OFFCURVE",
"247 419 QCURVE SMOOTH",
"330 297 OFFCURVE",
"495 3 QCURVE",
"567 3 LINE",
"621 149 OFFCURVE",
"721 460 OFFCURVE",
"764 587 OFFCURVE",
"779 597 QCURVE",
"835 593 OFFCURVE",
"1120 263 OFFCURVE",
"1272 -6 QCURVE",
"1365 -6 LINE",
"1418 135 OFFCURVE",
"1599 513 OFFCURVE",
"1714 759 OFFCURVE",
"1714 800 QCURVE SMOOTH",
"1714 807 OFFCURVE",
"1713 810 QCURVE",
"1700 868 OFFCURVE",
"1566 938 OFFCURVE",
"1499 938 QCURVE SMOOTH",
"1478 938 OFFCURVE",
"1436 920 OFFCURVE",
"1380 869 OFFCURVE",
"1348 837 OFFCURVE",
"1268 745 OFFCURVE",
"1252 727 QCURVE SMOOTH",
"1236 709 LINE",
"1316 638 LINE",
"1333 659 LINE",
"1359 694 OFFCURVE",
"1379 712 OFFCURVE",
"1390 713 QCURVE",
"1395 713 LINE SMOOTH",
"1439 713 OFFCURVE",
"1488 643 OFFCURVE",
"1488 592 QCURVE SMOOTH",
"1488 562 OFFCURVE",
"1479 532 QCURVE",
"1378 287 LINE",
"1324 357 OFFCURVE",
"1166 571 OFFCURVE",
"1074 692 OFFCURVE",
"964 821 OFFCURVE",
"881 879 OFFCURVE",
"846 879 QCURVE SMOOTH",
"843 879 LINE",
"819 878 OFFCURVE",
"781 849 OFFCURVE",
"747 785 OFFCURVE",
"723 725 OFFCURVE",
"682 619 OFFCURVE",
"667 584 QCURVE SMOOTH",
"565 338 LINE",
"518 403 OFFCURVE",
"386 600 OFFCURVE",
"294 735 OFFCURVE",
"193 869 OFFCURVE",
"108 938 OFFCURVE",
"75 938 QCURVE SMOOTH"
);
}
);
width = 1981;
}
);
note = w;
unicode = 0077;
},
{
glyphname = x;
lastChange = "2018-07-29 16:34:27 +0000";
layers = (
{
layerId = "44BDE90C-78B7-4A9A-A14D-6B569C2B6751";
paths = (
{
closed = 1;
nodes = (
"65 734 OFFCURVE",
"90 704 QCURVE",
"357 436 LINE",
"80 183 LINE",
"55 158 OFFCURVE",
"55 132 QCURVE SMOOTH",
"55 124 OFFCURVE",
"57 118 QCURVE",
"78 27 OFFCURVE",
"328 10 QCURVE",
"512 135 LINE",
"391 186 LINE",
"327 229 OFFCURVE",
"327 265 QCURVE SMOOTH",
"327 276 OFFCURVE",
"336 298 OFFCURVE",
"357 324 OFFCURVE",
"374 343 OFFCURVE",
"410 380 OFFCURVE",
"420 390 QCURVE",
"739 41 LINE SMOOTH",
"784 -6 OFFCURVE",
"845 -6 QCURVE SMOOTH",
"878 -6 OFFCURVE",
"960 48 OFFCURVE",
"1076 145 QCURVE",
"1031 227 LINE",
"982 174 LINE",
"979 174 LINE SMOOTH",
"956 174 OFFCURVE",
"879 217 OFFCURVE",
"841 255 QCURVE SMOOTH",
"578 528 LINE",
"838 778 LINE",
"870 803 OFFCURVE",
"870 826 QCURVE SMOOTH",
"870 835 OFFCURVE",
"869 839 QCURVE SMOOTH",
"861 874 OFFCURVE",
"792 910 QCURVE",
"655 963 LINE",
"507 824 LINE",
"540 803 LINE SMOOTH",
"632 746 OFFCURVE",
"632 709 QCURVE SMOOTH",
"632 692 OFFCURVE",
"614 670 QCURVE SMOOTH",
"600 653 OFFCURVE",
"516 582 QCURVE",
"257 879 LINE SMOOTH",
"204 938 OFFCURVE",
"164 938 QCURVE SMOOTH",
"140 938 OFFCURVE",
"116 924 QCURVE SMOOTH",
"-161 754 LINE",
"-98 697 LINE",
"-90 701 LINE",
"-83 705 OFFCURVE",
"-70 712 OFFCURVE",
"-46 722 OFFCURVE",
"-24 729 OFFCURVE",
"4 734 OFFCURVE",
"17 734 QCURVE SMOOTH"
);
}
);
width = 1197;
}
);
note = x;
unicode = 0078;
},
{
glyphname = y;
lastChange = "2018-07-29 16:34:27 +0000";
layers = (
{
layerId = "44BDE90C-78B7-4A9A-A14D-6B569C2B6751";
paths = (
{
closed = 1;
nodes = (
"881 -234 LINE",
"881 -240 LINE SMOOTH",
"881 -263 OFFCURVE",
"803 -306 OFFCURVE",
"744 -319 QCURVE",
"721 -323 LINE",
"746 -431 LINE",
"779 -427 LINE",
"804 -423 OFFCURVE",
"902 -414 OFFCURVE",
"971 -406 OFFCURVE",
"1056 -387 OFFCURVE",
"1110 -361 OFFCURVE",
"1147 -313 OFFCURVE",
"1147 -281 QCURVE SMOOTH",
"1147 -265 OFFCURVE",
"1143 -250 QCURVE",
"1136 -219 OFFCURVE",
"1040 141 OFFCURVE",
"1003 302 QCURVE SMOOTH",
"850 976 LINE",
"657 790 LINE",
"664 759 OFFCURVE",
"664 717 QCURVE SMOOTH",
"664 634 OFFCURVE",
"612 438 OFFCURVE",
"530 299 OFFCURVE",
"492 296 QCURVE",
"458 296 OFFCURVE",
"392 374 OFFCURVE",
"332 514 OFFCURVE",
"288 641 OFFCURVE",
"235 811 OFFCURVE",
"224 843 QCURVE",
"212 896 OFFCURVE",
"182 918 QCURVE SMOOTH",
"159 935 OFFCURVE",
"135 935 QCURVE SMOOTH",
"109 935 OFFCURVE",
"69 907 QCURVE",
"-180 715 LINE",
"-106 650 LINE",
"-89 662 LINE",
"-54 684 OFFCURVE",
"-23 684 QCURVE SMOOTH",
"-6 684 OFFCURVE",
"15 677 OFFCURVE",
"44 637 OFFCURVE",
"58 598 QCURVE",
"88 532 OFFCURVE",
"151 344 OFFCURVE",
"196 202 OFFCURVE",
"251 68 OFFCURVE",
"320 -5 OFFCURVE",
"362 -5 QCURVE SMOOTH",
"441 -5 OFFCURVE",
"570 66 OFFCURVE",
"656 191 OFFCURVE",
"712 333 OFFCURVE",
"729 418 QCURVE"
);
}
);
width = 1196;
}
);
note = y;
unicode = 0079;
},
{
glyphname = z;
lastChange = "2018-07-29 16:34:27 +0000";
layers = (
{
layerId = "44BDE90C-78B7-4A9A-A14D-6B569C2B6751";
paths = (
{
closed = 1;
nodes = (
"63 258 LINE SMOOTH",
"60 252 OFFCURVE",
"33 205 OFFCURVE",
"20 168 OFFCURVE",
"18 143 QCURVE SMOOTH",
"17 131 OFFCURVE",
"22 109 QCURVE SMOOTH",
"37 44 OFFCURVE",
"221 0 OFFCURVE",
"422 0 QCURVE SMOOTH",
"574 0 LINE",
"799 256 LINE",
"737 256 LINE SMOOTH",
"708 256 OFFCURVE",
"551 245 OFFCURVE",
"485 245 QCURVE SMOOTH",
"404 245 OFFCURVE",
"287 285 OFFCURVE",
"280 317 QCURVE",
"279 320 OFFCURVE",
"279 328 QCURVE SMOOTH",
"279 356 OFFCURVE",
"303 402 QCURVE",
"330 485 OFFCURVE",
"418 649 OFFCURVE",
"566 874 OFFCURVE",
"591 916 QCURVE",
"622 974 LINE",
"554 959 LINE SMOOTH",
"397 927 OFFCURVE",
"209 927 QCURVE SMOOTH",
"145 927 OFFCURVE",
"86 964 OFFCURVE",
"75 1010 QCURVE SMOOTH",
"62 1064 LINE",
"22 1033 LINE SMOOTH",
"-144 896 OFFCURVE",
"-144 794 QCURVE SMOOTH",
"-144 779 OFFCURVE",
"-141 764 QCURVE SMOOTH",
"-126 698 OFFCURVE",
"-37 698 QCURVE SMOOTH",
"299 698 LINE"
);
}
);
width = 902;
}
);
note = z;
unicode = 007A;
},
{
glyphname = braceleft;
lastChange = "2018-07-29 16:34:27 +0000";
layers = (
{
layerId = "44BDE90C-78B7-4A9A-A14D-6B569C2B6751";
paths = (
{
closed = 1;
nodes = (
"468 -92 OFFCURVE",
"399 -20 OFFCURVE",
"378 68 QCURVE SMOOTH",
"310 362 LINE SMOOTH",
"268 548 OFFCURVE",
"61 616 QCURVE",
"128 638 OFFCURVE",
"172 691 QCURVE SMOOTH",
"204 727 OFFCURVE",
"204 788 QCURVE SMOOTH",
"204 821 OFFCURVE",
"194 866 QCURVE SMOOTH",
"126 1161 LINE SMOOTH",
"116 1202 OFFCURVE",
"116 1234 QCURVE SMOOTH",
"116 1320 OFFCURVE",
"193 1320 QCURVE SMOOTH",
"305 1320 LINE",
"270 1472 LINE",
"72 1472 LINE SMOOTH",
"2 1472 OFFCURVE",
"-117 1370 OFFCURVE",
"-117 1272 QCURVE SMOOTH",
"-117 1238 OFFCURVE",
"-108 1196 QCURVE SMOOTH",
"-37 889 LINE SMOOTH",
"-31 862 OFFCURVE",
"-31 840 QCURVE SMOOTH",
"-31 778 OFFCURVE",
"-105 706 OFFCURVE",
"-154 698 QCURVE SMOOTH",
"-176 695 LINE",
"-139 534 LINE",
"-117 531 LINE SMOOTH",
"-52 521 OFFCURVE",
"71 423 OFFCURVE",
"90 340 QCURVE SMOOTH",
"160 33 LINE SMOOTH",
"177 -38 OFFCURVE",
"254 -150 OFFCURVE",
"346 -212 OFFCURVE",
"433 -244 OFFCURVE",
"468 -244 QCURVE SMOOTH",
"666 -244 LINE",
"631 -92 LINE",
"519 -92 LINE SMOOTH"
);
}
);
width = 716;
}
);
note = braceleft;
unicode = 007B;
},
{
glyphname = bar;
lastChange = "2018-07-29 16:34:27 +0000";
layers = (
{
layerId = "44BDE90C-78B7-4A9A-A14D-6B569C2B6751";
paths = (
{
closed = 1;
nodes = (
"-94 1488 LINE",
"-276 1488 LINE",
"74 -28 LINE",
"256 -28 LINE"
);
}
);
width = 357;
}
);
note = bar;
unicode = 007C;
},
{
glyphname = braceright;
lastChange = "2018-07-29 16:34:27 +0000";
layers = (
{
layerId = "44BDE90C-78B7-4A9A-A14D-6B569C2B6751";
paths = (
{
closed = 1;
nodes = (
"301 702 OFFCURVE",
"180 804 OFFCURVE",
"161 889 QCURVE SMOOTH",
"90 1196 LINE SMOOTH",
"74 1265 OFFCURVE",
"-1 1373 OFFCURVE",
"-90 1432 OFFCURVE",
"-174 1462 OFFCURVE",
"-207 1462 QCURVE SMOOTH",
"-394 1462 LINE",
"-363 1330 LINE",
"-262 1330 LINE SMOOTH",
"-207 1330 OFFCURVE",
"-131 1253 OFFCURVE",
"-110 1161 QCURVE SMOOTH",
"-42 866 LINE SMOOTH",
"-18 765 OFFCURVE",
"110 651 OFFCURVE",
"208 619 QCURVE SMOOTH",
"233 611 LINE",
"210 605 LINE",
"139 583 OFFCURVE",
"95 531 QCURVE SMOOTH",
"65 497 OFFCURVE",
"65 437 QCURVE SMOOTH",
"65 401 OFFCURVE",
"74 362 QCURVE SMOOTH",
"142 68 LINE SMOOTH",
"152 24 OFFCURVE",
"152 -9 QCURVE SMOOTH",
"152 -102 OFFCURVE",
"69 -102 QCURVE SMOOTH",
"-32 -102 LINE",
"0 -234 LINE",
"185 -234 LINE SMOOTH",
"214 -234 OFFCURVE",
"274 -212 OFFCURVE",
"331 -168 OFFCURVE",
"367 -90 OFFCURVE",
"367 -40 QCURVE SMOOTH",
"367 -7 OFFCURVE",
"358 33 QCURVE SMOOTH",
"288 340 LINE SMOOTH",
"282 368 OFFCURVE",
"282 393 QCURVE SMOOTH",
"282 455 OFFCURVE",
"353 530 OFFCURVE",
"402 540 QCURVE SMOOTH",
"424 544 LINE",
"392 686 LINE",
"368 690 LINE SMOOTH"
);
}
);
width = 631;
}
);
note = braceright;
unicode = 007D;
},
{
glyphname = asciitilde;
lastChange = "2018-07-29 16:34:27 +0000";
layers = (
{
layerId = "44BDE90C-78B7-4A9A-A14D-6B569C2B6751";
paths = (
{
closed = 1;
nodes = (
"-86 358 LINE",
"-66 396 LINE SMOOTH",
"-37 453 OFFCURVE",
"22 496 OFFCURVE",
"61 496 QCURVE SMOOTH",
"112 496 OFFCURVE",
"275 427 OFFCURVE",
"456 358 OFFCURVE",
"529 358 QCURVE SMOOTH",
"611 358 OFFCURVE",
"710 433 OFFCURVE",
"738 526 QCURVE",
"638 679 LINE",
"618 640 LINE SMOOTH",
"588 583 OFFCURVE",
"529 540 OFFCURVE",
"490 540 QCURVE SMOOTH",
"438 540 OFFCURVE",
"276 609 OFFCURVE",
"95 678 OFFCURVE",
"21 678 QCURVE SMOOTH",
"-61 678 OFFCURVE",
"-158 603 OFFCURVE",
"-188 509 QCURVE"
);
}
);
width = 938;
}
);
note = asciitilde;
unicode = 007E;
},
{
glyphname = sheva;
lastChange = "2018-07-29 16:34:27 +0000";
layers = (
{
layerId = "44BDE90C-78B7-4A9A-A14D-6B569C2B6751";
paths = (
{
closed = 1;
nodes = (
"173 -588 OFFCURVE",
"211 -544 OFFCURVE",
"211 -509 QCURVE SMOOTH",
"211 -458 OFFCURVE",
"139 -369 OFFCURVE",
"85 -369 QCURVE SMOOTH",
"48 -369 OFFCURVE",
"10 -413 OFFCURVE",
"10 -448 QCURVE SMOOTH",
"10 -499 OFFCURVE",
"82 -588 OFFCURVE",
"136 -588 QCURVE SMOOTH"
);
},
{
closed = 1;
nodes = (
"115 -334 OFFCURVE",
"153 -290 OFFCURVE",
"153 -255 QCURVE SMOOTH",
"153 -204 OFFCURVE",
"81 -115 OFFCURVE",
"27 -115 QCURVE SMOOTH",
"-11 -115 OFFCURVE",
"-49 -159 OFFCURVE",
"-49 -194 QCURVE SMOOTH",
"-49 -245 OFFCURVE",
"23 -334 OFFCURVE",
"77 -334 QCURVE SMOOTH"
);
}
);
width = 0;
}
);
note = sheva;
unicode = 05B0;
},
{
glyphname = hatafsegol;
lastChange = "2018-07-29 16:34:27 +0000";
layers = (
{
layerId = "44BDE90C-78B7-4A9A-A14D-6B569C2B6751";
paths = (
{
closed = 1;
nodes = (
"408 -587 OFFCURVE",
"446 -543 OFFCURVE",
"446 -509 QCURVE SMOOTH",
"446 -458 OFFCURVE",
"374 -368 OFFCURVE",
"320 -368 QCURVE SMOOTH",
"283 -368 OFFCURVE",
"245 -412 OFFCURVE",
"245 -447 QCURVE SMOOTH",
"245 -498 OFFCURVE",
"317 -587 OFFCURVE",
"371 -587 QCURVE SMOOTH"
);
},
{
closed = 1;
nodes = (
"349 -333 OFFCURVE",
"387 -289 OFFCURVE",
"387 -255 QCURVE SMOOTH",
"387 -204 OFFCURVE",
"315 -114 OFFCURVE",
"261 -114 QCURVE SMOOTH",
"224 -114 OFFCURVE",
"186 -158 OFFCURVE",
"186 -193 QCURVE SMOOTH",
"186 -244 OFFCURVE",
"258 -333 OFFCURVE",
"312 -333 QCURVE SMOOTH"
);
},
{
closed = 1;
nodes = (
"-8 -114 OFFCURVE",
"-46 -158 OFFCURVE",
"-46 -193 QCURVE SMOOTH",
"-46 -244 OFFCURVE",
"26 -333 OFFCURVE",
"80 -333 QCURVE SMOOTH",
"117 -333 OFFCURVE",
"155 -289 OFFCURVE",
"155 -255 QCURVE SMOOTH",
"155 -204 OFFCURVE",
"83 -114 OFFCURVE",
"29 -114 QCURVE SMOOTH"
);
},
{
closed = 1;
nodes = (
"-68 -368 OFFCURVE",
"-105 -412 OFFCURVE",
"-105 -446 QCURVE SMOOTH",
"-105 -497 OFFCURVE",
"-34 -587 OFFCURVE",
"20 -587 QCURVE SMOOTH",
"58 -587 OFFCURVE",
"95 -543 OFFCURVE",
"95 -509 QCURVE SMOOTH",
"95 -458 OFFCURVE",
"23 -368 OFFCURVE",
"-31 -368 QCURVE SMOOTH"
);
},
{
closed = 1;
nodes = (
"-244 -114 OFFCURVE",
"-281 -158 OFFCURVE",
"-281 -192 QCURVE SMOOTH",
"-281 -243 OFFCURVE",
"-211 -333 OFFCURVE",
"-157 -333 QCURVE SMOOTH",
"-119 -333 OFFCURVE",
"-81 -289 OFFCURVE",
"-81 -254 QCURVE SMOOTH",
"-81 -203 OFFCURVE",
"-153 -114 OFFCURVE",
"-208 -114 QCURVE SMOOTH"
);
}
);
width = 0;
}
);
note = hatafsegol;
unicode = 05B1;
},
{
glyphname = hatafpatah;
lastChange = "2018-07-29 16:34:27 +0000";
layers = (
{
layerId = "44BDE90C-78B7-4A9A-A14D-6B569C2B6751";
paths = (
{
closed = 1;
nodes = (
"94 -139 LINE",
"-258 -139 LINE",
"-224 -288 LINE",
"128 -288 LINE"
);
},
{
closed = 1;
nodes = (
"374 -587 OFFCURVE",
"412 -543 OFFCURVE",
"412 -508 QCURVE SMOOTH",
"412 -457 OFFCURVE",
"340 -368 OFFCURVE",
"286 -368 QCURVE SMOOTH",
"249 -368 OFFCURVE",
"211 -412 OFFCURVE",
"211 -446 QCURVE SMOOTH",
"211 -497 OFFCURVE",
"283 -587 OFFCURVE",
"337 -587 QCURVE SMOOTH"
);
},
{
closed = 1;
nodes = (
"315 -333 OFFCURVE",
"353 -289 OFFCURVE",
"353 -254 QCURVE SMOOTH",
"353 -203 OFFCURVE",
"281 -114 OFFCURVE",
"227 -114 QCURVE SMOOTH",
"190 -114 OFFCURVE",
"153 -158 OFFCURVE",
"153 -192 QCURVE SMOOTH",
"153 -243 OFFCURVE",
"224 -333 OFFCURVE",
"278 -333 QCURVE SMOOTH"
);
}
);
width = 0;
}
);
note = hatafpatah;
unicode = 05B2;
},
{
glyphname = hatafqamats;
lastChange = "2018-07-29 16:34:27 +0000";
layers = (
{
layerId = "44BDE90C-78B7-4A9A-A14D-6B569C2B6751";
paths = (
{
closed = 1;
nodes = (
"-111 -471 LINE",
"-49 -587 OFFCURVE",
"8 -587 QCURVE SMOOTH",
"13 -587 LINE SMOOTH",
"28 -587 OFFCURVE",
"47 -581 QCURVE",
"79 -540 OFFCURVE",
"88 -472 QCURVE",
"25 -373 LINE SMOOTH",
"7 -344 OFFCURVE",
"-8 -288 QCURVE",
"120 -288 LINE",
"86 -139 LINE",
"-264 -139 LINE",
"-230 -288 LINE",
"-104 -288 LINE",
"-93 -339 OFFCURVE",
"-93 -363 QCURVE SMOOTH",
"-93 -365 OFFCURVE",
"-94 -371 OFFCURVE",
"-94 -372 QCURVE"
);
},
{
closed = 1;
nodes = (
"367 -587 OFFCURVE",
"405 -543 OFFCURVE",
"405 -508 QCURVE SMOOTH",
"405 -457 OFFCURVE",
"333 -368 OFFCURVE",
"279 -368 QCURVE SMOOTH",
"242 -368 OFFCURVE",
"205 -412 OFFCURVE",
"205 -446 QCURVE SMOOTH",
"205 -497 OFFCURVE",
"276 -587 OFFCURVE",
"330 -587 QCURVE SMOOTH"
);
},
{
closed = 1;
nodes = (
"309 -333 OFFCURVE",
"347 -289 OFFCURVE",
"347 -254 QCURVE SMOOTH",
"347 -203 OFFCURVE",
"275 -114 OFFCURVE",
"220 -114 QCURVE SMOOTH",
"184 -114 OFFCURVE",
"147 -158 OFFCURVE",
"147 -192 QCURVE SMOOTH",
"147 -243 OFFCURVE",
"217 -333 OFFCURVE",
"271 -333 QCURVE SMOOTH"
);
}
);
width = 0;
}
);
note = hatafqamats;
unicode = 05B3;
},
{
glyphname = hiriq;
lastChange = "2018-07-29 16:34:27 +0000";
layers = (
{
layerId = "44BDE90C-78B7-4A9A-A14D-6B569C2B6751";
paths = (
{
closed = 1;
nodes = (
"115 -334 OFFCURVE",
"153 -290 OFFCURVE",
"153 -255 QCURVE SMOOTH",
"153 -204 OFFCURVE",
"81 -115 OFFCURVE",
"27 -115 QCURVE SMOOTH",
"-11 -115 OFFCURVE",
"-49 -159 OFFCURVE",
"-49 -194 QCURVE SMOOTH",
"-49 -245 OFFCURVE",
"23 -334 OFFCURVE",
"77 -334 QCURVE SMOOTH"
);
}
);
width = 0;
}
);
note = hiriq;
unicode = 05B4;
},
{
glyphname = tsere;
lastChange = "2018-07-29 16:34:27 +0000";
layers = (
{
layerId = "44BDE90C-78B7-4A9A-A14D-6B569C2B6751";
paths = (
{
closed = 1;
nodes = (
"97 -114 OFFCURVE",
"59 -158 OFFCURVE",
"59 -193 QCURVE SMOOTH",
"59 -244 OFFCURVE",
"131 -333 OFFCURVE",
"185 -333 QCURVE SMOOTH",
"223 -333 OFFCURVE",
"261 -289 OFFCURVE",
"261 -254 QCURVE SMOOTH",
"261 -203 OFFCURVE",
"189 -114 OFFCURVE",
"134 -114 QCURVE SMOOTH"
);
},
{
closed = 1;
nodes = (
"-119 -114 OFFCURVE",
"-157 -158 OFFCURVE",
"-157 -193 QCURVE SMOOTH",
"-157 -244 OFFCURVE",
"-85 -333 OFFCURVE",
"-31 -333 QCURVE SMOOTH",
"7 -333 OFFCURVE",
"45 -289 OFFCURVE",
"45 -254 QCURVE SMOOTH",
"45 -203 OFFCURVE",
"-27 -114 OFFCURVE",
"-82 -114 QCURVE SMOOTH"
);
}
);
width = 0;
}
);
note = tsere;
unicode = 05B5;
},
{
glyphname = segol;
lastChange = "2018-07-29 16:34:27 +0000";
layers = (
{
layerId = "44BDE90C-78B7-4A9A-A14D-6B569C2B6751";
paths = (
{
closed = 1;
nodes = (
"107 -114 OFFCURVE",
"69 -158 OFFCURVE",
"69 -193 QCURVE SMOOTH",
"69 -244 OFFCURVE",
"141 -333 OFFCURVE",
"195 -333 QCURVE SMOOTH",
"233 -333 OFFCURVE",
"271 -289 OFFCURVE",
"271 -254 QCURVE SMOOTH",
"271 -203 OFFCURVE",
"199 -114 OFFCURVE",
"144 -114 QCURVE SMOOTH"
);
},
{
closed = 1;
nodes = (
"45 -358 OFFCURVE",
"7 -402 OFFCURVE",
"7 -437 QCURVE SMOOTH",
"7 -488 OFFCURVE",
"79 -577 OFFCURVE",
"133 -577 QCURVE SMOOTH",
"171 -577 OFFCURVE",
"209 -533 OFFCURVE",
"209 -498 QCURVE SMOOTH",
"209 -447 OFFCURVE",
"137 -358 OFFCURVE",
"83 -358 QCURVE SMOOTH"
);
},
{
closed = 1;
nodes = (
"-129 -114 OFFCURVE",
"-167 -158 OFFCURVE",
"-167 -193 QCURVE SMOOTH",
"-167 -244 OFFCURVE",
"-95 -333 OFFCURVE",
"-41 -333 QCURVE SMOOTH",
"-3 -333 OFFCURVE",
"35 -289 OFFCURVE",
"35 -254 QCURVE SMOOTH",
"35 -203 OFFCURVE",
"-37 -114 OFFCURVE",
"-92 -114 QCURVE SMOOTH"
);
}
);
width = 0;
}
);
note = segol;
unicode = 05B6;
},
{
glyphname = patah;
lastChange = "2018-07-29 16:34:27 +0000";
layers = (
{
layerId = "44BDE90C-78B7-4A9A-A14D-6B569C2B6751";
paths = (
{
closed = 1;
nodes = (
"205 -115 LINE",
"-149 -115 LINE",
"-115 -264 LINE",
"239 -264 LINE"
);
}
);
width = 0;
}
);
note = patah;
unicode = 05B7;
},
{
glyphname = qamats;
lastChange = "2018-07-29 16:34:27 +0000";
layers = (
{
layerId = "44BDE90C-78B7-4A9A-A14D-6B569C2B6751";
paths = (
{
closed = 1;
nodes = (
"11 -472 LINE",
"34 -512 OFFCURVE",
"72 -562 OFFCURVE",
"103 -582 OFFCURVE",
"120 -587 OFFCURVE",
"133 -587 QCURVE SMOOTH",
"136 -587 LINE SMOOTH",
"144 -587 OFFCURVE",
"166 -583 OFFCURVE",
"169 -583 QCURVE",
"171 -580 OFFCURVE",
"183 -562 OFFCURVE",
"190 -548 OFFCURVE",
"200 -525 OFFCURVE",
"207 -492 OFFCURVE",
"208 -472 QCURVE",
"146 -373 LINE",
"126 -337 OFFCURVE",
"114 -288 QCURVE",
"242 -288 LINE",
"208 -139 LINE",
"-144 -139 LINE",
"-110 -288 LINE",
"18 -288 LINE",
"27 -323 OFFCURVE",
"27 -365 QCURVE SMOOTH",
"27 -371 OFFCURVE",
"27 -371 QCURVE"
);
}
);
width = 0;
}
);
note = qamats;
unicode = 05B8;
},
{
glyphname = holam;
lastChange = "2018-07-29 16:34:27 +0000";
layers = (
{
layerId = "44BDE90C-78B7-4A9A-A14D-6B569C2B6751";
paths = (
{
closed = 1;
nodes = (
"-231 1164 OFFCURVE",
"-193 1208 OFFCURVE",
"-193 1243 QCURVE SMOOTH",
"-193 1294 OFFCURVE",
"-265 1383 OFFCURVE",
"-319 1383 QCURVE SMOOTH",
"-357 1383 OFFCURVE",
"-395 1339 OFFCURVE",
"-395 1304 QCURVE SMOOTH",
"-395 1253 OFFCURVE",
"-323 1164 OFFCURVE",
"-269 1164 QCURVE SMOOTH"
);
}
);
width = 0;
}
);
note = holam;
unicode = 05B9;
},
{
glyphname = qubuts;
lastChange = "2018-07-29 16:34:27 +0000";
layers = (
{
layerId = "44BDE90C-78B7-4A9A-A14D-6B569C2B6751";
paths = (
{
closed = 1;
nodes = (
"-47 -323 OFFCURVE",
"-9 -280 OFFCURVE",
"-9 -246 QCURVE SMOOTH",
"-9 -196 OFFCURVE",
"-80 -109 OFFCURVE",
"-133 -109 QCURVE SMOOTH",
"-169 -109 OFFCURVE",
"-205 -152 OFFCURVE",
"-205 -185 QCURVE SMOOTH",
"-205 -235 OFFCURVE",
"-135 -323 OFFCURVE",
"-83 -323 QCURVE SMOOTH"
);
},
{
closed = 1;
nodes = (
"329 -591 OFFCURVE",
"367 -548 OFFCURVE",
"367 -514 QCURVE SMOOTH",
"367 -464 OFFCURVE",
"296 -377 OFFCURVE",
"244 -377 QCURVE SMOOTH",
"208 -377 OFFCURVE",
"171 -420 OFFCURVE",
"171 -454 QCURVE SMOOTH",
"171 -504 OFFCURVE",
"241 -591 OFFCURVE",
"293 -591 QCURVE SMOOTH"
);
},
{
closed = 1;
nodes = (
"142 -457 OFFCURVE",
"180 -414 OFFCURVE",
"180 -380 QCURVE SMOOTH",
"180 -330 OFFCURVE",
"109 -243 OFFCURVE",
"56 -243 QCURVE SMOOTH",
"20 -243 OFFCURVE",
"-16 -286 OFFCURVE",
"-16 -319 QCURVE SMOOTH",
"-16 -369 OFFCURVE",
"54 -457 OFFCURVE",
"106 -457 QCURVE SMOOTH"
);
}
);
width = 0;
}
);
note = qubuts;
unicode = 05BB;
},
{
glyphname = dagesh;
lastChange = "2018-07-29 16:34:27 +0000";
layers = (
{
layerId = "44BDE90C-78B7-4A9A-A14D-6B569C2B6751";
paths = (
{
closed = 1;
nodes = (
"-64 421 OFFCURVE",
"-29 461 OFFCURVE",
"-29 492 QCURVE SMOOTH",
"-29 538 OFFCURVE",
"-93 617 OFFCURVE",
"-142 617 QCURVE SMOOTH",
"-176 617 OFFCURVE",
"-210 577 OFFCURVE",
"-210 546 QCURVE SMOOTH",
"-210 500 OFFCURVE",
"-146 421 OFFCURVE",
"-97 421 QCURVE SMOOTH"
);
}
);
width = 0;
}
);
note = dagesh;
unicode = 05BC;
},
{
glyphname = meteg;
lastChange = "2018-07-29 16:34:27 +0000";
layers = (
{
layerId = "44BDE90C-78B7-4A9A-A14D-6B569C2B6751";
paths = (
{
closed = 1;
nodes = (
"105 -135 LINE",
"-43 -135 LINE",
"49 -534 LINE",
"197 -534 LINE"
);
}
);
width = 0;
}
);
note = meteg;
unicode = 05BD;
},
{
glyphname = maqaf;
lastChange = "2018-07-29 16:34:27 +0000";
layers = (
{
layerId = "44BDE90C-78B7-4A9A-A14D-6B569C2B6751";
paths = (
{
closed = 1;
nodes = (
"-108 1078 LINE",
"-166 968 OFFCURVE",
"-166 906 QCURVE SMOOTH",
"-166 887 LINE",
"-162 872 OFFCURVE",
"-149 846 OFFCURVE",
"-134 829 OFFCURVE",
"-114 815 OFFCURVE",
"-97 808 OFFCURVE",
"-79 803 OFFCURVE",
"-67 801 OFFCURVE",
"-62 800 QCURVE",
"-57 800 LINE",
"331 800 LINE",
"389 873 OFFCURVE",
"402 953 QCURVE",
"411 979 OFFCURVE",
"405 1005 QCURVE SMOOTH",
"400 1025 OFFCURVE",
"375 1055 OFFCURVE",
"350 1069 OFFCURVE",
"320 1077 OFFCURVE",
"308 1078 OFFCURVE",
"305 1078 QCURVE SMOOTH"
);
}
);
width = 686;
}
);
note = maqaf;
unicode = 05BE;
},
{
glyphname = rafe;
lastChange = "2018-07-29 16:34:27 +0000";
layers = (
{
layerId = "44BDE90C-78B7-4A9A-A14D-6B569C2B6751";
paths = (
{
closed = 1;
nodes = (
"-82 1318 LINE",
"-526 1318 LINE",
"-492 1169 LINE",
"-48 1169 LINE"
);
}
);
width = 0;
}
);
note = rafe;
unicode = 05BF;
},
{
glyphname = paseq;
lastChange = "2018-07-29 16:34:27 +0000";
layers = (
{
layerId = "44BDE90C-78B7-4A9A-A14D-6B569C2B6751";
paths = (
{
closed = 1;
nodes = (
"101 1230 LINE",
"-77 1230 LINE",
"245 -163 LINE",
"423 -163 LINE"
);
}
);
width = 644;
}
);
note = paseq;
unicode = 05C0;
},
{
glyphname = shindot;
lastChange = "2018-07-29 16:34:27 +0000";
layers = (
{
layerId = "44BDE90C-78B7-4A9A-A14D-6B569C2B6751";
paths = (
{
closed = 1;
nodes = (
"-230 1161 OFFCURVE",
"-192 1205 OFFCURVE",
"-192 1240 QCURVE SMOOTH",
"-192 1291 OFFCURVE",
"-264 1380 OFFCURVE",
"-319 1380 QCURVE SMOOTH",
"-356 1380 OFFCURVE",
"-394 1336 OFFCURVE",
"-394 1301 QCURVE SMOOTH",
"-394 1250 OFFCURVE",
"-322 1161 OFFCURVE",
"-268 1161 QCURVE SMOOTH"
);
}
);
width = 0;
}
);
note = shindot;
unicode = 05C1;
},
{
glyphname = sindot;
lastChange = "2018-07-29 16:34:27 +0000";
layers = (
{
layerId = "44BDE90C-78B7-4A9A-A14D-6B569C2B6751";
paths = (
{
closed = 1;
nodes = (
"-230 1160 OFFCURVE",
"-192 1204 OFFCURVE",
"-192 1239 QCURVE SMOOTH",
"-192 1290 OFFCURVE",
"-264 1379 OFFCURVE",
"-318 1379 QCURVE SMOOTH",
"-355 1379 OFFCURVE",
"-393 1335 OFFCURVE",
"-393 1300 QCURVE SMOOTH",
"-393 1249 OFFCURVE",
"-322 1160 OFFCURVE",
"-268 1160 QCURVE SMOOTH"
);
}
);
width = 0;
}
);
note = sindot;
unicode = 05C2;
},
{
glyphname = sofpasuq;
lastChange = "2018-07-29 16:34:27 +0000";
layers = (
{
layerId = "44BDE90C-78B7-4A9A-A14D-6B569C2B6751";
paths = (
{
closed = 1;
nodes = (
"60 179 LINE",
"53 165 OFFCURVE",
"53 157 QCURVE",
"56 103 OFFCURVE",
"181 -21 OFFCURVE",
"230 -21 QCURVE SMOOTH",
"242 -21 OFFCURVE",
"255 -16 QCURVE",
"414 111 LINE",
"266 216 OFFCURVE",
"211 324 QCURVE"
);
},
{
closed = 1;
nodes = (
"-96 852 LINE",
"-103 835 OFFCURVE",
"-103 830 QCURVE",
"-99 776 OFFCURVE",
"25 652 OFFCURVE",
"74 652 QCURVE SMOOTH",
"87 652 OFFCURVE",
"99 657 QCURVE",
"259 784 LINE",
"110 888 OFFCURVE",
"56 997 QCURVE"
);
}
);
width = 545;
}
);
note = sofpasuq;
unicode = 05C3;
},
{
glyphname = invertednun;
lastChange = "2018-07-29 16:34:27 +0000";
layers = (
{
layerId = "44BDE90C-78B7-4A9A-A14D-6B569C2B6751";
paths = (
{
closed = 1;
nodes = (
"-15 1089 OFFCURVE",
"-26 1084 QCURVE",
"-38 1048 LINE",
"-41 1032 OFFCURVE",
"-41 1015 QCURVE SMOOTH",
"-41 981 OFFCURVE",
"-16 868 OFFCURVE",
"-15 855 QCURVE",
"-4 806 LINE SMOOTH",
"-2 798 OFFCURVE",
"66 781 OFFCURVE",
"103 781 QCURVE SMOOTH",
"115 781 LINE",
"103 706 OFFCURVE",
"103 699 QCURVE SMOOTH",
"103 685 LINE",
"120 611 OFFCURVE",
"120 533 QCURVE SMOOTH",
"120 482 OFFCURVE",
"103 287 OFFCURVE",
"103 240 QCURVE SMOOTH",
"103 224 LINE",
"108 202 OFFCURVE",
"166 104 OFFCURVE",
"187 82 QCURVE",
"189 75 LINE",
"234 51 OFFCURVE",
"330 13 OFFCURVE",
"438 -14 OFFCURVE",
"510 -29 OFFCURVE",
"634 -51 OFFCURVE",
"658 -56 QCURVE",
"669 -30 OFFCURVE",
"669 7 QCURVE SMOOTH",
"669 65 OFFCURVE",
"616 188 OFFCURVE",
"577 223 QCURVE",
"556 223 LINE SMOOTH",
"458 223 OFFCURVE",
"345 278 QCURVE",
"321 381 LINE",
"315 442 OFFCURVE",
"297 515 QCURVE SMOOTH",
"287 557 LINE SMOOTH",
"260 678 OFFCURVE",
"259 769 QCURVE",
"293 796 OFFCURVE",
"334 812 OFFCURVE",
"362 812 QCURVE SMOOTH",
"415 812 LINE",
"421 834 OFFCURVE",
"421 872 QCURVE SMOOTH",
"421 955 OFFCURVE",
"389 1093 QCURVE SMOOTH",
"369 1179 LINE",
"334 1107 LINE SMOOTH",
"315 1065 OFFCURVE",
"185 1065 QCURVE SMOOTH",
"124 1065 OFFCURVE",
"23 1089 OFFCURVE",
"3 1089 QCURVE SMOOTH"
);
}
);
width = 706;
}
);
note = invertednun;
unicode = 05C6;
},
{
glyphname = qamatskatan;
lastChange = "2018-07-29 16:34:27 +0000";
layers = (
{
layerId = "44BDE90C-78B7-4A9A-A14D-6B569C2B6751";
paths = (
{
closed = 1;
nodes = (
"151 -618 OFFCURVE",
"173 -614 OFFCURVE",
"176 -614 QCURVE",
"177 -613 OFFCURVE",
"193 -589 OFFCURVE",
"200 -574 OFFCURVE",
"211 -537 OFFCURVE",
"214 -513 QCURVE",
"208 -472 LINE",
"146 -373 LINE",
"126 -337 OFFCURVE",
"114 -288 QCURVE",
"216 -288 LINE",
"182 -139 LINE",
"-118 -139 LINE",
"-84 -288 LINE",
"18 -288 LINE",
"27 -323 OFFCURVE",
"27 -365 QCURVE SMOOTH",
"27 -371 LINE",
"18 -503 LINE",
"59 -576 OFFCURVE",
"112 -618 OFFCURVE",
"143 -618 QCURVE SMOOTH"
);
}
);
width = 0;
}
);
note = qamatskatan;
unicode = 05C7;
},
{
glyphname = alef;
lastChange = "2018-07-29 16:34:27 +0000";
layers = (
{
layerId = "44BDE90C-78B7-4A9A-A14D-6B569C2B6751";
paths = (
{
closed = 1;
nodes = (
"152 -51 LINE",
"175 -37 LINE SMOOTH",
"248 11 OFFCURVE",
"362 59 OFFCURVE",
"434 59 QCURVE",
"459 81 LINE",
"452 88 LINE SMOOTH",
"444 96 OFFCURVE",
"423 133 OFFCURVE",
"400 182 OFFCURVE",
"382 261 OFFCURVE",
"379 306 QCURVE SMOOTH",
"375 366 LINE",
"325 334 LINE SMOOTH",
"317 329 OFFCURVE",
"308 323 OFFCURVE",
"300 321 OFFCURVE",
"297 321 OFFCURVE",
"286 321 OFFCURVE",
"282 321 QCURVE SMOOTH",
"232 321 OFFCURVE",
"137 408 OFFCURVE",
"119 483 QCURVE SMOOTH",
"112 514 OFFCURVE",
"112 543 QCURVE SMOOTH",
"112 593 OFFCURVE",
"149 657 OFFCURVE",
"172 659 QCURVE",
"184 656 OFFCURVE",
"203 645 OFFCURVE",
"212 635 OFFCURVE",
"226 618 OFFCURVE",
"229 615 QCURVE SMOOTH",
"318 521 OFFCURVE",
"501 351 OFFCURVE",
"673 210 OFFCURVE",
"786 122 OFFCURVE",
"938 11 OFFCURVE",
"952 0 QCURVE",
"963 0 LINE SMOOTH",
"980 0 OFFCURVE",
"985 17 QCURVE",
"1004 71 OFFCURVE",
"1004 204 QCURVE SMOOTH",
"1004 223 OFFCURVE",
"1002 267 QCURVE",
"806 398 OFFCURVE",
"701 493 QCURVE",
"744 555 OFFCURVE",
"744 666 QCURVE SMOOTH",
"744 721 OFFCURVE",
"733 779 QCURVE",
"763 774 LINE",
"781 792 OFFCURVE",
"805 827 OFFCURVE",
"833 911 OFFCURVE",
"840 970 QCURVE SMOOTH",
"843 992 LINE",
"820 1003 LINE SMOOTH",
"668 1080 OFFCURVE",
"572 1176 QCURVE SMOOTH",
"541 1208 LINE",
"525 1174 LINE SMOOTH",
"507 1137 OFFCURVE",
"479 1047 OFFCURVE",
"469 1004 OFFCURVE",
"458 950 QCURVE SMOOTH",
"454 929 LINE",
"476 917 LINE SMOOTH",
"590 857 OFFCURVE",
"590 750 QCURVE SMOOTH",
"590 676 OFFCURVE",
"541 627 QCURVE",
"384 769 OFFCURVE",
"148 1014 OFFCURVE",
"66 1138 QCURVE SMOOTH",
"37 1182 LINE",
"-97 960 LINE",
"13 861 LINE",
"-47 714 OFFCURVE",
"-47 576 QCURVE SMOOTH",
"-47 497 OFFCURVE",
"-29 419 QCURVE SMOOTH",
"-15 358 OFFCURVE",
"79 224 OFFCURVE",
"138 175 QCURVE",
"111 125 OFFCURVE",
"97 64 OFFCURVE",
"97 29 QCURVE"
);
}
);
width = 1154;
}
);
note = alef;
unicode = 05D0;
},
{
glyphname = bet;
lastChange = "2018-07-29 16:34:27 +0000";
layers = (
{
layerId = "44BDE90C-78B7-4A9A-A14D-6B569C2B6751";
paths = (
{
closed = 1;
nodes = (
"175 1052 LINE SMOOTH",
"89 1052 OFFCURVE",
"-11 1138 QCURVE SMOOTH",
"-35 1158 LINE",
"-51 1138 LINE SMOOTH",
"-105 1074 OFFCURVE",
"-112 938 QCURVE",
"-70 906 LINE",
"-10 800 LINE",
"422 800 LINE",
"442 792 OFFCURVE",
"473 759 OFFCURVE",
"484 735 OFFCURVE",
"485 726 QCURVE",
"586 290 LINE",
"255 238 OFFCURVE",
"131 238 QCURVE SMOOTH",
"105 238 OFFCURVE",
"71 242 QCURVE SMOOTH",
"49 244 LINE",
"46 222 LINE SMOOTH",
"40 180 OFFCURVE",
"40 124 QCURVE SMOOTH",
"40 31 OFFCURVE",
"58 -42 QCURVE SMOOTH",
"64 -70 LINE",
"92 -70 LINE SMOOTH",
"197 -70 OFFCURVE",
"417 -52 OFFCURVE",
"552 -35 OFFCURVE",
"845 10 OFFCURVE",
"915 20 QCURVE",
"934 80 OFFCURVE",
"934 153 QCURVE SMOOTH",
"934 159 OFFCURVE",
"927 306 QCURVE SMOOTH",
"925 342 LINE",
"801 320 LINE",
"771 375 OFFCURVE",
"733 493 OFFCURVE",
"709 596 QCURVE SMOOTH",
"690 678 LINE SMOOTH",
"678 731 OFFCURVE",
"660 801 OFFCURVE",
"627 902 OFFCURVE",
"590 967 OFFCURVE",
"539 1031 OFFCURVE",
"472 1062 OFFCURVE",
"432 1062 QCURVE SMOOTH",
"430 1062 LINE",
"355 1052 OFFCURVE",
"255 1052 QCURVE SMOOTH"
);
}
);
width = 1005;
}
);
note = bet;
unicode = 05D1;
},
{
glyphname = gimel;
lastChange = "2018-07-29 16:34:27 +0000";
layers = (
{
layerId = "44BDE90C-78B7-4A9A-A14D-6B569C2B6751";
paths = (
{
closed = 1;
nodes = (
"513 366 OFFCURVE",
"482 389 OFFCURVE",
"460 414 OFFCURVE",
"429 463 OFFCURVE",
"411 496 OFFCURVE",
"374 564 OFFCURVE",
"364 583 QCURVE",
"360 594 OFFCURVE",
"334 656 OFFCURVE",
"320 706 OFFCURVE",
"320 731 QCURVE SMOOTH",
"320 742 OFFCURVE",
"321 748 QCURVE",
"322 750 OFFCURVE",
"343 807 OFFCURVE",
"351 835 OFFCURVE",
"362 881 OFFCURVE",
"362 897 QCURVE SMOOTH",
"362 905 OFFCURVE",
"360 917 QCURVE",
"355 938 OFFCURVE",
"333 973 OFFCURVE",
"296 998 OFFCURVE",
"263 1016 OFFCURVE",
"211 1031 OFFCURVE",
"180 1038 OFFCURVE",
"127 1049 OFFCURVE",
"118 1051 QCURVE",
"95 1060 OFFCURVE",
"53 1108 OFFCURVE",
"50 1124 QCURVE",
"38 1157 LINE",
"6 1131 LINE",
"-79 1069 OFFCURVE",
"-79 979 QCURVE SMOOTH",
"-79 927 OFFCURVE",
"-38 827 QCURVE",
"-6 815 OFFCURVE",
"16 808 QCURVE SMOOTH",
"68 791 OFFCURVE",
"150 778 QCURVE",
"156 723 OFFCURVE",
"169 644 OFFCURVE",
"221 491 OFFCURVE",
"264 412 QCURVE",
"134 369 OFFCURVE",
"16 243 OFFCURVE",
"16 136 QCURVE SMOOTH",
"16 79 OFFCURVE",
"33 0 QCURVE",
"112 -74 LINE",
"126 -46 LINE",
"136 -21 OFFCURVE",
"168 61 OFFCURVE",
"182 97 OFFCURVE",
"209 148 OFFCURVE",
"232 169 OFFCURVE",
"266 185 OFFCURVE",
"288 185 QCURVE SMOOTH",
"332 185 OFFCURVE",
"460 71 OFFCURVE",
"534 -49 QCURVE",
"557 -78 LINE",
"579 -49 LINE",
"613 -8 OFFCURVE",
"626 14 QCURVE",
"629 10 LINE",
"633 60 OFFCURVE",
"633 76 QCURVE SMOOTH",
"633 116 OFFCURVE",
"621 168 QCURVE SMOOTH",
"588 313 OFFCURVE",
"529 361 QCURVE"
);
}
);
width = 696;
}
);
note = gimel;
unicode = 05D2;
},
{
glyphname = dalet;
lastChange = "2018-07-29 16:34:27 +0000";
layers = (
{
layerId = "44BDE90C-78B7-4A9A-A14D-6B569C2B6751";
paths = (
{
closed = 1;
nodes = (
"564 369 OFFCURVE",
"634 165 OFFCURVE",
"668 17 QCURVE",
"738 -27 LINE",
"750 0 LINE",
"808 109 OFFCURVE",
"808 193 QCURVE SMOOTH",
"808 229 OFFCURVE",
"799 268 QCURVE SMOOTH",
"782 340 OFFCURVE",
"649 638 OFFCURVE",
"637 689 QCURVE SMOOTH",
"635 699 OFFCURVE",
"635 705 QCURVE SMOOTH",
"635 741 OFFCURVE",
"688 812 OFFCURVE",
"734 823 QCURVE SMOOTH",
"754 828 LINE",
"749 848 LINE SMOOTH",
"722 965 OFFCURVE",
"638 1072 QCURVE",
"498 1052 OFFCURVE",
"263 1052 QCURVE SMOOTH",
"233 1052 LINE SMOOTH",
"164 1052 OFFCURVE",
"68 1060 QCURVE",
"36 1065 OFFCURVE",
"-1 1086 OFFCURVE",
"-44 1133 OFFCURVE",
"-54 1141 QCURVE SMOOTH",
"-79 1161 LINE",
"-94 1141 LINE SMOOTH",
"-130 1096 OFFCURVE",
"-155 1010 OFFCURVE",
"-157 950 QCURVE",
"-116 917 LINE",
"-60 817 LINE",
"4 789 OFFCURVE",
"199 789 QCURVE SMOOTH",
"345 789 OFFCURVE",
"430 798 QCURVE",
"430 793 OFFCURVE",
"430 783 OFFCURVE",
"430 770 OFFCURVE",
"430 767 QCURVE SMOOTH",
"430 730 OFFCURVE",
"443 672 QCURVE SMOOTH",
"459 604 LINE SMOOTH",
"473 542 OFFCURVE",
"499 489 QCURVE"
);
}
);
width = 1019;
}
);
note = dalet;
unicode = 05D3;
},
{
glyphname = he;
lastChange = "2018-07-29 16:34:27 +0000";
layers = (
{
layerId = "44BDE90C-78B7-4A9A-A14D-6B569C2B6751";
paths = (
{
closed = 1;
nodes = (
"117 733 LINE",
"34 611 OFFCURVE",
"34 463 QCURVE SMOOTH",
"34 408 OFFCURVE",
"53 294 OFFCURVE",
"98 162 OFFCURVE",
"125 92 OFFCURVE",
"155 19 QCURVE",
"247 -22 LINE",
"255 0 LINE SMOOTH",
"277 59 OFFCURVE",
"306 280 QCURVE",
"251 326 OFFCURVE",
"208 405 OFFCURVE",
"188 488 QCURVE SMOOTH",
"187 492 OFFCURVE",
"184 508 OFFCURVE",
"183 512 QCURVE SMOOTH",
"168 580 OFFCURVE",
"168 734 QCURVE SMOOTH",
"168 762 OFFCURVE",
"168 762 QCURVE"
);
},
{
closed = 1;
nodes = (
"501 1052 OFFCURVE",
"367 1052 QCURVE SMOOTH",
"283 1052 OFFCURVE",
"153 1063 OFFCURVE",
"80 1074 OFFCURVE",
"16 1104 OFFCURVE",
"-3 1116 OFFCURVE",
"-46 1157 OFFCURVE",
"-51 1162 QCURVE",
"-76 1182 LINE",
"-92 1163 LINE",
"-127 1118 OFFCURVE",
"-152 1035 OFFCURVE",
"-155 976 QCURVE",
"-114 943 LINE",
"-53 820 LINE",
"-32 820 LINE SMOOTH",
"-2 820 OFFCURVE",
"300 802 OFFCURVE",
"325 802 QCURVE SMOOTH",
"460 802 OFFCURVE",
"565 814 QCURVE",
"565 783 LINE SMOOTH",
"565 701 OFFCURVE",
"654 442 OFFCURVE",
"775 131 OFFCURVE",
"799 29 QCURVE",
"865 -19 LINE",
"878 5 LINE SMOOTH",
"936 114 OFFCURVE",
"936 200 QCURVE SMOOTH",
"936 236 OFFCURVE",
"927 275 QCURVE SMOOTH",
"910 347 OFFCURVE",
"773 659 OFFCURVE",
"761 710 QCURVE SMOOTH",
"755 734 OFFCURVE",
"755 753 QCURVE SMOOTH",
"755 778 OFFCURVE",
"775 818 OFFCURVE",
"795 837 OFFCURVE",
"814 851 QCURVE",
"800 912 OFFCURVE",
"756 1003 OFFCURVE",
"696 1079 QCURVE"
);
}
);
width = 1091;
}
);
note = he;
unicode = 05D4;
},
{
glyphname = vav;
lastChange = "2018-07-29 16:34:27 +0000";
layers = (
{
layerId = "44BDE90C-78B7-4A9A-A14D-6B569C2B6751";
paths = (
{
closed = 1;
nodes = (
"363 -54 LINE",
"385 -12 LINE SMOOTH",
"417 50 OFFCURVE",
"417 176 QCURVE SMOOTH",
"417 214 LINE",
"318 650 LINE SMOOTH",
"306 700 OFFCURVE",
"287 774 OFFCURVE",
"254 876 OFFCURVE",
"217 947 OFFCURVE",
"171 1015 OFFCURVE",
"111 1051 OFFCURVE",
"77 1052 QCURVE",
"43 1060 OFFCURVE",
"5 1078 OFFCURVE",
"-10 1093 OFFCURVE",
"-39 1130 OFFCURVE",
"-56 1146 QCURVE",
"-80 1166 LINE",
"-96 1146 LINE SMOOTH",
"-154 1077 OFFCURVE",
"-160 978 QCURVE",
"-157 950 LINE",
"-115 916 LINE",
"-106 899 OFFCURVE",
"-61 824 OFFCURVE",
"-52 802 QCURVE",
"73 802 LINE SMOOTH",
"96 802 OFFCURVE",
"99 806 QCURVE",
"286 74 OFFCURVE",
"286 74 QCURVE"
);
}
);
width = 546;
}
);
note = vav;
unicode = 05D5;
},
{
glyphname = zayin;
lastChange = "2018-07-29 16:34:27 +0000";
layers = (
{
layerId = "44BDE90C-78B7-4A9A-A14D-6B569C2B6751";
paths = (
{
closed = 1;
nodes = (
"3 494 LINE",
"171 221 OFFCURVE",
"264 11 QCURVE",
"296 -51 LINE",
"350 143 LINE SMOOTH",
"360 178 OFFCURVE",
"360 195 QCURVE SMOOTH",
"360 214 OFFCURVE",
"346 276 QCURVE SMOOTH",
"324 373 OFFCURVE",
"199 602 OFFCURVE",
"175 660 QCURVE SMOOTH",
"135 753 OFFCURVE",
"124 794 QCURVE",
"325 709 LINE",
"318 742 LINE",
"316 761 OFFCURVE",
"316 797 QCURVE SMOOTH",
"316 823 LINE SMOOTH",
"316 856 OFFCURVE",
"313 899 OFFCURVE",
"295 959 OFFCURVE",
"278 986 QCURVE",
"280 981 LINE",
"268 986 OFFCURVE",
"245 996 QCURVE SMOOTH",
"123 1048 OFFCURVE",
"-7 1121 OFFCURVE",
"-105 1201 QCURVE SMOOTH",
"-144 1234 LINE",
"-150 1201 LINE",
"-166 1134 OFFCURVE",
"-166 1084 QCURVE SMOOTH",
"-166 1033 OFFCURVE",
"-148 958 QCURVE SMOOTH",
"-142 933 LINE",
"-128 918 OFFCURVE",
"-114 903 OFFCURVE",
"-93 884 OFFCURVE",
"-87 879 OFFCURVE",
"-64 864 OFFCURVE",
"-55 859 OFFCURVE",
"-17 838 OFFCURVE",
"-5 831 QCURVE",
"-7 820 OFFCURVE",
"-23 731 OFFCURVE",
"-29 677 OFFCURVE",
"-29 648 QCURVE SMOOTH",
"-29 599 OFFCURVE",
"-18 551 QCURVE"
);
}
);
width = 594;
}
);
note = zayin;
unicode = 05D6;
},
{
glyphname = het;
lastChange = "2018-07-29 16:34:27 +0000";
layers = (
{
layerId = "44BDE90C-78B7-4A9A-A14D-6B569C2B6751";
paths = (
{
closed = 1;
nodes = (
"557 1052 OFFCURVE",
"416 1052 QCURVE SMOOTH",
"233 1052 OFFCURVE",
"90 1078 QCURVE SMOOTH",
"77 1080 OFFCURVE",
"54 1086 OFFCURVE",
"34 1094 OFFCURVE",
"17 1100 OFFCURVE",
"-1 1111 OFFCURVE",
"-11 1118 OFFCURVE",
"-28 1131 OFFCURVE",
"-35 1137 OFFCURVE",
"-52 1152 OFFCURVE",
"-55 1154 QCURVE",
"-80 1174 LINE",
"-96 1155 LINE SMOOTH",
"-132 1110 OFFCURVE",
"-157 1026 OFFCURVE",
"-159 968 QCURVE",
"-118 935 LINE",
"-53 818 LINE",
"-32 818 LINE",
"-10 818 LINE",
"-19 768 OFFCURVE",
"-19 729 QCURVE SMOOTH",
"-19 675 OFFCURVE",
"0 594 QCURVE SMOOTH",
"14 528 LINE",
"39 472 OFFCURVE",
"79 341 OFFCURVE",
"100 241 OFFCURVE",
"136 67 OFFCURVE",
"149 11 QCURVE",
"217 -38 LINE",
"229 -14 LINE SMOOTH",
"265 60 OFFCURVE",
"296 147 OFFCURVE",
"296 195 QCURVE SMOOTH",
"296 227 OFFCURVE",
"287 268 QCURVE SMOOTH",
"270 343 OFFCURVE",
"171 644 OFFCURVE",
"159 698 QCURVE SMOOTH",
"155 715 OFFCURVE",
"155 731 QCURVE SMOOTH",
"155 754 OFFCURVE",
"179 790 OFFCURVE",
"207 813 QCURVE",
"235 813 OFFCURVE",
"351 804 OFFCURVE",
"379 804 QCURVE SMOOTH",
"480 804 OFFCURVE",
"620 818 QCURVE",
"617 779 OFFCURVE",
"621 762 QCURVE SMOOTH",
"648 646 LINE SMOOTH",
"657 605 OFFCURVE",
"710 477 OFFCURVE",
"778 284 OFFCURVE",
"806 164 QCURVE SMOOTH",
"841 11 LINE",
"908 -39 LINE",
"920 -14 LINE SMOOTH",
"938 22 OFFCURVE",
"976 158 OFFCURVE",
"976 228 QCURVE SMOOTH",
"976 270 OFFCURVE",
"967 310 QCURVE SMOOTH",
"953 370 OFFCURVE",
"884 518 OFFCURVE",
"817 654 OFFCURVE",
"807 698 QCURVE SMOOTH",
"801 724 OFFCURVE",
"801 742 QCURVE SMOOTH",
"801 767 OFFCURVE",
"821 806 OFFCURVE",
"840 825 OFFCURVE",
"859 839 QCURVE",
"842 914 OFFCURVE",
"792 1017 OFFCURVE",
"744 1077 QCURVE"
);
}
);
width = 1135;
}
);
note = het;
unicode = 05D7;
},
{
glyphname = tet;
lastChange = "2018-07-29 16:34:27 +0000";
layers = (
{
layerId = "44BDE90C-78B7-4A9A-A14D-6B569C2B6751";
paths = (
{
closed = 1;
nodes = (
"652 313 OFFCURVE",
"522 247 OFFCURVE",
"461 247 QCURVE SMOOTH",
"452 247 OFFCURVE",
"414 250 OFFCURVE",
"408 250 QCURVE",
"356 338 LINE SMOOTH",
"305 426 OFFCURVE",
"191 680 OFFCURVE",
"180 758 QCURVE",
"226 833 OFFCURVE",
"226 894 QCURVE SMOOTH",
"226 1008 OFFCURVE",
"71 1050 QCURVE",
"-10 1105 OFFCURVE",
"-27 1143 QCURVE",
"-46 1192 LINE",
"-76 1156 LINE SMOOTH",
"-92 1138 OFFCURVE",
"-117 1098 OFFCURVE",
"-150 1035 OFFCURVE",
"-164 1012 QCURVE",
"-136 973 LINE",
"-124 845 LINE",
"19 768 LINE",
"34 704 OFFCURVE",
"34 684 QCURVE SMOOTH",
"34 678 OFFCURVE",
"30 660 OFFCURVE",
"30 650 QCURVE SMOOTH",
"30 646 LINE",
"75 454 OFFCURVE",
"240 77 OFFCURVE",
"336 -30 QCURVE",
"739 9 OFFCURVE",
"892 180 QCURVE",
"939 274 OFFCURVE",
"939 408 QCURVE SMOOTH",
"939 517 OFFCURVE",
"907 658 QCURVE SMOOTH",
"887 748 LINE SMOOTH",
"865 846 OFFCURVE",
"790 993 OFFCURVE",
"713 1040 QCURVE",
"617 1088 OFFCURVE",
"535 1088 QCURVE SMOOTH",
"439 1088 OFFCURVE",
"384 1052 QCURVE SMOOTH",
"331 1016 OFFCURVE",
"276 940 OFFCURVE",
"276 873 QCURVE SMOOTH",
"276 831 OFFCURVE",
"289 776 QCURVE SMOOTH",
"293 756 LINE",
"439 725 LINE",
"436 755 LINE",
"435 760 OFFCURVE",
"435 770 QCURVE SMOOTH",
"435 794 OFFCURVE",
"453 826 OFFCURVE",
"487 838 OFFCURVE",
"514 842 OFFCURVE",
"532 842 QCURVE SMOOTH",
"540 842 LINE SMOOTH",
"543 842 OFFCURVE",
"554 839 OFFCURVE",
"555 839 QCURVE",
"598 828 OFFCURVE",
"658 786 OFFCURVE",
"698 716 OFFCURVE",
"721 646 OFFCURVE",
"734 591 QCURVE SMOOTH",
"748 530 OFFCURVE",
"748 474 QCURVE SMOOTH",
"748 429 OFFCURVE",
"740 413 QCURVE"
);
}
);
width = 1132;
}
);
note = tet;
unicode = 05D8;
},
{
glyphname = yod;
lastChange = "2018-07-29 16:34:27 +0000";
layers = (
{
layerId = "44BDE90C-78B7-4A9A-A14D-6B569C2B6751";
paths = (
{
closed = 1;
nodes = (
"-114 903 LINE",
"-50 800 LINE",
"-32 800 LINE SMOOTH",
"13 800 OFFCURVE",
"70 792 OFFCURVE",
"108 766 OFFCURVE",
"127 736 OFFCURVE",
"142 673 OFFCURVE",
"150 612 OFFCURVE",
"169 502 OFFCURVE",
"181 450 QCURVE",
"300 401 LINE",
"303 430 LINE SMOOTH",
"318 630 OFFCURVE",
"318 678 QCURVE SMOOTH",
"318 742 OFFCURVE",
"302 816 QCURVE SMOOTH",
"271 947 OFFCURVE",
"212 993 QCURVE SMOOTH",
"194 1007 OFFCURVE",
"171 1023 OFFCURVE",
"155 1033 OFFCURVE",
"138 1040 OFFCURVE",
"130 1043 OFFCURVE",
"103 1050 OFFCURVE",
"95 1052 QCURVE",
"68 1060 OFFCURVE",
"45 1067 OFFCURVE",
"15 1086 OFFCURVE",
"4 1096 OFFCURVE",
"-44 1141 OFFCURVE",
"-64 1160 QCURVE",
"-82 1153 LINE",
"-104 1160 LINE",
"-156 1090 OFFCURVE",
"-156 942 QCURVE"
);
}
);
width = 564;
}
);
note = yod;
unicode = 05D9;
},
{
glyphname = finalkaf;
lastChange = "2018-07-29 16:34:27 +0000";
layers = (
{
layerId = "44BDE90C-78B7-4A9A-A14D-6B569C2B6751";
paths = (
{
closed = 1;
nodes = (
"424 1052 OFFCURVE",
"273 1052 QCURVE SMOOTH",
"119 1052 OFFCURVE",
"0 1075 QCURVE SMOOTH",
"-14 1078 OFFCURVE",
"-52 1138 OFFCURVE",
"-58 1143 QCURVE SMOOTH",
"-82 1164 LINE",
"-98 1144 LINE SMOOTH",
"-134 1098 OFFCURVE",
"-158 1010 OFFCURVE",
"-160 948 QCURVE",
"-119 915 LINE",
"-87 842 LINE",
"-70 837 OFFCURVE",
"26 810 OFFCURVE",
"55 803 OFFCURVE",
"128 787 OFFCURVE",
"196 778 OFFCURVE",
"243 773 QCURVE",
"245 773 LINE SMOOTH",
"354 773 OFFCURVE",
"463 785 QCURVE",
"460 774 OFFCURVE",
"445 709 OFFCURVE",
"438 675 OFFCURVE",
"431 623 OFFCURVE",
"431 602 QCURVE SMOOTH",
"431 575 OFFCURVE",
"437 550 QCURVE SMOOTH",
"453 482 LINE",
"474 426 OFFCURVE",
"560 201 OFFCURVE",
"586 131 OFFCURVE",
"644 -26 OFFCURVE",
"660 -84 OFFCURVE",
"695 -198 OFFCURVE",
"707 -269 OFFCURVE",
"723 -363 OFFCURVE",
"729 -415 QCURVE",
"803 -465 LINE",
"816 -441 LINE SMOOTH",
"872 -329 OFFCURVE",
"872 -240 QCURVE SMOOTH",
"872 -200 OFFCURVE",
"862 -160 QCURVE",
"858 -122 OFFCURVE",
"847 -78 QCURVE",
"838 1 OFFCURVE",
"777 201 OFFCURVE",
"715 363 OFFCURVE",
"660 585 OFFCURVE",
"654 688 QCURVE",
"651 703 OFFCURVE",
"651 717 QCURVE SMOOTH",
"651 747 OFFCURVE",
"685 798 OFFCURVE",
"725 830 QCURVE",
"707 907 OFFCURVE",
"657 1013 OFFCURVE",
"608 1078 QCURVE"
);
}
);
width = 992;
}
);
note = finalkaf;
unicode = 05DA;
},
{
glyphname = kaf;
lastChange = "2018-07-29 16:34:27 +0000";
layers = (
{
layerId = "44BDE90C-78B7-4A9A-A14D-6B569C2B6751";
paths = (
{
closed = 1;
nodes = (
"612 972 OFFCURVE",
"558 1027 OFFCURVE",
"497 1051 OFFCURVE",
"449 1059 OFFCURVE",
"419 1059 QCURVE SMOOTH",
"392 1059 OFFCURVE",
"276 1052 OFFCURVE",
"245 1052 QCURVE SMOOTH",
"185 1052 OFFCURVE",
"111 1062 QCURVE",
"79 1071 OFFCURVE",
"28 1097 OFFCURVE",
"8 1111 OFFCURVE",
"-34 1150 OFFCURVE",
"-37 1152 QCURVE",
"-61 1173 LINE",
"-77 1153 LINE SMOOTH",
"-113 1107 OFFCURVE",
"-137 1019 OFFCURVE",
"-139 957 QCURVE",
"-97 921 LINE",
"-26 783 LINE",
"390 783 LINE",
"424 780 OFFCURVE",
"474 758 OFFCURVE",
"512 714 OFFCURVE",
"534 678 OFFCURVE",
"571 604 OFFCURVE",
"584 583 QCURVE SMOOTH",
"587 578 OFFCURVE",
"627 500 OFFCURVE",
"645 462 OFFCURVE",
"665 404 OFFCURVE",
"665 386 QCURVE SMOOTH",
"665 372 OFFCURVE",
"659 363 QCURVE SMOOTH",
"631 324 OFFCURVE",
"509 271 OFFCURVE",
"337 249 OFFCURVE",
"191 241 OFFCURVE",
"97 241 QCURVE SMOOTH",
"79 241 LINE",
"65 172 OFFCURVE",
"65 124 QCURVE SMOOTH",
"65 114 OFFCURVE",
"71 0 QCURVE",
"74 -33 LINE",
"107 -33 LINE SMOOTH",
"316 -33 OFFCURVE",
"664 36 OFFCURVE",
"817 134 QCURVE",
"853 200 OFFCURVE",
"853 287 QCURVE SMOOTH",
"853 341 OFFCURVE",
"829 462 OFFCURVE",
"772 614 OFFCURVE",
"733 708 OFFCURVE",
"646 899 OFFCURVE",
"632 930 QCURVE SMOOTH"
);
}
);
width = 970;
}
);
note = kaf;
unicode = 05DB;
},
{
glyphname = lamed;
lastChange = "2018-07-29 16:34:27 +0000";
layers = (
{
layerId = "44BDE90C-78B7-4A9A-A14D-6B569C2B6751";
paths = (
{
closed = 1;
nodes = (
"583 338 OFFCURVE",
"658 541 OFFCURVE",
"716 729 OFFCURVE",
"721 802 QCURVE",
"694 921 OFFCURVE",
"602 1004 QCURVE",
"551 1043 OFFCURVE",
"503 1052 QCURVE",
"8 1050 LINE SMOOTH",
"-2 1050 OFFCURVE",
"-11 1060 QCURVE",
"-39 1089 OFFCURVE",
"-64 1239 OFFCURVE",
"-69 1405 OFFCURVE",
"-83 1565 OFFCURVE",
"-135 1669 OFFCURVE",
"-185 1669 QCURVE SMOOTH",
"-201 1669 OFFCURVE",
"-216 1659 QCURVE",
"-321 1502 LINE",
"-325 1491 OFFCURVE",
"-325 1477 QCURVE SMOOTH",
"-325 1450 OFFCURVE",
"-286 1410 OFFCURVE",
"-247 1406 QCURVE",
"-243 1406 LINE",
"-217 1413 OFFCURVE",
"-202 1413 QCURVE",
"-199 1408 OFFCURVE",
"-199 1399 QCURVE",
"-194 1378 OFFCURVE",
"-194 1353 QCURVE SMOOTH",
"-194 1340 OFFCURVE",
"-200 1266 OFFCURVE",
"-200 1238 QCURVE SMOOTH",
"-200 1141 OFFCURVE",
"-165 987 QCURVE SMOOTH",
"-141 883 OFFCURVE",
"-33 764 OFFCURVE",
"38 764 QCURVE SMOOTH",
"449 764 LINE SMOOTH",
"456 764 OFFCURVE",
"480 749 OFFCURVE",
"509 710 OFFCURVE",
"515 683 QCURVE",
"510 591 OFFCURVE",
"480 455 OFFCURVE",
"443 384 OFFCURVE",
"407 330 OFFCURVE",
"383 270 OFFCURVE",
"383 233 QCURVE SMOOTH",
"383 208 OFFCURVE",
"387 181 QCURVE",
"392 160 OFFCURVE",
"399 135 OFFCURVE",
"426 81 OFFCURVE",
"460 43 OFFCURVE",
"523 -4 OFFCURVE",
"564 -20 QCURVE SMOOTH",
"593 -32 LINE",
"602 -7 LINE",
"640 84 OFFCURVE",
"640 164 QCURVE SMOOTH",
"640 196 OFFCURVE",
"632 233 QCURVE SMOOTH",
"628 253 LINE",
"605 259 LINE",
"601 260 LINE SMOOTH",
"597 261 OFFCURVE",
"590 263 OFFCURVE",
"579 268 OFFCURVE",
"572 272 OFFCURVE",
"568 279 OFFCURVE",
"569 282 QCURVE"
);
}
);
width = 976;
}
);
note = lamed;
unicode = 05DC;
},
{
glyphname = finalmem;
lastChange = "2018-07-29 16:34:27 +0000";
layers = (
{
layerId = "44BDE90C-78B7-4A9A-A14D-6B569C2B6751";
paths = (
{
closed = 1;
nodes = (
"349 222 OFFCURVE",
"330 272 QCURVE",
"311 306 LINE SMOOTH",
"292 340 OFFCURVE",
"238 456 OFFCURVE",
"184 588 OFFCURVE",
"146 738 OFFCURVE",
"146 795 QCURVE SMOOTH",
"146 810 LINE",
"271 827 OFFCURVE",
"397 827 QCURVE SMOOTH",
"604 827 OFFCURVE",
"655 782 QCURVE",
"660 777 OFFCURVE",
"696 699 OFFCURVE",
"748 548 OFFCURVE",
"766 470 QCURVE SMOOTH",
"797 339 LINE",
"701 314 OFFCURVE",
"552 272 OFFCURVE",
"477 249 OFFCURVE",
"426 232 OFFCURVE",
"409 225 OFFCURVE",
"398 222 OFFCURVE",
"390 222 QCURVE SMOOTH"
);
},
{
closed = 1;
nodes = (
"-44 821 LINE SMOOTH",
"-42 821 OFFCURVE",
"-26 816 OFFCURVE",
"2 810 OFFCURVE",
"17 810 QCURVE SMOOTH",
"21 810 LINE",
"17 789 OFFCURVE",
"17 757 QCURVE SMOOTH",
"17 654 OFFCURVE",
"104 326 OFFCURVE",
"180 141 QCURVE",
"204 39 OFFCURVE",
"278 -48 OFFCURVE",
"347 -48 QCURVE SMOOTH",
"352 -48 LINE",
"1014 161 LINE",
"1014 182 OFFCURVE",
"1017 244 OFFCURVE",
"1017 255 QCURVE SMOOTH",
"1017 316 OFFCURVE",
"982 379 QCURVE",
"963 390 OFFCURVE",
"952 401 OFFCURVE",
"946 413 QCURVE",
"886 670 OFFCURVE",
"786 924 QCURVE SMOOTH",
"784 929 OFFCURVE",
"768 969 OFFCURVE",
"760 985 OFFCURVE",
"740 1019 OFFCURVE",
"719 1035 OFFCURVE",
"688 1055 OFFCURVE",
"645 1063 OFFCURVE",
"619 1063 QCURVE SMOOTH",
"566 1063 OFFCURVE",
"357 1052 OFFCURVE",
"305 1052 QCURVE SMOOTH",
"179 1052 OFFCURVE",
"81 1074 QCURVE",
"55 1078 OFFCURVE",
"10 1102 OFFCURVE",
"-15 1125 OFFCURVE",
"-53 1162 OFFCURVE",
"-63 1171 QCURVE SMOOTH",
"-88 1192 LINE",
"-104 1172 LINE SMOOTH",
"-140 1127 OFFCURVE",
"-165 1043 OFFCURVE",
"-167 985 QCURVE",
"-127 953 LINE",
"-66 821 LINE"
);
}
);
width = 1120;
}
);
note = finalmem;
unicode = 05DD;
},
{
glyphname = mem;
lastChange = "2018-07-29 16:34:27 +0000";
layers = (
{
layerId = "44BDE90C-78B7-4A9A-A14D-6B569C2B6751";
paths = (
{
closed = 1;
nodes = (
"-105 852 LINE",
"-75 846 LINE SMOOTH",
"-28 836 OFFCURVE",
"43 805 OFFCURVE",
"79 771 OFFCURVE",
"96 745 OFFCURVE",
"99 734 QCURVE",
"99 730 LINE SMOOTH",
"99 717 OFFCURVE",
"66 570 OFFCURVE",
"34 369 OFFCURVE",
"34 290 QCURVE SMOOTH",
"34 225 OFFCURVE",
"45 178 QCURVE SMOOTH",
"55 134 LINE",
"90 154 LINE SMOOTH",
"105 162 OFFCURVE",
"130 179 OFFCURVE",
"149 194 OFFCURVE",
"163 205 OFFCURVE",
"176 220 OFFCURVE",
"182 227 OFFCURVE",
"193 241 OFFCURVE",
"195 243 QCURVE",
"203 278 OFFCURVE",
"222 380 OFFCURVE",
"235 442 OFFCURVE",
"256 526 OFFCURVE",
"279 580 OFFCURVE",
"315 646 OFFCURVE",
"362 691 OFFCURVE",
"426 739 OFFCURVE",
"512 775 OFFCURVE",
"565 789 QCURVE",
"613 755 OFFCURVE",
"653 686 QCURVE SMOOTH",
"693 612 OFFCURVE",
"725 466 QCURVE SMOOTH",
"736 418 LINE SMOOTH",
"744 383 OFFCURVE",
"744 359 QCURVE SMOOTH",
"744 285 OFFCURVE",
"669 261 QCURVE",
"504 228 OFFCURVE",
"239 228 QCURVE SMOOTH",
"223 228 LINE",
"199 149 OFFCURVE",
"199 101 QCURVE SMOOTH",
"199 34 OFFCURVE",
"257 -42 QCURVE",
"297 -38 OFFCURVE",
"434 -26 OFFCURVE",
"533 -18 OFFCURVE",
"664 -1 OFFCURVE",
"758 19 OFFCURVE",
"856 56 OFFCURVE",
"917 102 OFFCURVE",
"956 171 OFFCURVE",
"956 214 QCURVE SMOOTH",
"956 234 OFFCURVE",
"949 267 QCURVE SMOOTH",
"901 477 LINE SMOOTH",
"887 537 OFFCURVE",
"863 630 OFFCURVE",
"821 766 OFFCURVE",
"780 867 OFFCURVE",
"720 976 OFFCURVE",
"656 1047 OFFCURVE",
"572 1093 OFFCURVE",
"526 1093 QCURVE SMOOTH",
"520 1093 LINE",
"518 1092 OFFCURVE",
"476 1074 OFFCURVE",
"443 1058 OFFCURVE",
"384 1026 OFFCURVE",
"332 993 OFFCURVE",
"265 942 OFFCURVE",
"235 914 QCURVE",
"217 947 OFFCURVE",
"189 961 QCURVE",
"160 977 OFFCURVE",
"116 1002 OFFCURVE",
"84 1019 OFFCURVE",
"59 1040 OFFCURVE",
"46 1050 OFFCURVE",
"30 1073 OFFCURVE",
"26 1079 OFFCURVE",
"9 1110 OFFCURVE",
"6 1115 QCURVE SMOOTH",
"-19 1156 LINE",
"-43 1125 LINE SMOOTH",
"-73 1088 OFFCURVE",
"-100 1030 OFFCURVE",
"-116 971 QCURVE",
"-110 943 OFFCURVE",
"-99 938 QCURVE"
);
}
);
width = 1076;
}
);
note = mem;
unicode = 05DE;
},
{
glyphname = finalnun;
lastChange = "2018-07-29 16:34:27 +0000";
layers = (
{
layerId = "44BDE90C-78B7-4A9A-A14D-6B569C2B6751";
paths = (
{
closed = 1;
nodes = (
"253 776 OFFCURVE",
"253 883 QCURVE SMOOTH",
"253 907 OFFCURVE",
"252 919 QCURVE",
"239 972 OFFCURVE",
"184 994 QCURVE",
"170 1001 OFFCURVE",
"146 1011 OFFCURVE",
"133 1017 OFFCURVE",
"123 1021 OFFCURVE",
"116 1025 OFFCURVE",
"112 1026 OFFCURVE",
"101 1032 OFFCURVE",
"93 1037 OFFCURVE",
"71 1049 OFFCURVE",
"60 1055 QCURVE",
"12 1093 OFFCURVE",
"-17 1174 QCURVE",
"-29 1199 LINE",
"-60 1174 LINE",
"-144 1113 OFFCURVE",
"-148 1026 QCURVE",
"-125 994 LINE",
"-141 910 LINE",
"-123 868 LINE",
"48 761 LINE",
"24 703 OFFCURVE",
"24 632 QCURVE SMOOTH",
"24 570 OFFCURVE",
"63 417 OFFCURVE",
"104 316 OFFCURVE",
"173 165 OFFCURVE",
"180 147 QCURVE",
"182 140 OFFCURVE",
"224 28 OFFCURVE",
"249 -44 OFFCURVE",
"282 -148 OFFCURVE",
"290 -183 QCURVE SMOOTH",
"302 -236 OFFCURVE",
"302 -291 QCURVE SMOOTH",
"302 -313 OFFCURVE",
"298 -373 OFFCURVE",
"298 -379 QCURVE",
"298 -379 OFFCURVE",
"297 -368 QCURVE",
"298 -383 LINE",
"299 -388 OFFCURVE",
"302 -395 QCURVE",
"321 -486 LINE",
"352 -399 LINE",
"355 -389 OFFCURVE",
"382 -349 OFFCURVE",
"390 -341 QCURVE",
"380 -366 LINE",
"394 -342 LINE SMOOTH",
"457 -232 OFFCURVE",
"457 -90 QCURVE SMOOTH",
"457 -45 OFFCURVE",
"450 -15 QCURVE SMOOTH",
"426 91 OFFCURVE",
"267 384 OFFCURVE",
"239 505 QCURVE SMOOTH",
"230 546 LINE SMOOTH",
"220 588 OFFCURVE",
"201 687 OFFCURVE",
"200 702 QCURVE"
);
}
);
width = 548;
}
);
note = finalnun;
unicode = 05DF;
},
{
glyphname = nun;
lastChange = "2018-07-29 16:34:27 +0000";
layers = (
{
layerId = "44BDE90C-78B7-4A9A-A14D-6B569C2B6751";
paths = (
{
closed = 1;
nodes = (
"499 292 OFFCURVE",
"369 533 OFFCURVE",
"297 716 OFFCURVE",
"288 807 QCURVE",
"285 819 OFFCURVE",
"285 827 QCURVE SMOOTH",
"285 836 OFFCURVE",
"297 884 OFFCURVE",
"297 910 QCURVE SMOOTH",
"297 919 LINE",
"288 941 OFFCURVE",
"242 991 OFFCURVE",
"195 1026 OFFCURVE",
"136 1062 OFFCURVE",
"116 1073 OFFCURVE",
"108 1077 QCURVE",
"75 1099 OFFCURVE",
"53 1123 OFFCURVE",
"44 1146 QCURVE SMOOTH",
"28 1187 LINE",
"0 1163 LINE",
"-77 1105 OFFCURVE",
"-94 1010 QCURVE",
"-72 978 LINE",
"-81 896 LINE",
"-58 886 LINE SMOOTH",
"-13 868 OFFCURVE",
"17 854 OFFCURVE",
"72 824 OFFCURVE",
"104 802 QCURVE",
"146 709 OFFCURVE",
"216 441 OFFCURVE",
"232 396 QCURVE SMOOTH",
"270 293 LINE",
"181 238 OFFCURVE",
"69 238 QCURVE SMOOTH",
"57 238 LINE",
"22 180 OFFCURVE",
"22 131 QCURVE SMOOTH",
"22 59 OFFCURVE",
"81 -22 QCURVE SMOOTH",
"94 -41 LINE",
"113 -36 OFFCURVE",
"308 -1 OFFCURVE",
"447 48 OFFCURVE",
"510 92 QCURVE",
"524 120 OFFCURVE",
"524 220 QCURVE SMOOTH",
"524 235 OFFCURVE",
"524 235 QCURVE"
);
}
);
width = 620;
}
);
note = nun;
unicode = 05E0;
},
{
glyphname = samekh;
lastChange = "2018-07-29 16:34:27 +0000";
layers = (
{
layerId = "44BDE90C-78B7-4A9A-A14D-6B569C2B6751";
paths = (
{
closed = 1;
nodes = (
"721 376 OFFCURVE",
"532 227 OFFCURVE",
"407 223 QCURVE",
"357 270 OFFCURVE",
"281 353 OFFCURVE",
"228 432 OFFCURVE",
"194 492 OFFCURVE",
"166 573 OFFCURVE",
"153 623 OFFCURVE",
"142 670 QCURVE SMOOTH",
"138 686 OFFCURVE",
"138 709 QCURVE SMOOTH",
"138 770 OFFCURVE",
"159 791 QCURVE",
"418 791 OFFCURVE",
"546 807 QCURVE",
"583 783 OFFCURVE",
"722 571 OFFCURVE",
"743 483 QCURVE"
);
},
{
closed = 1;
nodes = (
"45 410 OFFCURVE",
"276 77 OFFCURVE",
"409 -29 QCURVE",
"479 -39 LINE",
"506 -26 OFFCURVE",
"611 22 OFFCURVE",
"665 48 OFFCURVE",
"747 95 OFFCURVE",
"797 136 OFFCURVE",
"851 198 OFFCURVE",
"870 234 QCURVE",
"873 259 OFFCURVE",
"883 330 OFFCURVE",
"888 378 OFFCURVE",
"888 403 QCURVE SMOOTH",
"888 470 OFFCURVE",
"864 574 QCURVE SMOOTH",
"843 667 OFFCURVE",
"789 808 OFFCURVE",
"708 931 OFFCURVE",
"651 1000 OFFCURVE",
"591 1066 QCURVE",
"576 1066 LINE SMOOTH",
"560 1066 OFFCURVE",
"298 1052 OFFCURVE",
"213 1052 QCURVE SMOOTH",
"87 1052 OFFCURVE",
"-16 1076 OFFCURVE",
"-44 1120 QCURVE SMOOTH",
"-68 1160 LINE",
"-91 1130 LINE SMOOTH",
"-134 1074 OFFCURVE",
"-161 1018 OFFCURVE",
"-162 967 QCURVE",
"-122 934 LINE",
"-84 848 LINE",
"-14 829 OFFCURVE",
"30 821 QCURVE",
"26 811 OFFCURVE",
"2 758 OFFCURVE",
"-3 742 OFFCURVE",
"-11 708 OFFCURVE",
"-11 691 QCURVE SMOOTH",
"-11 654 OFFCURVE",
"5 584 QCURVE SMOOTH"
);
}
);
width = 1041;
}
);
note = samekh;
unicode = 05E1;
},
{
glyphname = ayin;
lastChange = "2018-07-29 16:34:27 +0000";
layers = (
{
layerId = "44BDE90C-78B7-4A9A-A14D-6B569C2B6751";
paths = (
{
closed = 1;
nodes = (
"310 264 OFFCURVE",
"283 248 OFFCURVE",
"252 236 OFFCURVE",
"227 226 OFFCURVE",
"192 217 OFFCURVE",
"171 212 OFFCURVE",
"132 206 OFFCURVE",
"118 204 OFFCURVE",
"79 198 OFFCURVE",
"76 198 QCURVE",
"76 171 LINE",
"70 146 OFFCURVE",
"70 118 QCURVE SMOOTH",
"70 68 OFFCURVE",
"107 -56 OFFCURVE",
"139 -125 OFFCURVE",
"147 -137 QCURVE",
"174 -123 LINE",
"249 -91 OFFCURVE",
"355 -41 OFFCURVE",
"485 33 OFFCURVE",
"573 105 OFFCURVE",
"663 205 OFFCURVE",
"716 315 OFFCURVE",
"750 458 OFFCURVE",
"750 540 QCURVE SMOOTH",
"750 651 OFFCURVE",
"721 782 QCURVE",
"752 796 LINE",
"790 970 LINE",
"766 981 LINE SMOOTH",
"741 993 OFFCURVE",
"646 1030 OFFCURVE",
"589 1055 OFFCURVE",
"508 1111 OFFCURVE",
"472 1149 QCURVE",
"450 1166 LINE",
"428 1149 LINE",
"347 1096 OFFCURVE",
"347 1010 QCURVE SMOOTH",
"347 993 OFFCURVE",
"354 956 OFFCURVE",
"363 928 OFFCURVE",
"373 906 OFFCURVE",
"381 890 OFFCURVE",
"381 889 QCURVE",
"397 870 OFFCURVE",
"434 841 OFFCURVE",
"484 820 OFFCURVE",
"509 811 OFFCURVE",
"570 794 OFFCURVE",
"573 793 QCURVE",
"573 743 LINE SMOOTH",
"573 610 OFFCURVE",
"505 397 OFFCURVE",
"441 348 QCURVE",
"431 392 OFFCURVE",
"358 501 OFFCURVE",
"280 591 OFFCURVE",
"202 719 OFFCURVE",
"188 778 QCURVE",
"195 840 OFFCURVE",
"239 959 QCURVE",
"251 974 LINE",
"216 985 LINE SMOOTH",
"56 1035 OFFCURVE",
"-61 1117 QCURVE SMOOTH",
"-87 1135 LINE",
"-100 1117 LINE",
"-132 1060 OFFCURVE",
"-132 987 QCURVE SMOOTH",
"-132 933 OFFCURVE",
"-116 865 QCURVE SMOOTH",
"-110 840 LINE",
"-91 820 OFFCURVE",
"-55 792 OFFCURVE",
"-19 776 OFFCURVE",
"-1 769 OFFCURVE",
"16 765 QCURVE SMOOTH",
"34 761 LINE",
"34 754 LINE SMOOTH",
"34 707 OFFCURVE",
"69 610 OFFCURVE",
"135 509 OFFCURVE",
"200 426 OFFCURVE",
"294 311 OFFCURVE",
"322 273 QCURVE"
);
}
);
width = 1086;
}
);
note = ayin;
unicode = 05E2;
},
{
glyphname = finalpe;
lastChange = "2018-07-29 16:34:27 +0000";
layers = (
{
layerId = "44BDE90C-78B7-4A9A-A14D-6B569C2B6751";
paths = (
{
closed = 1;
nodes = (
"-56 599 OFFCURVE",
"-56 572 QCURVE SMOOTH",
"-56 557 OFFCURVE",
"-49 524 OFFCURVE",
"-37 494 OFFCURVE",
"-22 465 OFFCURVE",
"-6 441 OFFCURVE",
"10 419 OFFCURVE",
"22 405 OFFCURVE",
"26 400 QCURVE SMOOTH",
"30 395 LINE",
"8 401 LINE",
"44 386 LINE",
"100 365 OFFCURVE",
"154 365 QCURVE SMOOTH",
"205 365 OFFCURVE",
"288 392 QCURVE",
"309 444 OFFCURVE",
"309 489 QCURVE SMOOTH",
"309 558 OFFCURVE",
"262 637 QCURVE SMOOTH",
"245 667 LINE",
"214 654 LINE SMOOTH",
"176 639 OFFCURVE",
"150 639 QCURVE SMOOTH",
"78 639 OFFCURVE",
"47 768 QCURVE",
"47 789 OFFCURVE",
"51 813 OFFCURVE",
"66 844 OFFCURVE",
"104 862 OFFCURVE",
"134 866 QCURVE",
"219 866 OFFCURVE",
"361 820 OFFCURVE",
"444 768 QCURVE SMOOTH",
"469 752 OFFCURVE",
"500 721 OFFCURVE",
"554 638 OFFCURVE",
"608 475 OFFCURVE",
"636 354 QCURVE SMOOTH",
"640 336 OFFCURVE",
"653 256 OFFCURVE",
"658 235 QCURVE SMOOTH",
"681 134 OFFCURVE",
"798 -186 OFFCURVE",
"813 -249 QCURVE SMOOTH",
"823 -289 LINE SMOOTH",
"829 -316 OFFCURVE",
"832 -357 QCURVE SMOOTH",
"836 -400 LINE",
"875 -390 LINE",
"921 -376 OFFCURVE",
"960 -318 OFFCURVE",
"960 -262 QCURVE SMOOTH",
"960 -241 OFFCURVE",
"959 -229 QCURVE",
"865 171 LINE SMOOTH",
"782 526 OFFCURVE",
"659 875 OFFCURVE",
"581 938 QCURVE SMOOTH",
"539 974 OFFCURVE",
"416 1012 OFFCURVE",
"270 1037 OFFCURVE",
"234 1050 QCURVE",
"230 1052 OFFCURVE",
"197 1070 OFFCURVE",
"189 1075 OFFCURVE",
"162 1092 OFFCURVE",
"152 1100 OFFCURVE",
"131 1116 OFFCURVE",
"119 1130 OFFCURVE",
"103 1149 OFFCURVE",
"97 1159 QCURVE SMOOTH",
"83 1183 LINE",
"53 1176 LINE",
"14 1165 OFFCURVE",
"-38 1097 OFFCURVE",
"-60 1025 OFFCURVE",
"-68 973 QCURVE",
"-33 918 LINE",
"-92 855 OFFCURVE",
"-92 782 QCURVE SMOOTH",
"-92 727 OFFCURVE",
"-44 623 QCURVE"
);
}
);
width = 963;
}
);
note = finalpe;
unicode = 05E3;
},
{
glyphname = pe;
lastChange = "2018-07-29 16:34:27 +0000";
layers = (
{
layerId = "44BDE90C-78B7-4A9A-A14D-6B569C2B6751";
paths = (
{
closed = 1;
nodes = (
"-44 574 OFFCURVE",
"-44 534 QCURVE SMOOTH",
"-44 514 OFFCURVE",
"-40 497 QCURVE SMOOTH",
"-33 467 OFFCURVE",
"-12 427 OFFCURVE",
"27 398 OFFCURVE",
"58 384 OFFCURVE",
"92 371 QCURVE",
"151 363 OFFCURVE",
"195 363 QCURVE SMOOTH",
"245 363 OFFCURVE",
"296 371 QCURVE",
"300 383 OFFCURVE",
"317 430 OFFCURVE",
"326 457 OFFCURVE",
"334 498 OFFCURVE",
"334 516 QCURVE SMOOTH",
"334 567 OFFCURVE",
"306 619 QCURVE SMOOTH",
"284 663 LINE",
"252 634 LINE SMOOTH",
"230 615 OFFCURVE",
"201 615 QCURVE SMOOTH",
"171 615 OFFCURVE",
"137 635 QCURVE",
"128 641 OFFCURVE",
"96 710 OFFCURVE",
"87 744 QCURVE SMOOTH",
"83 760 OFFCURVE",
"83 776 QCURVE SMOOTH",
"83 847 OFFCURVE",
"171 847 QCURVE SMOOTH",
"306 847 OFFCURVE",
"446 815 OFFCURVE",
"520 768 QCURVE SMOOTH",
"625 699 OFFCURVE",
"713 325 QCURVE",
"601 281 OFFCURVE",
"270 233 OFFCURVE",
"95 233 QCURVE SMOOTH",
"81 233 LINE",
"50 174 OFFCURVE",
"50 99 QCURVE SMOOTH",
"50 46 OFFCURVE",
"63 -7 QCURVE SMOOTH",
"69 -35 LINE",
"97 -35 LINE SMOOTH",
"667 -35 OFFCURVE",
"856 43 QCURVE",
"860 51 OFFCURVE",
"877 81 OFFCURVE",
"885 98 OFFCURVE",
"892 130 OFFCURVE",
"892 148 QCURVE SMOOTH",
"892 156 LINE",
"888 250 OFFCURVE",
"850 484 OFFCURVE",
"783 736 OFFCURVE",
"670 950 OFFCURVE",
"601 999 QCURVE",
"557 1026 OFFCURVE",
"389 1057 OFFCURVE",
"246 1069 OFFCURVE",
"126 1116 OFFCURVE",
"116 1159 QCURVE SMOOTH",
"112 1176 LINE",
"79 1189 OFFCURVE",
"64 1189 QCURVE SMOOTH",
"16 1189 OFFCURVE",
"-50 1068 OFFCURVE",
"-50 1001 QCURVE SMOOTH",
"-50 985 OFFCURVE",
"-44 961 QCURVE",
"-16 917 LINE",
"-76 845 OFFCURVE",
"-76 775 QCURVE SMOOTH",
"-76 704 OFFCURVE",
"-28 611 QCURVE"
);
}
);
width = 1013;
}
);
note = pe;
unicode = 05E4;
},
{
glyphname = finaltsadi;
lastChange = "2018-07-29 16:34:27 +0000";
layers = (
{
layerId = "44BDE90C-78B7-4A9A-A14D-6B569C2B6751";
paths = (
{
closed = 1;
nodes = (
"698 947 LINE",
"658 962 OFFCURVE",
"570 1032 OFFCURVE",
"517 1088 OFFCURVE",
"470 1141 QCURVE",
"459 1144 LINE",
"457 1144 OFFCURVE",
"453 1143 QCURVE",
"438 1141 OFFCURVE",
"421 1137 OFFCURVE",
"388 1124 OFFCURVE",
"368 1107 OFFCURVE",
"340 1074 OFFCURVE",
"324 1030 OFFCURVE",
"310 964 OFFCURVE",
"308 923 QCURVE",
"310 899 LINE",
"388 828 LINE",
"277 756 OFFCURVE",
"239 624 QCURVE",
"226 651 OFFCURVE",
"215 699 QCURVE SMOOTH",
"207 731 LINE SMOOTH",
"203 748 OFFCURVE",
"203 753 QCURVE",
"218 761 LINE",
"219 765 OFFCURVE",
"249 843 OFFCURVE",
"260 913 OFFCURVE",
"260 970 QCURVE",
"262 971 LINE",
"225 1014 OFFCURVE",
"126 1076 OFFCURVE",
"48 1102 OFFCURVE",
"-25 1138 OFFCURVE",
"-40 1159 QCURVE",
"-66 1191 LINE",
"-86 1159 LINE SMOOTH",
"-96 1144 OFFCURVE",
"-111 1116 OFFCURVE",
"-123 1087 OFFCURVE",
"-132 1067 OFFCURVE",
"-138 1037 OFFCURVE",
"-142 1024 OFFCURVE",
"-145 991 OFFCURVE",
"-146 983 OFFCURVE",
"-149 945 OFFCURVE",
"-149 942 QCURVE",
"-148 920 LINE",
"-102 873 OFFCURVE",
"-39 829 OFFCURVE",
"42 785 QCURVE",
"102 532 OFFCURVE",
"224 287 QCURVE SMOOTH",
"285 153 OFFCURVE",
"410 -299 OFFCURVE",
"418 -390 QCURVE",
"418 -435 LINE",
"469 -394 LINE SMOOTH",
"560 -324 OFFCURVE",
"560 -157 QCURVE SMOOTH",
"560 -96 OFFCURVE",
"546 -35 QCURVE SMOOTH",
"541 -13 OFFCURVE",
"510 75 OFFCURVE",
"505 98 QCURVE SMOOTH",
"501 118 OFFCURVE",
"448 226 OFFCURVE",
"386 368 OFFCURVE",
"372 430 QCURVE SMOOTH",
"364 467 OFFCURVE",
"364 492 QCURVE SMOOTH",
"364 548 OFFCURVE",
"411 639 QCURVE SMOOTH",
"428 670 OFFCURVE",
"478 718 OFFCURVE",
"524 740 OFFCURVE",
"554 750 OFFCURVE",
"566 750 OFFCURVE",
"591 748 OFFCURVE",
"599 748 QCURVE",
"608 744 LINE",
"618 739 OFFCURVE",
"641 730 OFFCURVE",
"648 730 QCURVE SMOOTH",
"663 730 LINE",
"691 798 OFFCURVE",
"711 886 OFFCURVE",
"716 921 OFFCURVE",
"727 938 QCURVE"
);
}
);
width = 1015;
}
);
note = finaltsadi;
unicode = 05E5;
},
{
glyphname = tsadi;
lastChange = "2018-07-29 16:34:27 +0000";
layers = (
{
layerId = "44BDE90C-78B7-4A9A-A14D-6B569C2B6751";
paths = (
{
closed = 1;
nodes = (
"488 522 OFFCURVE",
"488 560 QCURVE SMOOTH",
"488 567 OFFCURVE",
"490 585 QCURVE",
"494 601 OFFCURVE",
"501 651 OFFCURVE",
"508 673 OFFCURVE",
"531 709 OFFCURVE",
"576 745 OFFCURVE",
"614 768 QCURVE",
"618 766 OFFCURVE",
"640 756 OFFCURVE",
"654 750 OFFCURVE",
"676 745 OFFCURVE",
"688 745 QCURVE SMOOTH",
"702 745 OFFCURVE",
"709 758 QCURVE",
"716 773 OFFCURVE",
"757 903 OFFCURVE",
"766 942 QCURVE",
"719 978 OFFCURVE",
"609 1057 OFFCURVE",
"538 1111 OFFCURVE",
"503 1146 QCURVE SMOOTH",
"480 1168 LINE",
"462 1149 LINE",
"419 1109 OFFCURVE",
"377 1030 OFFCURVE",
"351 954 OFFCURVE",
"334 930 QCURVE",
"350 916 LINE",
"390 875 OFFCURVE",
"430 854 QCURVE",
"397 810 OFFCURVE",
"349 677 OFFCURVE",
"339 614 QCURVE",
"233 677 OFFCURVE",
"206 763 QCURVE",
"248 755 LINE",
"240 790 LINE",
"239 793 OFFCURVE",
"239 805 QCURVE SMOOTH",
"239 818 OFFCURVE",
"247 921 OFFCURVE",
"247 949 QCURVE SMOOTH",
"247 963 OFFCURVE",
"245 983 QCURVE SMOOTH",
"243 1005 LINE",
"216 1012 LINE SMOOTH",
"140 1032 OFFCURVE",
"10 1108 OFFCURVE",
"-24 1163 QCURVE SMOOTH",
"-40 1188 LINE",
"-64 1178 LINE SMOOTH",
"-85 1169 OFFCURVE",
"-112 1101 OFFCURVE",
"-122 1010 OFFCURVE",
"-125 959 OFFCURVE",
"-125 938 QCURVE SMOOTH",
"-125 934 LINE",
"-120 924 LINE",
"-115 911 LINE",
"-67 860 OFFCURVE",
"12 806 OFFCURVE",
"61 787 QCURVE",
"70 749 OFFCURVE",
"95 685 OFFCURVE",
"179 557 OFFCURVE",
"247 481 QCURVE SMOOTH",
"272 454 OFFCURVE",
"320 414 OFFCURVE",
"390 364 OFFCURVE",
"412 347 QCURVE SMOOTH",
"511 268 LINE",
"383 221 OFFCURVE",
"231 221 QCURVE SMOOTH",
"213 221 OFFCURVE",
"129 213 OFFCURVE",
"115 213 QCURVE SMOOTH",
"97 213 LINE",
"76 91 OFFCURVE",
"76 50 QCURVE SMOOTH",
"76 17 OFFCURVE",
"77 -7 QCURVE SMOOTH",
"78 -44 LINE",
"115 -40 LINE SMOOTH",
"162 -34 OFFCURVE",
"357 -14 OFFCURVE",
"450 0 QCURVE",
"459 2 OFFCURVE",
"522 12 OFFCURVE",
"550 17 OFFCURVE",
"611 29 OFFCURVE",
"643 39 OFFCURVE",
"695 58 OFFCURVE",
"723 76 OFFCURVE",
"759 104 OFFCURVE",
"778 134 OFFCURVE",
"791 174 OFFCURVE",
"791 197 QCURVE SMOOTH",
"791 208 OFFCURVE",
"790 214 QCURVE",
"779 261 OFFCURVE",
"700 362 OFFCURVE",
"591 448 OFFCURVE",
"536 487 OFFCURVE",
"509 504 QCURVE"
);
}
);
width = 1052;
}
);
note = tsadi;
unicode = 05E6;
},
{
glyphname = qof;
lastChange = "2018-07-29 16:34:27 +0000";
layers = (
{
layerId = "44BDE90C-78B7-4A9A-A14D-6B569C2B6751";
paths = (
{
closed = 1;
nodes = (
"44 729 OFFCURVE",
"44 692 QCURVE SMOOTH",
"44 671 OFFCURVE",
"50 644 QCURVE SMOOTH",
"74 539 OFFCURVE",
"203 97 OFFCURVE",
"289 -261 OFFCURVE",
"293 -382 QCURVE SMOOTH",
"298 -466 LINE",
"345 -407 LINE SMOOTH",
"350 -401 OFFCURVE",
"396 -351 OFFCURVE",
"426 -313 OFFCURVE",
"463 -254 OFFCURVE",
"483 -185 OFFCURVE",
"483 -149 QCURVE SMOOTH",
"483 -119 OFFCURVE",
"476 -90 QCURVE SMOOTH",
"448 32 OFFCURVE",
"274 407 OFFCURVE",
"242 510 QCURVE SMOOTH",
"161 771 LINE",
"298 791 OFFCURVE",
"550 793 QCURVE",
"580 763 OFFCURVE",
"616 723 OFFCURVE",
"660 657 OFFCURVE",
"675 621 QCURVE",
"473 372 LINE",
"471 368 OFFCURVE",
"446 321 OFFCURVE",
"436 298 OFFCURVE",
"424 256 OFFCURVE",
"424 237 QCURVE SMOOTH",
"424 223 OFFCURVE",
"427 208 QCURVE SMOOTH",
"445 129 OFFCURVE",
"510 103 QCURVE",
"536 97 LINE",
"570 183 OFFCURVE",
"648 306 OFFCURVE",
"730 375 OFFCURVE",
"786 407 OFFCURVE",
"825 422 QCURVE",
"830 449 OFFCURVE",
"830 493 QCURVE SMOOTH",
"830 631 OFFCURVE",
"714 972 OFFCURVE",
"626 1079 QCURVE",
"446 1053 OFFCURVE",
"302 1053 QCURVE SMOOTH",
"251 1053 LINE SMOOTH",
"-9 1053 OFFCURVE",
"-68 1145 QCURVE SMOOTH",
"-96 1187 LINE",
"-116 1152 LINE",
"-157 1086 OFFCURVE",
"-157 1025 QCURVE SMOOTH",
"-157 980 OFFCURVE",
"-133 874 QCURVE",
"-82 840 OFFCURVE",
"-15 814 OFFCURVE",
"68 793 QCURVE"
);
}
);
width = 1028;
}
);
note = qof;
unicode = 05E7;
},
{
glyphname = resh;
lastChange = "2018-07-29 16:34:27 +0000";
layers = (
{
layerId = "44BDE90C-78B7-4A9A-A14D-6B569C2B6751";
paths = (
{
closed = 1;
nodes = (
"747 184 OFFCURVE",
"747 126 QCURVE SMOOTH",
"747 86 OFFCURVE",
"741 52 QCURVE SMOOTH",
"732 -5 LINE",
"825 -39 LINE",
"888 18 OFFCURVE",
"888 164 QCURVE SMOOTH",
"888 265 OFFCURVE",
"858 393 QCURVE SMOOTH",
"813 589 LINE SMOOTH",
"799 648 OFFCURVE",
"773 743 OFFCURVE",
"734 856 OFFCURVE",
"688 939 OFFCURVE",
"631 1012 OFFCURVE",
"558 1050 OFFCURVE",
"516 1050 QCURVE SMOOTH",
"94 1050 LINE",
"80 1053 OFFCURVE",
"53 1060 OFFCURVE",
"34 1067 OFFCURVE",
"12 1080 OFFCURVE",
"0 1087 OFFCURVE",
"-21 1103 OFFCURVE",
"-28 1109 OFFCURVE",
"-48 1128 OFFCURVE",
"-51 1130 QCURVE",
"-76 1151 LINE",
"-91 1131 LINE SMOOTH",
"-141 1066 OFFCURVE",
"-148 917 QCURVE",
"-105 881 LINE",
"-53 783 LINE",
"508 783 LINE",
"556 760 OFFCURVE",
"697 404 OFFCURVE",
"732 253 QCURVE SMOOTH"
);
}
);
width = 1021;
}
);
note = resh;
unicode = 05E8;
},
{
glyphname = shin;
lastChange = "2018-07-29 16:34:27 +0000";
layers = (
{
layerId = "44BDE90C-78B7-4A9A-A14D-6B569C2B6751";
paths = (
{
closed = 1;
nodes = (
"341 316 OFFCURVE",
"216 556 QCURVE",
"214 559 OFFCURVE",
"186 610 OFFCURVE",
"174 635 OFFCURVE",
"154 683 OFFCURVE",
"145 724 OFFCURVE",
"145 744 QCURVE SMOOTH",
"145 769 OFFCURVE",
"154 793 QCURVE",
"174 810 OFFCURVE",
"234 913 OFFCURVE",
"234 956 QCURVE SMOOTH",
"234 964 OFFCURVE",
"233 968 QCURVE",
"225 974 LINE",
"39 1094 LINE",
"7 1130 OFFCURVE",
"-5 1182 QCURVE SMOOTH",
"-12 1213 LINE",
"-48 1182 LINE",
"-73 1162 OFFCURVE",
"-111 1109 OFFCURVE",
"-130 1063 OFFCURVE",
"-142 1009 OFFCURVE",
"-144 976 OFFCURVE",
"-145 939 OFFCURVE",
"-145 938 QCURVE",
"-142 905 LINE",
"7 814 LINE",
"19 808 OFFCURVE",
"19 792 QCURVE SMOOTH",
"19 788 OFFCURVE",
"16 754 OFFCURVE",
"16 740 QCURVE SMOOTH",
"16 696 OFFCURVE",
"29 637 QCURVE SMOOTH",
"38 598 LINE",
"309 44 LINE",
"343 -18 OFFCURVE",
"450 -18 QCURVE SMOOTH",
"478 -18 OFFCURVE",
"499 -6 QCURVE",
"527 4 OFFCURVE",
"584 31 OFFCURVE",
"648 72 OFFCURVE",
"691 99 OFFCURVE",
"766 156 OFFCURVE",
"793 178 OFFCURVE",
"878 246 OFFCURVE",
"885 252 QCURVE",
"935 280 LINE",
"982 642 LINE",
"984 669 OFFCURVE",
"1023 711 OFFCURVE",
"1045 711 QCURVE SMOOTH",
"1058 711 LINE",
"1062 719 OFFCURVE",
"1091 769 OFFCURVE",
"1095 778 OFFCURVE",
"1111 814 OFFCURVE",
"1113 836 OFFCURVE",
"1119 876 OFFCURVE",
"1120 901 QCURVE",
"1124 904 LINE",
"951 1025 LINE SMOOTH",
"941 1032 OFFCURVE",
"916 1082 OFFCURVE",
"906 1108 QCURVE",
"895 1133 LINE",
"890 1134 LINE",
"884 1134 OFFCURVE",
"872 1135 OFFCURVE",
"870 1135 QCURVE SMOOTH",
"854 1135 LINE",
"821 1112 OFFCURVE",
"782 1054 OFFCURVE",
"771 1016 OFFCURVE",
"759 944 OFFCURVE",
"756 930 QCURVE",
"755 905 LINE",
"878 810 LINE",
"759 423 LINE",
"736 365 OFFCURVE",
"625 271 OFFCURVE",
"557 271 QCURVE SMOOTH",
"551 271 OFFCURVE",
"526 272 OFFCURVE",
"519 272 QCURVE",
"530 602 LINE SMOOTH",
"531 689 OFFCURVE",
"597 745 QCURVE",
"611 758 OFFCURVE",
"623 761 OFFCURVE",
"632 756 QCURVE",
"657 747 LINE",
"677 776 OFFCURVE",
"703 854 OFFCURVE",
"710 901 OFFCURVE",
"711 919 QCURVE",
"714 922 LINE",
"690 939 OFFCURVE",
"617 991 OFFCURVE",
"584 1015 OFFCURVE",
"534 1052 OFFCURVE",
"512 1073 OFFCURVE",
"485 1101 OFFCURVE",
"473 1125 OFFCURVE",
"470 1138 QCURVE SMOOTH",
"462 1175 LINE",
"422 1138 LINE SMOOTH",
"343 1069 OFFCURVE",
"322 1021 QCURVE SMOOTH",
"311 996 OFFCURVE",
"302 921 QCURVE",
"303 886 LINE",
"416 826 LINE",
"381 738 OFFCURVE",
"356 630 OFFCURVE",
"356 573 QCURVE SMOOTH",
"356 540 OFFCURVE",
"369 361 OFFCURVE",
"371 293 QCURVE"
);
}
);
width = 1406;
}
);
note = shin;
unicode = 05E9;
},
{
glyphname = tav;
lastChange = "2018-07-29 16:34:27 +0000";
layers = (
{
layerId = "44BDE90C-78B7-4A9A-A14D-6B569C2B6751";
paths = (
{
closed = 1;
nodes = (
"170 256 OFFCURVE",
"129 235 OFFCURVE",
"49 204 OFFCURVE",
"20 191 QCURVE",
"20 181 LINE SMOOTH",
"20 135 OFFCURVE",
"40 65 OFFCURVE",
"85 -27 OFFCURVE",
"93 -46 QCURVE",
"104 -75 LINE",
"132 -68 LINE SMOOTH",
"191 -53 OFFCURVE",
"325 4 OFFCURVE",
"396 42 OFFCURVE",
"474 84 QCURVE",
"419 320 LINE",
"356 320 LINE",
"236 504 OFFCURVE",
"236 644 QCURVE SMOOTH",
"236 708 OFFCURVE",
"283 786 OFFCURVE",
"309 788 QCURVE",
"548 788 LINE SMOOTH",
"586 788 OFFCURVE",
"617 750 QCURVE",
"647 686 OFFCURVE",
"744 485 OFFCURVE",
"791 383 OFFCURVE",
"849 240 OFFCURVE",
"880 118 OFFCURVE",
"888 52 QCURVE",
"1002 -36 LINE",
"1010 0 LINE",
"1026 87 OFFCURVE",
"1026 140 QCURVE SMOOTH",
"1026 196 OFFCURVE",
"1011 263 QCURVE",
"791 837 LINE",
"787 846 OFFCURVE",
"764 898 OFFCURVE",
"753 922 OFFCURVE",
"728 968 OFFCURVE",
"709 992 OFFCURVE",
"677 1024 OFFCURVE",
"645 1040 OFFCURVE",
"600 1052 OFFCURVE",
"575 1052 QCURVE SMOOTH",
"138 1052 LINE SMOOTH",
"86 1052 OFFCURVE",
"29 1073 OFFCURVE",
"-3 1112 QCURVE SMOOTH",
"-28 1143 LINE",
"-48 1118 LINE SMOOTH",
"-83 1072 OFFCURVE",
"-83 971 QCURVE SMOOTH",
"-83 914 OFFCURVE",
"-72 866 QCURVE SMOOTH",
"-68 847 OFFCURVE",
"-57 839 OFFCURVE",
"-52 828 QCURVE",
"127 797 LINE",
"126 796 OFFCURVE",
"114 775 OFFCURVE",
"110 769 OFFCURVE",
"99 747 OFFCURVE",
"94 737 OFFCURVE",
"85 715 OFFCURVE",
"81 701 OFFCURVE",
"74 677 OFFCURVE",
"71 657 OFFCURVE",
"69 633 OFFCURVE",
"69 620 QCURVE SMOOTH",
"69 480 OFFCURVE",
"193 273 QCURVE"
);
}
);
width = 1105;
}
);
note = tav;
unicode = 05EA;
},
{
glyphname = geresh;
lastChange = "2018-07-29 16:34:27 +0000";
layers = (
{
layerId = "44BDE90C-78B7-4A9A-A14D-6B569C2B6751";
paths = (
{
closed = 1;
nodes = (
"6 1161 LINE",
"5 1161 OFFCURVE",
"-15 1164 OFFCURVE",
"-21 1164 QCURVE SMOOTH",
"-56 1164 OFFCURVE",
"-64 1134 QCURVE",
"-67 1104 OFFCURVE",
"-67 1031 QCURVE SMOOTH",
"-67 971 OFFCURVE",
"-64 804 OFFCURVE",
"-60 684 OFFCURVE",
"-60 683 QCURVE",
"-40 674 LINE",
"-8 658 OFFCURVE",
"19 658 QCURVE SMOOTH",
"35 658 LINE",
"102 860 LINE",
"173 1052 LINE",
"163 1095 OFFCURVE",
"152 1122 QCURVE"
);
}
);
width = 451;
}
);
note = geresh;
unicode = 05F3;
},
{
glyphname = quoteleft;
lastChange = "2018-07-29 16:34:27 +0000";
layers = (
{
layerId = "44BDE90C-78B7-4A9A-A14D-6B569C2B6751";
paths = (
{
closed = 1;
nodes = (
"12 1395 LINE",
"-14 1508 OFFCURVE",
"-135 1508 QCURVE SMOOTH",
"-236 1508 OFFCURVE",
"-236 1428 QCURVE SMOOTH",
"-236 1411 OFFCURVE",
"-232 1395 QCURVE SMOOTH",
"-225 1364 LINE",
"-95 1028 LINE",
"-90 1013 OFFCURVE",
"-82 989 QCURVE SMOOTH",
"-64 933 OFFCURVE",
"-47 914 OFFCURVE",
"-13 910 QCURVE SMOOTH",
"-3 909 OFFCURVE",
"3 908 QCURVE",
"19 908 OFFCURVE",
"41 913 OFFCURVE",
"51 921 OFFCURVE",
"56 929 OFFCURVE",
"58 937 OFFCURVE",
"58 938 QCURVE"
);
}
);
width = 422;
}
);
note = quoteleft;
unicode = 2018;
},
{
glyphname = quoteright;
lastChange = "2018-07-29 16:34:27 +0000";
layers = (
{
layerId = "44BDE90C-78B7-4A9A-A14D-6B569C2B6751";
paths = (
{
closed = 1;
nodes = (
"12 1395 LINE",
"-14 1508 OFFCURVE",
"-135 1508 QCURVE SMOOTH",
"-236 1508 OFFCURVE",
"-236 1428 QCURVE SMOOTH",
"-236 1411 OFFCURVE",
"-232 1395 QCURVE SMOOTH",
"-225 1364 LINE",
"-95 1028 LINE",
"-90 1013 OFFCURVE",
"-82 989 QCURVE SMOOTH",
"-64 933 OFFCURVE",
"-47 914 OFFCURVE",
"-13 910 QCURVE SMOOTH",
"-3 909 OFFCURVE",
"3 908 QCURVE",
"19 908 OFFCURVE",
"41 913 OFFCURVE",
"51 921 OFFCURVE",
"56 929 OFFCURVE",
"58 937 OFFCURVE",
"58 938 QCURVE"
);
}
);
width = 422;
}
);
note = quoteright;
unicode = 2019;
},
{
glyphname = newsheqel;
lastChange = "2018-07-29 16:34:27 +0000";
layers = (
{
layerId = "44BDE90C-78B7-4A9A-A14D-6B569C2B6751";
paths = (
{
closed = 1;
nodes = (
"327 800 LINE SMOOTH",
"418 800 OFFCURVE",
"477 807 QCURVE",
"484 734 OFFCURVE",
"531 587 OFFCURVE",
"582 478 OFFCURVE",
"644 322 OFFCURVE",
"662 251 QCURVE",
"625 251 OFFCURVE",
"491 398 OFFCURVE",
"472 479 QCURVE",
"472 481 OFFCURVE",
"471 484 QCURVE",
"468 497 OFFCURVE",
"469 502 OFFCURVE",
"475 504 QCURVE SMOOTH",
"485 507 OFFCURVE",
"494 513 QCURVE",
"480 684 LINE",
"458 684 LINE",
"272 742 OFFCURVE",
"258 800 QCURVE"
);
},
{
closed = 1;
nodes = (
"221 800 LINE",
"190 778 OFFCURVE",
"190 709 QCURVE SMOOTH",
"190 670 OFFCURVE",
"201 610 QCURVE SMOOTH",
"202 604 OFFCURVE",
"231 564 OFFCURVE",
"236 555 QCURVE",
"240 538 LINE",
"269 526 OFFCURVE",
"317 516 OFFCURVE",
"324 514 QCURVE",
"354 473 OFFCURVE",
"403 328 OFFCURVE",
"427 285 QCURVE SMOOTH",
"465 215 OFFCURVE",
"551 121 OFFCURVE",
"679 6 OFFCURVE",
"730 -52 QCURVE SMOOTH",
"763 -90 OFFCURVE",
"804 -90 QCURVE SMOOTH",
"857 -90 OFFCURVE",
"900 -35 QCURVE SMOOTH",
"955 35 OFFCURVE",
"1028 175 OFFCURVE",
"1061 272 QCURVE",
"1061 274 LINE",
"1072 362 LINE",
"1062 408 OFFCURVE",
"991 635 OFFCURVE",
"991 690 QCURVE SMOOTH",
"991 712 OFFCURVE",
"996 742 QCURVE",
"998 749 OFFCURVE",
"1026 764 OFFCURVE",
"1036 773 QCURVE",
"986 988 LINE",
"865 1041 LINE SMOOTH",
"754 1089 OFFCURVE",
"738 1109 QCURVE",
"736 1119 LINE",
"712 1119 LINE",
"689 1103 OFFCURVE",
"664 1030 OFFCURVE",
"664 988 QCURVE SMOOTH",
"664 977 OFFCURVE",
"666 955 QCURVE",
"639 1069 LINE",
"610 1069 LINE",
"505 1049 OFFCURVE",
"331 1049 QCURVE SMOOTH",
"288 1049 OFFCURVE",
"112 1052 OFFCURVE",
"68 1052 QCURVE SMOOTH",
"49 1052 LINE SMOOTH",
"4 1052 OFFCURVE",
"-75 1116 QCURVE",
"-103 1116 LINE",
"-101 1110 LINE",
"-143 1096 OFFCURVE",
"-143 990 QCURVE SMOOTH",
"-143 888 OFFCURVE",
"-101 818 QCURVE",
"-97 800 LINE",
"-12 800 LINE",
"-12 771 LINE SMOOTH",
"-12 677 OFFCURVE",
"68 417 OFFCURVE",
"179 117 OFFCURVE",
"199 29 QCURVE SMOOTH",
"219 -58 LINE",
"254 5 LINE SMOOTH",
"325 134 OFFCURVE",
"348 208 QCURVE",
"340 245 OFFCURVE",
"248 459 OFFCURVE",
"172 677 OFFCURVE",
"172 744 QCURVE SMOOTH",
"172 777 OFFCURVE",
"182 800 QCURVE"
);
},
{
closed = 1;
nodes = (
"733 246 LINE",
"804 437 LINE",
"792 468 OFFCURVE",
"689 627 OFFCURVE",
"672 702 QCURVE SMOOTH",
"666 730 OFFCURVE",
"666 752 QCURVE SMOOTH",
"666 806 OFFCURVE",
"709 831 QCURVE",
"852 779 LINE",
"941 394 LINE",
"895 295 OFFCURVE",
"797 246 QCURVE"
);
}
);
width = 1389;
}
);
note = newsheqel;
unicode = 20AA;
},
{
glyphname = Euro;
lastChange = "2018-07-29 16:34:27 +0000";
layers = (
{
layerId = "44BDE90C-78B7-4A9A-A14D-6B569C2B6751";
paths = (
{
closed = 1;
nodes = (
"1021 154 OFFCURVE",
"1021 165 QCURVE SMOOTH",
"1021 241 OFFCURVE",
"947 241 QCURVE SMOOTH",
"941 241 OFFCURVE",
"928 240 OFFCURVE",
"912 238 OFFCURVE",
"908 238 QCURVE",
"807 164 OFFCURVE",
"707 164 QCURVE SMOOTH",
"600 164 OFFCURVE",
"400 294 OFFCURVE",
"329 385 QCURVE",
"341 383 OFFCURVE",
"448 365 OFFCURVE",
"477 360 OFFCURVE",
"568 346 OFFCURVE",
"607 341 OFFCURVE",
"687 332 OFFCURVE",
"742 329 OFFCURVE",
"815 326 OFFCURVE",
"850 326 QCURVE",
"881 514 LINE",
"840 514 LINE SMOOTH",
"740 516 OFFCURVE",
"698 516 QCURVE SMOOTH",
"639 516 LINE SMOOTH",
"403 516 OFFCURVE",
"266 544 QCURVE",
"264 556 LINE",
"385 556 OFFCURVE",
"802 541 OFFCURVE",
"917 541 QCURVE",
"926 765 LINE",
"885 765 LINE",
"737 740 OFFCURVE",
"511 740 QCURVE SMOOTH",
"478 740 OFFCURVE",
"339 741 OFFCURVE",
"302 741 QCURVE SMOOTH",
"246 741 LINE",
"245 751 OFFCURVE",
"245 772 QCURVE SMOOTH",
"245 807 OFFCURVE",
"254 870 OFFCURVE",
"284 940 OFFCURVE",
"331 989 OFFCURVE",
"413 1022 OFFCURVE",
"468 1022 QCURVE SMOOTH",
"500 1022 LINE SMOOTH",
"563 1022 OFFCURVE",
"652 959 OFFCURVE",
"652 913 QCURVE SMOOTH",
"652 896 OFFCURVE",
"645 879 QCURVE SMOOTH",
"619 817 LINE",
"686 838 LINE SMOOTH",
"740 856 OFFCURVE",
"778 856 QCURVE SMOOTH",
"791 856 OFFCURVE",
"824 843 OFFCURVE",
"865 821 OFFCURVE",
"874 817 QCURVE",
"913 817 LINE",
"889 921 LINE SMOOTH",
"873 991 OFFCURVE",
"808 1083 OFFCURVE",
"732 1139 QCURVE",
"731 1143 LINE",
"596 1194 OFFCURVE",
"475 1194 QCURVE SMOOTH",
"371 1194 OFFCURVE",
"205 1115 OFFCURVE",
"102 982 OFFCURVE",
"42 825 OFFCURVE",
"33 738 QCURVE",
"-27 723 OFFCURVE",
"-48 703 QCURVE SMOOTH",
"-52 699 OFFCURVE",
"-52 688 QCURVE SMOOTH",
"-52 664 OFFCURVE",
"-21 582 OFFCURVE",
"-6 564 QCURVE",
"24 564 LINE",
"30 538 LINE",
"3 538 LINE",
"-10 518 OFFCURVE",
"-10 492 QCURVE SMOOTH",
"-10 479 OFFCURVE",
"-4 449 QCURVE",
"9 396 LINE",
"81 396 LINE",
"195 164 OFFCURVE",
"530 -86 OFFCURVE",
"695 -86 QCURVE SMOOTH",
"806 -86 OFFCURVE",
"978 37 OFFCURVE",
"1020 148 QCURVE"
);
}
);
width = 1127;
}
);
note = Euro;
unicode = 20AC;
},
{
glyphname = dottedcircle;
lastChange = "2018-07-29 16:34:27 +0000";
layers = (
{
layerId = "44BDE90C-78B7-4A9A-A14D-6B569C2B6751";
paths = (
{
closed = 1;
nodes = (
"116 428 OFFCURVE",
"150 467 OFFCURVE",
"150 497 QCURVE SMOOTH",
"150 544 OFFCURVE",
"82 627 OFFCURVE",
"31 627 QCURVE SMOOTH",
"-36 627 OFFCURVE",
"-36 562 QCURVE SMOOTH",
"-36 544 OFFCURVE",
"-32 527 QCURVE SMOOTH",
"-9 428 OFFCURVE",
"73 428 QCURVE SMOOTH",
"82 428 OFFCURVE",
"82 428 QCURVE"
);
},
{
closed = 1;
nodes = (
"761 627 OFFCURVE",
"761 563 QCURVE SMOOTH",
"761 549 OFFCURVE",
"766 527 QCURVE SMOOTH",
"789 428 OFFCURVE",
"869 428 QCURVE SMOOTH",
"878 428 LINE SMOOTH",
"912 428 OFFCURVE",
"946 467 OFFCURVE",
"946 497 QCURVE SMOOTH",
"946 544 OFFCURVE",
"878 627 OFFCURVE",
"827 627 QCURVE SMOOTH"
);
},
{
closed = 1;
nodes = (
"254 1095 OFFCURVE",
"254 1030 QCURVE SMOOTH",
"254 1008 OFFCURVE",
"257 995 QCURVE SMOOTH",
"280 896 OFFCURVE",
"363 896 QCURVE SMOOTH",
"372 896 LINE SMOOTH",
"406 896 OFFCURVE",
"440 935 OFFCURVE",
"440 965 QCURVE SMOOTH",
"440 1012 OFFCURVE",
"372 1095 OFFCURVE",
"321 1095 QCURVE SMOOTH"
);
},
{
closed = 1;
nodes = (
"621 -40 OFFCURVE",
"655 -1 OFFCURVE",
"655 30 QCURVE SMOOTH",
"655 77 OFFCURVE",
"589 158 OFFCURVE",
"540 158 QCURVE SMOOTH",
"507 158 OFFCURVE",
"470 127 OFFCURVE",
"470 105 QCURVE SMOOTH",
"470 95 LINE SMOOTH",
"470 38 OFFCURVE",
"526 -40 OFFCURVE",
"588 -40 QCURVE SMOOTH"
);
},
{
closed = 1;
nodes = (
"802 662 OFFCURVE",
"840 700 OFFCURVE",
"840 721 QCURVE SMOOTH",
"840 723 LINE SMOOTH",
"840 744 OFFCURVE",
"829 786 OFFCURVE",
"805 832 OFFCURVE",
"756 861 OFFCURVE",
"723 861 QCURVE SMOOTH",
"655 861 OFFCURVE",
"655 795 QCURVE SMOOTH",
"655 787 OFFCURVE",
"659 765 QCURVE",
"683 662 OFFCURVE",
"769 662 QCURVE SMOOTH"
);
},
{
closed = 1;
nodes = (
"910 194 OFFCURVE",
"948 232 OFFCURVE",
"948 253 QCURVE SMOOTH",
"948 255 LINE SMOOTH",
"948 276 OFFCURVE",
"937 318 OFFCURVE",
"913 364 OFFCURVE",
"864 393 OFFCURVE",
"831 393 QCURVE SMOOTH",
"762 393 OFFCURVE",
"762 327 QCURVE SMOOTH",
"762 317 OFFCURVE",
"766 297 QCURVE SMOOTH",
"790 194 OFFCURVE",
"877 194 QCURVE SMOOTH"
);
},
{
closed = 1;
nodes = (
"108 662 OFFCURVE",
"146 700 OFFCURVE",
"146 721 QCURVE SMOOTH",
"146 723 LINE SMOOTH",
"146 744 OFFCURVE",
"135 786 OFFCURVE",
"111 832 OFFCURVE",
"62 861 OFFCURVE",
"29 861 QCURVE SMOOTH",
"-40 861 OFFCURVE",
"-40 795 QCURVE SMOOTH",
"-40 785 OFFCURVE",
"-36 765 QCURVE SMOOTH",
"-12 662 OFFCURVE",
"75 662 QCURVE SMOOTH"
);
},
{
closed = 1;
nodes = (
"216 194 OFFCURVE",
"254 232 OFFCURVE",
"254 253 QCURVE SMOOTH",
"254 255 LINE SMOOTH",
"254 276 OFFCURVE",
"243 318 OFFCURVE",
"219 364 OFFCURVE",
"170 393 OFFCURVE",
"137 393 QCURVE SMOOTH",
"68 393 OFFCURVE",
"68 327 QCURVE SMOOTH",
"68 317 OFFCURVE",
"72 297 QCURVE SMOOTH",
"96 194 OFFCURVE",
"183 194 QCURVE SMOOTH"
);
},
{
closed = 1;
nodes = (
"216 836 OFFCURVE",
"254 874 OFFCURVE",
"254 896 QCURVE SMOOTH",
"254 917 OFFCURVE",
"243 960 OFFCURVE",
"219 1006 OFFCURVE",
"170 1035 OFFCURVE",
"137 1035 QCURVE SMOOTH",
"102 1035 OFFCURVE",
"68 999 OFFCURVE",
"68 968 QCURVE SMOOTH",
"68 958 OFFCURVE",
"72 938 QCURVE SMOOTH",
"82 894 OFFCURVE",
"132 844 OFFCURVE",
"166 836 OFFCURVE",
"183 836 QCURVE SMOOTH"
);
},
{
closed = 1;
nodes = (
"614 836 OFFCURVE",
"652 874 OFFCURVE",
"652 896 QCURVE SMOOTH",
"652 917 OFFCURVE",
"641 960 OFFCURVE",
"617 1006 OFFCURVE",
"568 1035 OFFCURVE",
"535 1035 QCURVE SMOOTH",
"500 1035 OFFCURVE",
"466 999 OFFCURVE",
"466 968 QCURVE SMOOTH",
"466 958 OFFCURVE",
"470 938 QCURVE SMOOTH",
"480 894 OFFCURVE",
"530 844 OFFCURVE",
"564 836 OFFCURVE",
"581 836 QCURVE SMOOTH"
);
},
{
closed = 1;
nodes = (
"404 20 OFFCURVE",
"442 58 OFFCURVE",
"442 79 QCURVE SMOOTH",
"442 81 LINE SMOOTH",
"442 110 OFFCURVE",
"425 167 OFFCURVE",
"368 219 OFFCURVE",
"325 219 QCURVE SMOOTH",
"291 219 OFFCURVE",
"257 184 OFFCURVE",
"257 154 QCURVE SMOOTH",
"257 138 OFFCURVE",
"261 123 QCURVE",
"284 20 OFFCURVE",
"371 20 QCURVE SMOOTH"
);
},
{
closed = 1;
nodes = (
"802 20 OFFCURVE",
"840 58 OFFCURVE",
"840 79 QCURVE SMOOTH",
"840 81 LINE SMOOTH",
"840 110 OFFCURVE",
"823 167 OFFCURVE",
"766 219 OFFCURVE",
"723 219 QCURVE SMOOTH",
"689 219 OFFCURVE",
"655 184 OFFCURVE",
"655 154 QCURVE SMOOTH",
"655 138 OFFCURVE",
"659 123 QCURVE",
"682 20 OFFCURVE",
"769 20 QCURVE SMOOTH"
);
}
);
width = 1150;
}
);
note = dottedcircle;
unicode = 25CC;
},
{
glyphname = hiriq_yod;
lastChange = "2018-07-29 16:58:38 +0000";
layers = (
{
layerId = "44BDE90C-78B7-4A9A-A14D-6B569C2B6751";
paths = (
{
closed = 1;
nodes = (
"-114 903 LINE",
"-50 800 LINE",
"-32 800 LINE SMOOTH",
"13 800 OFFCURVE",
"70 792 OFFCURVE",
"108 766 OFFCURVE",
"127 736 OFFCURVE",
"142 673 OFFCURVE",
"150 612 OFFCURVE",
"169 502 OFFCURVE",
"181 450 QCURVE",
"300 401 LINE",
"303 430 LINE SMOOTH",
"318 630 OFFCURVE",
"318 678 QCURVE SMOOTH",
"318 742 OFFCURVE",
"302 816 QCURVE SMOOTH",
"271 947 OFFCURVE",
"212 993 QCURVE SMOOTH",
"194 1007 OFFCURVE",
"171 1023 OFFCURVE",
"155 1033 OFFCURVE",
"138 1040 OFFCURVE",
"130 1043 OFFCURVE",
"103 1050 OFFCURVE",
"95 1052 QCURVE",
"68 1060 OFFCURVE",
"45 1067 OFFCURVE",
"15 1086 OFFCURVE",
"4 1096 OFFCURVE",
"-44 1141 OFFCURVE",
"-64 1160 QCURVE",
"-82 1153 LINE",
"-104 1160 LINE",
"-156 1090 OFFCURVE",
"-156 942 QCURVE"
);
},
{
closed = 1;
nodes = (
"378 94 OFFCURVE",
"416 138 OFFCURVE",
"416 173 QCURVE SMOOTH",
"416 224 OFFCURVE",
"344 313 OFFCURVE",
"290 313 QCURVE SMOOTH",
"252 313 OFFCURVE",
"214 269 OFFCURVE",
"214 234 QCURVE SMOOTH",
"214 183 OFFCURVE",
"286 94 OFFCURVE",
"340 94 QCURVE SMOOTH"
);
}
);
width = 564;
}
);
note = hiriq_yod;
unicode = FB1D;
},
{
glyphname = ayinalt;
lastChange = "2018-07-29 16:34:27 +0000";
layers = (
{
layerId = "44BDE90C-78B7-4A9A-A14D-6B569C2B6751";
paths = (
{
closed = 1;
nodes = (
"485 225 OFFCURVE",
"433 225 QCURVE SMOOTH",
"392 225 OFFCURVE",
"229 262 OFFCURVE",
"190 268 QCURVE",
"180 231 OFFCURVE",
"180 211 QCURVE SMOOTH",
"180 165 OFFCURVE",
"197 93 QCURVE SMOOTH",
"202 69 OFFCURVE",
"224 17 OFFCURVE",
"247 -27 OFFCURVE",
"247 -28 QCURVE",
"394 -28 LINE SMOOTH",
"634 -28 OFFCURVE",
"771 61 QCURVE SMOOTH",
"871 123 OFFCURVE",
"963 314 OFFCURVE",
"963 448 QCURVE SMOOTH",
"963 571 OFFCURVE",
"923 753 QCURVE",
"954 766 LINE",
"986 965 LINE",
"962 976 LINE SMOOTH",
"936 987 OFFCURVE",
"843 1022 OFFCURVE",
"786 1046 OFFCURVE",
"706 1099 OFFCURVE",
"671 1135 QCURVE SMOOTH",
"648 1158 LINE",
"625 1142 LINE",
"552 1084 OFFCURVE",
"552 990 QCURVE SMOOTH",
"552 929 OFFCURVE",
"585 870 QCURVE",
"608 843 OFFCURVE",
"664 804 OFFCURVE",
"693 791 OFFCURVE",
"770 765 OFFCURVE",
"777 762 QCURVE",
"804 638 OFFCURVE",
"804 539 QCURVE SMOOTH",
"804 304 OFFCURVE",
"654 278 QCURVE",
"651 289 OFFCURVE",
"646 306 QCURVE",
"640 324 LINE",
"629 369 OFFCURVE",
"560 475 OFFCURVE",
"487 559 OFFCURVE",
"413 684 OFFCURVE",
"398 748 QCURVE",
"403 819 OFFCURVE",
"444 943 QCURVE SMOOTH",
"453 970 LINE",
"419 981 LINE SMOOTH",
"240 1038 OFFCURVE",
"136 1109 QCURVE SMOOTH",
"110 1127 LINE",
"98 1104 LINE SMOOTH",
"69 1050 OFFCURVE",
"69 971 QCURVE SMOOTH",
"69 912 OFFCURVE",
"88 827 QCURVE",
"108 803 OFFCURVE",
"146 769 OFFCURVE",
"181 749 OFFCURVE",
"199 741 OFFCURVE",
"234 732 OFFCURVE",
"236 731 QCURVE",
"236 722 LINE SMOOTH",
"236 664 OFFCURVE",
"300 529 OFFCURVE",
"377 430 OFFCURVE",
"498 283 OFFCURVE",
"527 241 QCURVE"
);
}
);
width = 1278;
}
);
note = ayinalt;
unicode = FB20;
},
{
glyphname = alefwide;
lastChange = "2018-07-29 16:34:27 +0000";
layers = (
{
layerId = "44BDE90C-78B7-4A9A-A14D-6B569C2B6751";
paths = (
{
closed = 1;
nodes = (
"370 631 OFFCURVE",
"770 414 QCURVE",
"773 411 LINE",
"782 408 LINE",
"803 400 OFFCURVE",
"843 384 QCURVE SMOOTH",
"936 347 OFFCURVE",
"1086 283 OFFCURVE",
"1225 213 OFFCURVE",
"1337 136 OFFCURVE",
"1436 37 OFFCURVE",
"1475 -24 QCURVE SMOOTH",
"1487 -42 LINE",
"1507 -42 LINE SMOOTH",
"1524 -42 OFFCURVE",
"1531 -25 QCURVE",
"1535 -12 OFFCURVE",
"1550 46 OFFCURVE",
"1571 179 OFFCURVE",
"1571 238 QCURVE SMOOTH",
"1571 259 OFFCURVE",
"1570 270 QCURVE",
"1545 287 OFFCURVE",
"1457 346 OFFCURVE",
"1424 367 OFFCURVE",
"1360 407 OFFCURVE",
"1298 440 OFFCURVE",
"1254 462 QCURVE",
"1290 523 OFFCURVE",
"1290 624 QCURVE SMOOTH",
"1290 680 OFFCURVE",
"1280 737 QCURVE",
"1309 732 LINE",
"1331 756 OFFCURVE",
"1352 786 OFFCURVE",
"1380 869 OFFCURVE",
"1387 928 QCURVE SMOOTH",
"1390 952 LINE",
"1365 964 LINE SMOOTH",
"1217 1039 OFFCURVE",
"1118 1138 QCURVE SMOOTH",
"1084 1173 LINE",
"1070 1136 LINE SMOOTH",
"1040 1061 OFFCURVE",
"1015 911 QCURVE SMOOTH",
"1011 889 LINE",
"1034 875 LINE SMOOTH",
"1132 818 OFFCURVE",
"1132 728 QCURVE SMOOTH",
"1132 643 OFFCURVE",
"1054 567 QCURVE",
"994 585 OFFCURVE",
"909 613 OFFCURVE",
"752 674 OFFCURVE",
"632 734 OFFCURVE",
"476 830 OFFCURVE",
"355 933 OFFCURVE",
"234 1074 OFFCURVE",
"191 1153 QCURVE SMOOTH",
"157 1213 LINE",
"34 922 LINE",
"143 825 LINE",
"141 820 OFFCURVE",
"121 771 OFFCURVE",
"114 754 OFFCURVE",
"98 710 OFFCURVE",
"91 683 OFFCURVE",
"82 643 OFFCURVE",
"78 607 OFFCURVE",
"78 589 QCURVE SMOOTH",
"78 562 OFFCURVE",
"82 539 QCURVE SMOOTH",
"86 513 OFFCURVE",
"93 414 OFFCURVE",
"100 384 QCURVE SMOOTH",
"114 323 OFFCURVE",
"208 189 OFFCURVE",
"266 139 QCURVE",
"257 122 OFFCURVE",
"245 95 OFFCURVE",
"237 71 OFFCURVE",
"232 55 OFFCURVE",
"229 33 OFFCURVE",
"228 23 OFFCURVE",
"226 -2 OFFCURVE",
"226 -7 QCURVE",
"283 -90 LINE",
"308 -74 LINE SMOOTH",
"360 -41 OFFCURVE",
"417 -9 OFFCURVE",
"511 22 OFFCURVE",
"555 22 QCURVE",
"578 46 LINE",
"578 70 LINE",
"577 93 OFFCURVE",
"570 212 OFFCURVE",
"564 284 QCURVE SMOOTH",
"559 348 LINE",
"512 313 LINE SMOOTH",
"482 291 OFFCURVE",
"450 291 QCURVE SMOOTH",
"398 291 OFFCURVE",
"270 379 OFFCURVE",
"254 448 QCURVE SMOOTH",
"248 474 OFFCURVE",
"248 499 QCURVE SMOOTH",
"248 553 OFFCURVE",
"290 642 OFFCURVE",
"314 648 QCURVE"
);
}
);
width = 1722;
}
);
note = alefwide;
unicode = FB21;
},
{
glyphname = daletwide;
lastChange = "2018-07-29 16:34:27 +0000";
layers = (
{
layerId = "44BDE90C-78B7-4A9A-A14D-6B569C2B6751";
paths = (
{
closed = 1;
nodes = (
"464 783 LINE SMOOTH",
"1012 783 OFFCURVE",
"1185 792 QCURVE",
"1185 774 LINE SMOOTH",
"1185 718 OFFCURVE",
"1199 664 QCURVE SMOOTH",
"1215 594 LINE",
"1219 579 OFFCURVE",
"1252 484 OFFCURVE",
"1257 463 QCURVE",
"1321 329 OFFCURVE",
"1383 140 OFFCURVE",
"1423 -29 QCURVE",
"1494 -82 LINE",
"1508 -55 LINE SMOOTH",
"1564 61 OFFCURVE",
"1564 146 QCURVE SMOOTH",
"1564 152 LINE",
"1562 221 OFFCURVE",
"1488 419 OFFCURVE",
"1398 620 OFFCURVE",
"1386 670 QCURVE",
"1384 680 OFFCURVE",
"1384 687 QCURVE SMOOTH",
"1384 724 OFFCURVE",
"1436 796 OFFCURVE",
"1481 807 QCURVE",
"1502 813 LINE",
"1497 837 LINE SMOOTH",
"1470 958 OFFCURVE",
"1395 1055 QCURVE SMOOTH",
"1381 1073 LINE",
"1361 1070 LINE SMOOTH",
"1298 1061 OFFCURVE",
"842 1044 OFFCURVE",
"750 1044 QCURVE SMOOTH",
"685 1044 OFFCURVE",
"355 1056 OFFCURVE",
"301 1061 QCURVE",
"270 1067 OFFCURVE",
"233 1089 OFFCURVE",
"189 1137 OFFCURVE",
"178 1146 QCURVE",
"152 1169 LINE",
"135 1147 LINE SMOOTH",
"74 1067 OFFCURVE",
"73 949 QCURVE",
"116 914 LINE",
"173 811 LINE",
"192 803 OFFCURVE",
"214 796 OFFCURVE",
"329 783 OFFCURVE",
"418 783 QCURVE SMOOTH"
);
}
);
width = 1748;
}
);
note = daletwide;
unicode = FB22;
},
{
glyphname = hewide;
lastChange = "2018-07-29 16:34:27 +0000";
layers = (
{
layerId = "44BDE90C-78B7-4A9A-A14D-6B569C2B6751";
paths = (
{
closed = 1;
nodes = (
"670 1053 OFFCURVE",
"472 1049 OFFCURVE",
"409 1049 QCURVE SMOOTH",
"352 1049 OFFCURVE",
"276 1050 OFFCURVE",
"212 1060 OFFCURVE",
"182 1064 OFFCURVE",
"141 1088 OFFCURVE",
"130 1097 OFFCURVE",
"85 1139 OFFCURVE",
"74 1149 QCURVE SMOOTH",
"47 1172 LINE",
"31 1150 LINE SMOOTH",
"-5 1103 OFFCURVE",
"-29 1017 OFFCURVE",
"-32 953 QCURVE",
"9 917 LINE",
"74 801 LINE",
"718 801 LINE SMOOTH",
"1081 801 OFFCURVE",
"1210 809 QCURVE",
"1210 771 LINE SMOOTH",
"1210 713 OFFCURVE",
"1233 610 QCURVE SMOOTH",
"1250 537 LINE",
"1301 422 OFFCURVE",
"1436 -4 OFFCURVE",
"1446 -29 QCURVE",
"1514 -79 LINE",
"1527 -53 LINE SMOOTH",
"1583 55 OFFCURVE",
"1583 143 QCURVE SMOOTH",
"1583 154 LINE",
"1580 228 OFFCURVE",
"1506 429 OFFCURVE",
"1416 632 OFFCURVE",
"1404 686 QCURVE SMOOTH",
"1398 712 OFFCURVE",
"1398 731 QCURVE SMOOTH",
"1398 756 OFFCURVE",
"1417 798 OFFCURVE",
"1437 818 OFFCURVE",
"1455 833 QCURVE",
"1455 834 OFFCURVE",
"1450 855 OFFCURVE",
"1447 866 OFFCURVE",
"1440 892 OFFCURVE",
"1432 911 OFFCURVE",
"1420 941 OFFCURVE",
"1405 969 OFFCURVE",
"1386 1002 OFFCURVE",
"1361 1038 OFFCURVE",
"1346 1057 QCURVE SMOOTH",
"1332 1076 LINE",
"1275 1067 OFFCURVE",
"957 1056 OFFCURVE",
"742 1053 OFFCURVE",
"686 1053 QCURVE SMOOTH"
);
},
{
closed = 1;
nodes = (
"214 736 LINE",
"136 589 OFFCURVE",
"136 438 QCURVE SMOOTH",
"136 256 OFFCURVE",
"259 -32 QCURVE",
"355 -75 LINE",
"365 -52 LINE",
"377 -20 OFFCURVE",
"396 97 OFFCURVE",
"409 226 OFFCURVE",
"410 231 QCURVE",
"373 263 OFFCURVE",
"341 302 OFFCURVE",
"311 382 OFFCURVE",
"292 462 QCURVE",
"272 573 OFFCURVE",
"272 657 QCURVE SMOOTH",
"272 710 LINE"
);
}
);
width = 1691;
}
);
note = hewide;
unicode = FB23;
},
{
glyphname = kafwide;
lastChange = "2018-07-29 16:34:27 +0000";
layers = (
{
layerId = "44BDE90C-78B7-4A9A-A14D-6B569C2B6751";
paths = (
{
closed = 1;
nodes = (
"1128 1056 OFFCURVE",
"978 1056 QCURVE SMOOTH",
"955 1056 OFFCURVE",
"645 1045 OFFCURVE",
"619 1045 QCURVE SMOOTH",
"572 1045 OFFCURVE",
"224 1056 OFFCURVE",
"190 1061 QCURVE",
"161 1070 OFFCURVE",
"113 1096 OFFCURVE",
"95 1109 OFFCURVE",
"53 1148 OFFCURVE",
"51 1150 QCURVE",
"24 1173 LINE",
"7 1151 LINE SMOOTH",
"-28 1106 OFFCURVE",
"-53 1018 OFFCURVE",
"-55 953 QCURVE",
"-12 918 LINE",
"51 802 LINE",
"956 802 LINE",
"984 799 OFFCURVE",
"1029 772 OFFCURVE",
"1064 722 OFFCURVE",
"1089 676 OFFCURVE",
"1125 600 OFFCURVE",
"1139 576 QCURVE",
"1145 564 OFFCURVE",
"1175 506 OFFCURVE",
"1193 469 OFFCURVE",
"1212 422 OFFCURVE",
"1216 405 QCURVE SMOOTH",
"1222 379 OFFCURVE",
"1222 345 OFFCURVE",
"1218 341 QCURVE",
"1191 299 OFFCURVE",
"852 246 OFFCURVE",
"455 228 OFFCURVE",
"221 228 QCURVE SMOOTH",
"164 228 LINE",
"151 164 OFFCURVE",
"151 116 QCURVE SMOOTH",
"151 74 OFFCURVE",
"157 -16 QCURVE SMOOTH",
"159 -51 LINE",
"195 -51 LINE SMOOTH",
"346 -51 OFFCURVE",
"814 -13 OFFCURVE",
"1299 74 OFFCURVE",
"1376 127 QCURVE",
"1412 189 OFFCURVE",
"1412 280 QCURVE SMOOTH",
"1412 335 OFFCURVE",
"1387 460 OFFCURVE",
"1330 613 OFFCURVE",
"1289 710 OFFCURVE",
"1204 894 OFFCURVE",
"1191 925 QCURVE"
);
}
);
width = 1578;
}
);
note = kafwide;
unicode = FB24;
},
{
glyphname = lamedwide;
lastChange = "2018-07-29 16:34:27 +0000";
layers = (
{
layerId = "44BDE90C-78B7-4A9A-A14D-6B569C2B6751";
paths = (
{
closed = 1;
nodes = (
"7 1398 OFFCURVE",
"7 1351 QCURVE SMOOTH",
"7 1327 OFFCURVE",
"3 1232 OFFCURVE",
"3 1216 QCURVE SMOOTH",
"3 1201 LINE",
"11 1109 OFFCURVE",
"41 980 QCURVE SMOOTH",
"56 917 OFFCURVE",
"106 829 OFFCURVE",
"167 789 OFFCURVE",
"219 774 OFFCURVE",
"247 774 QCURVE SMOOTH",
"1071 794 LINE SMOOTH",
"1076 794 OFFCURVE",
"1096 781 OFFCURVE",
"1124 740 OFFCURVE",
"1131 712 QCURVE",
"1130 614 OFFCURVE",
"1098 447 OFFCURVE",
"1063 359 OFFCURVE",
"1033 288 OFFCURVE",
"1033 274 QCURVE SMOOTH",
"1033 270 LINE",
"1033 240 LINE SMOOTH",
"1033 208 OFFCURVE",
"1045 147 OFFCURVE",
"1062 89 OFFCURVE",
"1064 81 QCURVE SMOOTH",
"1068 64 OFFCURVE",
"1149 -28 OFFCURVE",
"1204 -55 QCURVE",
"1232 -67 LINE",
"1240 -42 LINE SMOOTH",
"1264 32 OFFCURVE",
"1264 98 QCURVE SMOOTH",
"1264 141 OFFCURVE",
"1254 188 QCURVE",
"1248 211 LINE",
"1225 217 LINE",
"1198 223 OFFCURVE",
"1195 238 QCURVE",
"1195 239 OFFCURVE",
"1194 243 OFFCURVE",
"1194 245 QCURVE SMOOTH",
"1194 272 OFFCURVE",
"1266 490 OFFCURVE",
"1340 742 OFFCURVE",
"1341 808 QCURVE",
"1312 936 OFFCURVE",
"1219 1021 QCURVE",
"1202 1035 OFFCURVE",
"1172 1052 OFFCURVE",
"1157 1057 OFFCURVE",
"1132 1063 OFFCURVE",
"1128 1064 QCURVE",
"1125 1064 LINE SMOOTH",
"1070 1064 OFFCURVE",
"263 1050 OFFCURVE",
"214 1050 QCURVE SMOOTH",
"205 1050 OFFCURVE",
"195 1063 QCURVE SMOOTH",
"167 1098 OFFCURVE",
"143 1247 OFFCURVE",
"143 1397 OFFCURVE",
"120 1575 OFFCURVE",
"93 1631 QCURVE",
"83 1650 OFFCURVE",
"43 1674 OFFCURVE",
"21 1674 QCURVE SMOOTH",
"11 1674 OFFCURVE",
"6 1673 QCURVE",
"-2 1668 OFFCURVE",
"-9 1666 OFFCURVE",
"-12 1664 QCURVE",
"-117 1506 LINE",
"-117 1504 LINE",
"-122 1495 OFFCURVE",
"-122 1480 QCURVE SMOOTH",
"-122 1453 OFFCURVE",
"-77 1409 OFFCURVE",
"-39 1405 QCURVE",
"-35 1405 LINE",
"-7 1413 OFFCURVE",
"0 1413 QCURVE"
);
}
);
width = 1586;
}
);
note = lamedwide;
unicode = FB25;
},
{
glyphname = finalmemwide;
lastChange = "2018-07-29 16:34:27 +0000";
layers = (
{
layerId = "44BDE90C-78B7-4A9A-A14D-6B569C2B6751";
paths = (
{
closed = 1;
nodes = (
"-20 815 LINE",
"4 815 LINE SMOOTH",
"6 815 OFFCURVE",
"21 808 OFFCURVE",
"49 801 OFFCURVE",
"66 801 QCURVE",
"63 786 OFFCURVE",
"63 756 QCURVE SMOOTH",
"63 524 OFFCURVE",
"232 106 QCURVE",
"259 -13 OFFCURVE",
"340 -93 OFFCURVE",
"399 -93 QCURVE SMOOTH",
"401 -93 LINE",
"1566 89 LINE",
"1566 101 LINE SMOOTH",
"1566 118 OFFCURVE",
"1569 175 OFFCURVE",
"1569 187 QCURVE SMOOTH",
"1569 252 OFFCURVE",
"1531 324 QCURVE",
"1505 340 OFFCURVE",
"1495 359 QCURVE",
"1436 615 OFFCURVE",
"1330 893 QCURVE",
"1327 899 OFFCURVE",
"1312 939 OFFCURVE",
"1303 957 OFFCURVE",
"1283 992 OFFCURVE",
"1261 1010 OFFCURVE",
"1228 1031 OFFCURVE",
"1185 1040 OFFCURVE",
"1158 1040 QCURVE SMOOTH",
"1114 1040 OFFCURVE",
"714 1064 OFFCURVE",
"664 1064 QCURVE SMOOTH",
"523 1064 OFFCURVE",
"162 1075 OFFCURVE",
"123 1084 QCURVE",
"91 1090 OFFCURVE",
"45 1119 OFFCURVE",
"-12 1178 OFFCURVE",
"-20 1185 QCURVE SMOOTH",
"-46 1208 LINE",
"-63 1186 LINE SMOOTH",
"-98 1140 OFFCURVE",
"-124 1053 OFFCURVE",
"-125 988 QCURVE",
"-83 954 LINE"
);
},
{
closed = 1;
nodes = (
"1097 291 OFFCURVE",
"737 266 OFFCURVE",
"564 243 OFFCURVE",
"464 223 OFFCURVE",
"429 210 OFFCURVE",
"424 210 QCURVE SMOOTH",
"407 210 OFFCURVE",
"380 237 OFFCURVE",
"373 257 QCURVE",
"328 344 LINE SMOOTH",
"284 432 OFFCURVE",
"195 697 OFFCURVE",
"195 787 QCURVE SMOOTH",
"195 792 LINE",
"265 798 OFFCURVE",
"671 811 OFFCURVE",
"761 811 QCURVE SMOOTH",
"874 809 OFFCURVE",
"1180 747 OFFCURVE",
"1209 718 QCURVE",
"1277 564 OFFCURVE",
"1310 422 QCURVE SMOOTH",
"1338 299 LINE"
);
}
);
width = 1716;
}
);
note = finalmemwide;
unicode = FB26;
},
{
glyphname = reshwide;
lastChange = "2018-07-29 16:34:27 +0000";
layers = (
{
layerId = "44BDE90C-78B7-4A9A-A14D-6B569C2B6751";
paths = (
{
closed = 1;
nodes = (
"1149 798 OFFCURVE",
"1165 783 OFFCURVE",
"1175 769 OFFCURVE",
"1190 742 OFFCURVE",
"1196 729 OFFCURVE",
"1212 694 OFFCURVE",
"1214 689 QCURVE SMOOTH",
"1383 302 OFFCURVE",
"1383 103 QCURVE SMOOTH",
"1383 67 OFFCURVE",
"1377 40 QCURVE SMOOTH",
"1370 10 LINE",
"1466 -23 LINE",
"1530 37 OFFCURVE",
"1530 158 QCURVE SMOOTH",
"1530 249 OFFCURVE",
"1500 379 QCURVE SMOOTH",
"1454 576 LINE SMOOTH",
"1440 637 OFFCURVE",
"1415 729 OFFCURVE",
"1376 848 OFFCURVE",
"1330 933 OFFCURVE",
"1273 1010 OFFCURVE",
"1198 1050 OFFCURVE",
"1156 1050 QCURVE SMOOTH",
"277 1055 LINE",
"265 1057 OFFCURVE",
"244 1063 OFFCURVE",
"225 1071 OFFCURVE",
"209 1078 OFFCURVE",
"192 1089 OFFCURVE",
"182 1096 OFFCURVE",
"165 1110 OFFCURVE",
"158 1116 OFFCURVE",
"141 1131 OFFCURVE",
"138 1134 QCURVE",
"112 1157 LINE",
"95 1135 LINE SMOOTH",
"60 1091 OFFCURVE",
"25 1015 OFFCURVE",
"20 982 OFFCURVE",
"19 956 QCURVE",
"62 921 LINE",
"125 807 LINE",
"1141 802 LINE"
);
}
);
width = 1662;
}
);
note = reshwide;
unicode = FB27;
},
{
glyphname = tavwide;
lastChange = "2018-07-29 16:34:27 +0000";
layers = (
{
layerId = "44BDE90C-78B7-4A9A-A14D-6B569C2B6751";
paths = (
{
closed = 1;
nodes = (
"263 212 OFFCURVE",
"210 187 OFFCURVE",
"140 161 OFFCURVE",
"116 149 QCURVE",
"115 134 LINE",
"115 92 OFFCURVE",
"136 19 OFFCURVE",
"184 -78 OFFCURVE",
"189 -90 QCURVE",
"201 -122 LINE",
"231 -114 LINE SMOOTH",
"282 -101 OFFCURVE",
"389 -56 OFFCURVE",
"443 -28 OFFCURVE",
"549 35 OFFCURVE",
"555 39 QCURVE",
"500 279 LINE",
"442 279 LINE",
"364 405 OFFCURVE",
"340 511 QCURVE SMOOTH",
"329 555 OFFCURVE",
"329 612 QCURVE SMOOTH",
"329 678 OFFCURVE",
"361 775 OFFCURVE",
"385 775 QCURVE SMOOTH",
"1202 775 LINE SMOOTH",
"1237 775 OFFCURVE",
"1261 740 QCURVE",
"1279 699 OFFCURVE",
"1377 483 OFFCURVE",
"1409 410 OFFCURVE",
"1474 252 OFFCURVE",
"1499 169 OFFCURVE",
"1526 57 OFFCURVE",
"1531 8 QCURVE",
"1650 -83 LINE",
"1658 -44 LINE SMOOTH",
"1674 36 OFFCURVE",
"1674 100 QCURVE SMOOTH",
"1674 158 OFFCURVE",
"1660 220 QCURVE",
"1438 795 LINE SMOOTH",
"1434 805 OFFCURVE",
"1401 886 OFFCURVE",
"1382 927 OFFCURVE",
"1341 996 OFFCURVE",
"1303 1032 OFFCURVE",
"1244 1061 OFFCURVE",
"1210 1061 QCURVE SMOOTH",
"216 1060 LINE SMOOTH",
"168 1060 OFFCURVE",
"117 1081 OFFCURVE",
"86 1119 QCURVE SMOOTH",
"59 1153 LINE",
"37 1125 LINE SMOOTH",
"0 1077 OFFCURVE",
"0 991 QCURVE SMOOTH",
"0 918 OFFCURVE",
"33 836 QCURVE SMOOTH",
"42 815 LINE",
"216 785 LINE",
"165 690 OFFCURVE",
"165 589 QCURVE SMOOTH",
"165 435 OFFCURVE",
"288 231 QCURVE"
);
}
);
width = 1823;
}
);
note = tavwide;
unicode = FB28;
},
{
glyphname = hebrewplus;
lastChange = "2018-07-29 16:34:27 +0000";
layers = (
{
layerId = "44BDE90C-78B7-4A9A-A14D-6B569C2B6751";
paths = (
{
closed = 1;
nodes = (
"1082 308 LINE",
"1041 486 LINE",
"587 486 LINE",
"484 932 LINE",
"292 932 LINE",
"395 486 LINE",
"-51 486 LINE",
"-10 308 LINE"
);
}
);
width = 1253;
}
);
note = hebrewplus;
unicode = FB29;
},
{
glyphname = aleflamed;
lastChange = "2018-07-29 16:34:27 +0000";
layers = (
{
layerId = "44BDE90C-78B7-4A9A-A14D-6B569C2B6751";
paths = (
{
closed = 1;
nodes = (
"-171 1364 LINE",
"-168 1364 LINE",
"-126 1330 OFFCURVE",
"-102 1288 OFFCURVE",
"-84 1208 QCURVE SMOOTH",
"-83 1203 OFFCURVE",
"-73 1103 OFFCURVE",
"-58 973 OFFCURVE",
"-49 934 QCURVE SMOOTH",
"-32 861 OFFCURVE",
"48 711 OFFCURVE",
"74 681 QCURVE",
"149 586 OFFCURVE",
"328 435 OFFCURVE",
"504 326 OFFCURVE",
"682 218 OFFCURVE",
"887 56 OFFCURVE",
"977 -44 QCURVE",
"996 -67 LINE",
"1016 -53 LINE",
"1073 -18 OFFCURVE",
"1073 52 QCURVE SMOOTH",
"1073 127 OFFCURVE",
"1008 236 QCURVE",
"703 448 LINE",
"786 718 LINE",
"877 694 LINE",
"916 916 LINE",
"881 921 LINE SMOOTH",
"853 926 OFFCURVE",
"796 951 OFFCURVE",
"729 999 OFFCURVE",
"691 1028 OFFCURVE",
"610 1097 OFFCURVE",
"601 1105 QCURVE",
"583 1098 LINE SMOOTH",
"552 1087 OFFCURVE",
"503 981 OFFCURVE",
"503 929 QCURVE SMOOTH",
"503 913 OFFCURVE",
"506 898 QCURVE",
"512 874 OFFCURVE",
"539 842 OFFCURVE",
"568 824 OFFCURVE",
"596 802 OFFCURVE",
"614 759 OFFCURVE",
"614 726 QCURVE SMOOTH",
"614 656 OFFCURVE",
"573 523 QCURVE",
"518 543 OFFCURVE",
"327 685 OFFCURVE",
"140 894 OFFCURVE",
"119 978 QCURVE SMOOTH",
"111 1014 OFFCURVE",
"72 1291 OFFCURVE",
"57 1356 QCURVE",
"38 1406 OFFCURVE",
"-3 1481 OFFCURVE",
"-65 1548 OFFCURVE",
"-110 1587 OFFCURVE",
"-157 1625 QCURVE",
"-169 1625 LINE SMOOTH",
"-316 1625 OFFCURVE",
"-316 1493 QCURVE SMOOTH",
"-316 1457 OFFCURVE",
"-306 1413 QCURVE SMOOTH",
"-302 1393 OFFCURVE",
"-274 1351 OFFCURVE",
"-259 1340 QCURVE SMOOTH",
"-239 1325 LINE",
"-208 1352 OFFCURVE",
"-189 1364 OFFCURVE",
"-174 1364 QCURVE SMOOTH"
);
}
);
width = 1192;
}
);
note = aleflamed;
unicode = FB4F;
},
{
glyphname = "hatafsegol_CGJ_meteg-hb";
lastChange = "2018-07-29 16:34:27 +0000";
layers = (
{
layerId = "44BDE90C-78B7-4A9A-A14D-6B569C2B6751";
paths = (
{
closed = 1;
nodes = (
"652 -130 LINE",
"538 -130 LINE",
"641 -575 LINE",
"756 -575 LINE"
);
},
{
closed = 1;
nodes = (
"924 -588 OFFCURVE",
"962 -545 OFFCURVE",
"962 -511 QCURVE SMOOTH",
"962 -460 OFFCURVE",
"890 -370 OFFCURVE",
"836 -370 QCURVE SMOOTH",
"799 -370 OFFCURVE",
"762 -414 OFFCURVE",
"762 -449 QCURVE SMOOTH",
"762 -500 OFFCURVE",
"833 -588 OFFCURVE",
"887 -588 QCURVE SMOOTH"
);
},
{
closed = 1;
nodes = (
"865 -334 OFFCURVE",
"903 -290 OFFCURVE",
"903 -256 QCURVE SMOOTH",
"903 -205 OFFCURVE",
"832 -116 OFFCURVE",
"778 -116 QCURVE SMOOTH",
"741 -116 OFFCURVE",
"703 -160 OFFCURVE",
"703 -195 QCURVE SMOOTH",
"703 -246 OFFCURVE",
"774 -334 OFFCURVE",
"828 -334 QCURVE SMOOTH"
);
},
{
closed = 1;
nodes = (
"370 -116 OFFCURVE",
"332 -160 OFFCURVE",
"332 -195 QCURVE SMOOTH",
"332 -246 OFFCURVE",
"404 -334 OFFCURVE",
"458 -334 QCURVE SMOOTH",
"494 -334 OFFCURVE",
"532 -290 OFFCURVE",
"532 -256 QCURVE SMOOTH",
"532 -205 OFFCURVE",
"462 -116 OFFCURVE",
"408 -116 QCURVE SMOOTH"
);
},
{
closed = 1;
nodes = (
"311 -370 OFFCURVE",
"273 -414 OFFCURVE",
"273 -449 QCURVE SMOOTH",
"273 -500 OFFCURVE",
"345 -588 OFFCURVE",
"399 -588 QCURVE SMOOTH",
"435 -588 OFFCURVE",
"472 -544 OFFCURVE",
"472 -510 QCURVE SMOOTH",
"472 -459 OFFCURVE",
"402 -370 OFFCURVE",
"348 -370 QCURVE SMOOTH"
);
},
{
closed = 1;
nodes = (
"134 -116 OFFCURVE",
"96 -160 OFFCURVE",
"96 -194 QCURVE SMOOTH",
"96 -245 OFFCURVE",
"166 -334 OFFCURVE",
"220 -334 QCURVE SMOOTH",
"258 -334 OFFCURVE",
"296 -290 OFFCURVE",
"296 -255 QCURVE SMOOTH",
"296 -204 OFFCURVE",
"224 -116 OFFCURVE",
"170 -116 QCURVE SMOOTH"
);
}
);
width = 447;
}
);
note = hatafsegolmidmeteg;
},
{
glyphname = "hatafpatah__meteg-hb.null";
lastChange = "2018-07-29 16:34:27 +0000";
layers = (
{
layerId = "44BDE90C-78B7-4A9A-A14D-6B569C2B6751";
paths = (
{
closed = 1;
nodes = (
"446 -135 LINE",
"92 -135 LINE",
"127 -284 LINE",
"481 -284 LINE"
);
},
{
closed = 1;
nodes = (
"623 -130 LINE",
"509 -130 LINE",
"612 -575 LINE",
"726 -575 LINE"
);
},
{
closed = 1;
nodes = (
"916 -586 OFFCURVE",
"954 -542 OFFCURVE",
"954 -507 QCURVE SMOOTH",
"954 -456 OFFCURVE",
"881 -366 OFFCURVE",
"827 -366 QCURVE SMOOTH",
"790 -366 OFFCURVE",
"753 -410 OFFCURVE",
"753 -445 QCURVE SMOOTH",
"753 -496 OFFCURVE",
"824 -586 OFFCURVE",
"878 -586 QCURVE SMOOTH"
);
},
{
closed = 1;
nodes = (
"857 -332 OFFCURVE",
"895 -288 OFFCURVE",
"895 -253 QCURVE SMOOTH",
"895 -202 OFFCURVE",
"823 -112 OFFCURVE",
"769 -112 QCURVE SMOOTH",
"732 -112 OFFCURVE",
"694 -156 OFFCURVE",
"694 -191 QCURVE SMOOTH",
"694 -242 OFFCURVE",
"766 -332 OFFCURVE",
"820 -332 QCURVE SMOOTH"
);
}
);
width = 451;
}
);
note = hatafpatahmidmeteg;
},
